<svg width="31" height="28" viewBox="0 0 31 28" fill="none" xmlns="http://www.w3.org/2000/svg">
<mask id="mask0_380_1121" style="mask-type:luminance" maskUnits="userSpaceOnUse" x="5" y="5" width="20" height="20">
<path d="M5.12549 15.0993C5.19667 17.6217 6.27394 20.0131 8.12103 21.7492C9.96813 23.4852 12.4343 24.4241 14.9786 24.36C17.5247 24.4269 19.9935 23.4893 21.8429 21.7529C23.6923 20.0166 24.771 17.6235 24.8422 15.0993C24.7683 12.5768 23.6884 10.1864 21.8393 8.45229C19.9902 6.71817 17.5229 5.78192 14.9786 5.84889C12.436 5.78471 9.97143 6.72221 8.12464 8.45603C6.27784 10.1899 5.19939 12.5787 5.12549 15.0993Z" fill="white"/>
</mask>
<g mask="url(#mask0_380_1121)">
<path d="M20.8467 9.01185L32.8963 14.0415M20.8467 9.01185L33.9842 10.0489M20.8467 9.01185L33.6494 6.01481M20.8467 9.01185L31.9131 2.28148M20.8467 9.01185L28.9635 -0.736298M20.8467 9.01185L25.1038 -2.67556M20.8467 9.01185V-3.34963" stroke="#FFF200" stroke-width="0.59" stroke-miterlimit="3.86"/>
<path d="M20.9197 9.01185L4.18408 4.74963M20.9197 9.01185L4.82213 10.0489M20.9197 9.01185L4.18408 15.6281M20.9197 9.01185L5.02086 22.4311M20.9197 9.01185L13.2109 22.0059M20.9197 9.01185L18.4512 22.2756M20.9197 9.01185L23.1476 22.2756M20.9197 9.01185L28.7227 22.6696M20.9197 9.01185L30.5636 17.443" stroke="#FFD600" stroke-width="0.59" stroke-miterlimit="3.86"/>
<path d="M16.7358 -2.73778L20.7942 9.00148L12.8343 -0.860742M20.9197 9.00148L9.91602 2.07407" stroke="#FFF200" stroke-width="0.59" stroke-miterlimit="3.86"/>
<path d="M27.4781 9.01185C27.4261 10.7256 26.6914 12.3491 25.4348 13.5269C24.1782 14.7047 22.502 15.341 20.7734 15.2963C19.0457 15.3409 17.3707 14.7044 16.1157 13.5263C14.8608 12.3481 14.1284 10.7246 14.0791 9.01185C14.1284 7.29906 14.8608 5.67556 16.1157 4.49744C17.3707 3.31933 19.0457 2.68277 20.7734 2.72741C22.5028 2.67998 24.1805 3.31528 25.4377 4.4937C26.6949 5.67211 27.4288 7.29721 27.4781 9.01185Z" fill="#FFD600"/>
<path d="M27.4781 9.01185C27.4261 10.7256 26.6914 12.3491 25.4348 13.5269C24.1782 14.7047 22.502 15.341 20.7734 15.2963C19.0457 15.3409 17.3707 14.7044 16.1157 13.5263C14.8608 12.3481 14.1284 10.7246 14.0791 9.01185C14.1021 8.16332 14.2936 7.3276 14.6425 6.55246C14.9915 5.77732 15.4911 5.07796 16.1128 4.49433C16.7344 3.9107 17.466 3.45426 18.2657 3.15108C19.0654 2.8479 19.9175 2.70394 20.7734 2.72741C22.5028 2.67998 24.1805 3.31528 25.4377 4.4937C26.6949 5.67211 27.4288 7.29721 27.4781 9.01185Z" stroke="#FFD600" stroke-width="0.17" stroke-miterlimit="3.86"/>
<path d="M25.8882 19.8178H5.94141V26.1333H25.8882V19.8178Z" fill="#007447"/>
</g>
<mask id="mask1_380_1121" style="mask-type:luminance" maskUnits="userSpaceOnUse" x="3" y="1" width="24" height="26">
<path d="M26.8919 1.44148H3.43066V26.5481H26.8919V1.44148Z" fill="white"/>
</mask>
<g mask="url(#mask1_380_1121)">
<path d="M12.3945 18.4385C13.2075 18.4919 14.0225 18.3693 14.7829 18.0792C15.5433 17.7891 16.2309 17.3384 16.7981 16.7585C17.3162 16.3198 17.7384 15.7808 18.0388 15.1744C18.3392 14.5681 18.5114 13.9073 18.5449 13.2326L17.6244 13.803C16.6602 14.2302 15.7301 14.7294 14.8421 15.2963C13.7522 16.0894 12.905 17.1662 12.3945 18.4074" fill="#007447"/>
<path d="M11.9342 18.4385C11.1197 18.492 10.3031 18.3695 9.54102 18.0794C8.7789 17.7894 8.08942 17.3387 7.52022 16.7585C7.00397 16.3182 6.58305 15.7788 6.28283 15.1728C5.98261 14.5668 5.80933 13.9068 5.77344 13.2326L6.70436 13.803C7.6641 14.2325 8.59056 14.7316 9.4762 15.2963C10.5662 16.0919 11.4162 17.1677 11.9342 18.4074" fill="#007447"/>
<path d="M12.3423 15.4519C12.9932 15.4927 13.6452 15.3933 14.2537 15.1606C14.8622 14.9279 15.4126 14.5673 15.8672 14.1037C16.2827 13.7533 16.6214 13.3222 16.8624 12.8371C17.1035 12.352 17.2418 11.8231 17.2688 11.283L16.5262 11.7393C15.7588 12.0828 15.0177 12.4814 14.3087 12.9319C13.4287 13.5733 12.7475 14.4462 12.3423 15.4519Z" fill="#007447"/>
<path d="M11.9759 15.4519C11.325 15.4927 10.6729 15.3933 10.0645 15.1606C9.45599 14.9279 8.90554 14.5673 8.45093 14.1037C8.03735 13.7517 7.69995 13.3203 7.45907 12.8355C7.21818 12.3507 7.0788 11.8226 7.04932 11.283L7.79196 11.7393C8.56274 12.0828 9.30734 12.4814 10.0199 12.9319C10.8941 13.5766 11.5711 14.4489 11.9759 15.4519Z" fill="#007447"/>
<path d="M12.311 12.9526C12.8279 12.9936 13.3476 12.922 13.8336 12.7428C14.3197 12.5637 14.7603 12.2813 15.1247 11.9156C15.4586 11.638 15.7306 11.2946 15.9233 10.9072C16.116 10.5197 16.2252 10.0968 16.2439 9.66518L15.6895 9.98667C15.0719 10.2568 14.4773 10.5758 13.9114 10.9407C13.2106 11.4544 12.6675 12.1509 12.3424 12.9526" fill="#007447"/>
<path d="M12.0076 12.9526C11.4907 12.9936 10.971 12.922 10.485 12.7428C9.99893 12.5637 9.55828 12.2813 9.1939 11.9156C8.85735 11.6313 8.58408 11.2808 8.39141 10.8862C8.19875 10.4917 8.0909 10.0618 8.07471 9.6237C8.30482 9.76889 8.43034 9.85185 8.67091 9.98667C9.28627 10.2613 9.88057 10.5802 10.4491 10.9407C11.1437 11.4581 11.6826 12.1538 12.0076 12.9526Z" fill="#007447"/>
<path d="M12.2793 10.8681C12.6965 10.8975 13.1151 10.8356 13.5055 10.6868C13.8959 10.5381 14.2486 10.3062 14.5386 10.0074C14.8018 9.78153 15.0162 9.50525 15.1689 9.19517C15.3217 8.88509 15.4097 8.5476 15.4277 8.20296C15.2499 8.32741 15.1453 8.38963 14.957 8.5037C14.4645 8.72073 13.9891 8.97378 13.5345 9.26074C12.9722 9.66913 12.5372 10.2262 12.2793 10.8681Z" fill="#007447"/>
<path d="M12.039 10.8681C11.6235 10.8959 11.207 10.8333 10.8185 10.6846C10.43 10.5359 10.079 10.3048 9.79016 10.0074C9.52369 9.78365 9.30637 9.50806 9.15164 9.19768C8.99691 8.8873 8.90808 8.54875 8.89062 8.20296L9.41361 8.5037C9.90715 8.71854 10.3828 8.97167 10.8361 9.26074C11.3984 9.66913 11.8334 10.2262 12.0913 10.8681" fill="#007447"/>
<path d="M12.1642 8.5037C12.2897 8.5037 12.3839 9.05333 12.3839 9.72741V19.0607H11.9341V9.72741C11.9341 9.05333 12.0387 8.5037 12.1642 8.5037Z" fill="#007447"/>
</g>
<mask id="mask2_380_1121" style="mask-type:luminance" maskUnits="userSpaceOnUse" x="5" y="5" width="20" height="20">
<path d="M5.12549 15.0993C5.19667 17.6217 6.27394 20.0131 8.12103 21.7492C9.96813 23.4852 12.4343 24.4241 14.9786 24.36C17.5247 24.4269 19.9935 23.4893 21.8429 21.7529C23.6923 20.0166 24.771 17.6235 24.8422 15.0993C24.7683 12.5768 23.6884 10.1864 21.8393 8.45229C19.9902 6.71817 17.5229 5.78192 14.9786 5.84889C12.436 5.78471 9.97143 6.72221 8.12464 8.45603C6.27784 10.1899 5.19939 12.5787 5.12549 15.0993Z" fill="white"/>
</mask>
<g mask="url(#mask2_380_1121)">
<path d="M20.8467 9.01185L32.8963 14.0415M20.8467 9.01185L33.9842 10.0489M20.8467 9.01185L33.6494 6.01481M20.8467 9.01185L31.9131 2.28148M20.8467 9.01185L28.9635 -0.736298M20.8467 9.01185L25.1038 -2.67556M20.8467 9.01185V-3.34963" stroke="#FFF200" stroke-width="0.59" stroke-miterlimit="3.86"/>
<path d="M20.9197 9.01185L4.18408 4.74963M20.9197 9.01185L4.82213 10.0489M20.9197 9.01185L4.18408 15.6281M20.9197 9.01185L5.02086 22.4311M20.9197 9.01185L13.2109 22.0059M20.9197 9.01185L18.4512 22.2756M20.9197 9.01185L23.1476 22.2756M20.9197 9.01185L28.7227 22.6696M20.9197 9.01185L30.5636 17.443" stroke="#FFD600" stroke-width="0.59" stroke-miterlimit="3.86"/>
<path d="M16.7358 -2.73778L20.7942 9.00148L12.8343 -0.860742M20.9197 9.00148L9.91602 2.07407" stroke="#FFF200" stroke-width="0.59" stroke-miterlimit="3.86"/>
<path d="M27.4781 9.01185C27.4261 10.7256 26.6914 12.3491 25.4348 13.5269C24.1782 14.7047 22.502 15.341 20.7734 15.2963C19.0457 15.3409 17.3707 14.7044 16.1157 13.5263C14.8608 12.3481 14.1284 10.7246 14.0791 9.01185C14.1284 7.29906 14.8608 5.67556 16.1157 4.49744C17.3707 3.31933 19.0457 2.68277 20.7734 2.72741C22.5028 2.67998 24.1805 3.31528 25.4377 4.4937C26.6949 5.67211 27.4288 7.29721 27.4781 9.01185Z" fill="#FFD600"/>
<path d="M27.4781 9.01185C27.4261 10.7256 26.6914 12.3491 25.4348 13.5269C24.1782 14.7047 22.502 15.341 20.7734 15.2963C19.0457 15.3409 17.3707 14.7044 16.1157 13.5263C14.8608 12.3481 14.1284 10.7246 14.0791 9.01185C14.1021 8.16332 14.2936 7.3276 14.6425 6.55246C14.9915 5.77732 15.4911 5.07796 16.1128 4.49433C16.7344 3.9107 17.466 3.45426 18.2657 3.15108C19.0654 2.8479 19.9175 2.70394 20.7734 2.72741C22.5028 2.67998 24.1805 3.31528 25.4377 4.4937C26.6949 5.67211 27.4288 7.29721 27.4781 9.01185Z" stroke="#FFD600" stroke-width="0.17" stroke-miterlimit="3.86"/>
<path d="M25.8882 19.8178H5.94141V26.1333H25.8882V19.8178Z" fill="#007447"/>
</g>
<mask id="mask3_380_1121" style="mask-type:luminance" maskUnits="userSpaceOnUse" x="3" y="1" width="24" height="26">
<path d="M26.8919 1.44148H3.43066V26.5481H26.8919V1.44148Z" fill="white"/>
</mask>
<g mask="url(#mask3_380_1121)">
<path d="M12.3945 18.4385C13.2075 18.4919 14.0225 18.3693 14.7829 18.0792C15.5433 17.7891 16.2309 17.3384 16.7981 16.7585C17.3162 16.3198 17.7384 15.7808 18.0388 15.1744C18.3392 14.5681 18.5114 13.9073 18.5449 13.2326L17.6244 13.803C16.6602 14.2302 15.7301 14.7294 14.8421 15.2963C13.7522 16.0894 12.905 17.1662 12.3945 18.4074" fill="#007447"/>
<path d="M11.9342 18.4385C11.1197 18.492 10.3031 18.3695 9.54102 18.0794C8.7789 17.7894 8.08942 17.3387 7.52022 16.7585C7.00397 16.3182 6.58305 15.7788 6.28283 15.1728C5.98261 14.5668 5.80933 13.9068 5.77344 13.2326L6.70436 13.803C7.6641 14.2325 8.59056 14.7316 9.4762 15.2963C10.5662 16.0919 11.4162 17.1677 11.9342 18.4074" fill="#007447"/>
<path d="M12.3423 15.4519C12.9932 15.4927 13.6452 15.3933 14.2537 15.1606C14.8622 14.9279 15.4126 14.5673 15.8672 14.1037C16.2827 13.7533 16.6214 13.3222 16.8624 12.8371C17.1035 12.352 17.2418 11.8231 17.2688 11.283L16.5262 11.7393C15.7588 12.0828 15.0177 12.4814 14.3087 12.9319C13.4287 13.5733 12.7475 14.4462 12.3423 15.4519Z" fill="#007447"/>
<path d="M11.9764 15.4519C11.3255 15.4927 10.6734 15.3933 10.0649 15.1606C9.45648 14.9279 8.90603 14.5673 8.45141 14.1037C8.03784 13.7517 7.70044 13.3203 7.45955 12.8355C7.21867 12.3507 7.07928 11.8226 7.0498 11.283L7.79245 11.7393C8.56323 12.0828 9.30783 12.4814 10.0204 12.9319C10.8946 13.5766 11.5716 14.4489 11.9764 15.4519Z" fill="#007447"/>
<path d="M12.311 12.9526C12.8279 12.9936 13.3476 12.922 13.8336 12.7428C14.3197 12.5637 14.7603 12.2813 15.1247 11.9156C15.4586 11.638 15.7306 11.2946 15.9233 10.9072C16.116 10.5197 16.2252 10.0968 16.2439 9.66518L15.6895 9.98667C15.0719 10.2568 14.4773 10.5758 13.9114 10.9407C13.2106 11.4544 12.6675 12.1509 12.3424 12.9526" fill="#007447"/>
<path d="M12.0076 12.9526C11.4907 12.9936 10.971 12.922 10.485 12.7428C9.99893 12.5637 9.55828 12.2813 9.1939 11.9156C8.85735 11.6313 8.58408 11.2808 8.39141 10.8862C8.19875 10.4917 8.0909 10.0618 8.07471 9.6237C8.30482 9.76889 8.43034 9.85185 8.67091 9.98667C9.28627 10.2613 9.88057 10.5802 10.4491 10.9407C11.1437 11.4581 11.6826 12.1538 12.0076 12.9526Z" fill="#007447"/>
<path d="M12.2793 10.8681C12.6965 10.8975 13.1151 10.8356 13.5055 10.6868C13.8959 10.5381 14.2486 10.3062 14.5386 10.0074C14.8018 9.78152 15.0162 9.50525 15.1689 9.19517C15.3217 8.88509 15.4097 8.5476 15.4277 8.20296C15.2499 8.32741 15.1453 8.38963 14.957 8.5037C14.4645 8.72073 13.9891 8.97377 13.5345 9.26074C12.9722 9.66913 12.5372 10.2262 12.2793 10.8681Z" fill="#007447"/>
<path d="M12.039 10.8681C11.6235 10.8959 11.207 10.8333 10.8185 10.6846C10.43 10.5359 10.079 10.3048 9.79016 10.0074C9.52369 9.78365 9.30637 9.50805 9.15164 9.19768C8.99691 8.8873 8.90808 8.54875 8.89062 8.20296L9.41361 8.5037C9.90715 8.71854 10.3828 8.97167 10.8361 9.26074C11.3984 9.66913 11.8334 10.2262 12.0913 10.8681" fill="#007447"/>
<path d="M12.1642 8.5037C12.2897 8.5037 12.3839 9.05333 12.3839 9.72741V19.0607H11.9341V9.72741C11.9341 9.05333 12.0387 8.5037 12.1642 8.5037Z" fill="#007447"/>
<path d="M4.02673 12.1333L4.12087 11.843C4.19409 11.6252 4.25685 11.6044 4.49742 11.6667L5.29236 11.8948L5.35512 11.7185L4.5288 11.48C4.20455 11.397 4.06857 11.48 3.98489 11.7081L3.85938 12.0815L4.02673 12.1333Z" fill="#492A00"/>
<path d="M5.083 10.9407C4.81104 10.9407 4.49725 10.7022 4.60185 10.4844C4.70645 10.2667 4.89472 10.3185 5.19805 10.4844C5.50139 10.6504 5.55369 10.837 5.47001 11.0133L5.37587 11.2207L5.52231 11.283L5.63737 11.0444C5.77334 10.7644 5.7315 10.5052 5.27127 10.3081C4.81104 10.1111 4.58093 10.1733 4.44495 10.4533C4.30897 10.7333 4.73783 11.1689 4.99932 11.1378L5.083 10.9407Z" fill="#492A00"/>
<path d="M4.91602 9.58222L5.06245 9.66518L5.22981 9.4163C5.41808 9.1363 6.27579 9.60296 6.06659 9.88296L5.89923 10.1319L6.04567 10.2148L6.21303 9.96593C6.53728 9.45778 5.40763 8.83556 5.08337 9.33333L4.91602 9.58222Z" fill="#492A00"/>
<path d="M6.01389 8.29629C6.16032 8.12 6.26492 8.13037 6.49504 8.29629L7.1017 8.72148L7.21676 8.5763L6.6101 8.14074C6.244 7.88148 6.08711 7.9437 5.87791 8.14074L5.60596 8.48296L5.74193 8.5763L6.01389 8.29629ZM6.01389 8.83555L6.63101 9.28148L6.75653 9.12592L6.13941 8.69037L6.01389 8.83555Z" fill="#492A00"/>
<path d="M7.1333 6.87555L8.01192 7.79852L8.15836 7.6637L7.3948 6.87555L7.62491 6.67852C7.79227 6.5437 7.8864 6.59555 8.07468 6.79259L8.57675 7.31111L8.72319 7.19704L8.2002 6.63704C7.92824 6.35704 7.76089 6.34666 7.52031 6.55407L7.1333 6.87555Z" fill="#492A00"/>
<path d="M9.30905 6.81333L8.70239 6.00444C8.65415 5.93567 8.59393 5.87597 8.52457 5.82815L8.36768 5.93185C8.43455 5.98256 8.49434 6.04184 8.54549 6.10815L9.15216 6.92741L9.30905 6.81333Z" fill="#492A00"/>
<path d="M9.12061 5.45481L9.60175 6.22222C9.69589 6.37778 9.60175 6.44 9.49716 6.41926L9.58083 6.55407C9.62886 6.56637 9.67925 6.56637 9.72727 6.55407C9.87371 6.48148 9.90509 6.37778 9.72727 6.14963L9.41348 5.50667L9.64359 5.39259C9.85279 5.27852 9.90509 5.30963 10.0306 5.50667L10.3967 6.22222L10.5745 6.12889L10.198 5.48593C9.97831 5.11259 9.89463 5.07111 9.539 5.26815L9.12061 5.45481Z" fill="#492A00"/>
<path d="M10.9406 5.39259L10.7419 4.95704C10.71 4.87754 10.6599 4.80652 10.5954 4.74963L10.4595 4.83259C10.5221 4.88699 10.5721 4.95422 10.6059 5.02963L10.8151 5.46518L10.9406 5.39259Z" fill="#492A00"/>
<path d="M11.5995 5.18518C11.4217 4.99852 11.4008 4.61481 11.5995 4.54222C11.7983 4.46963 11.9238 4.63555 12.0284 4.93629C12.133 5.23704 12.0284 5.41333 11.7983 5.47555L11.5682 5.54815L11.6205 5.7037L11.8924 5.62074C12.1957 5.52741 12.3736 5.30963 12.2271 4.87407C12.0807 4.43852 11.861 4.29333 11.5472 4.38666C11.4671 4.41925 11.3963 4.47108 11.3414 4.53749C11.2864 4.6039 11.2489 4.6828 11.2323 4.76712C11.2157 4.85143 11.2205 4.93852 11.2463 5.02054C11.272 5.10256 11.318 5.17696 11.3799 5.23704L11.5995 5.18518Z" fill="#492A00"/>
<path d="M13.1056 5.30963L12.8859 4.34518C12.8713 4.27471 12.8429 4.20776 12.8023 4.14815H12.6035C12.6404 4.22185 12.6718 4.2981 12.6977 4.3763L12.9173 5.34074L13.1056 5.30963Z" fill="#492A00"/>
<path d="M14.2561 3.90963V4.83259C14.2561 5.00889 14.1411 5.02963 14.0679 4.96741V5.12296C14.1157 5.13679 14.1665 5.13679 14.2143 5.12296C14.3817 5.12296 14.4653 5.04 14.4549 4.78074V4.0237H14.7164C14.957 4.0237 14.9883 4.0237 14.9988 4.29333V5.08148H15.1975C15.1975 5.08148 15.1975 4.6563 15.1975 4.34518C15.1975 4.03407 15.1348 3.84741 14.7268 3.86815L14.2561 3.90963Z" fill="#492A00"/>
<path d="M15.9196 5.18518L15.9928 4.14815C16.0086 4.06593 16.0086 3.98148 15.9928 3.89926H15.7941C15.8006 3.97863 15.8006 4.0584 15.7941 4.13778L15.6895 5.18518H15.9196Z" fill="#492A00"/>
</g>
<path d="M16.6414 4.26222L16.3066 5.15407L16.4949 5.18519L16.746 4.48L17.0702 5.26815L17.3003 5.30963L17.112 4.88444L17.4677 4.08593L17.2585 4.05481L17.0284 4.66667L16.7564 3.97185L16.5158 3.94074L16.6414 4.26222Z" fill="#492A00"/>
<mask id="mask4_380_1121" style="mask-type:luminance" maskUnits="userSpaceOnUse" x="3" y="1" width="24" height="26">
<path d="M26.8919 1.44148H3.43066V26.5481H26.8919V1.44148Z" fill="white"/>
</mask>
<g mask="url(#mask4_380_1121)">
<path d="M17.9279 3.62963C17.9396 3.71218 17.9396 3.79596 17.9279 3.87852L17.8442 4.14815C17.8442 4.31407 17.8442 4.39704 17.9802 4.41778H18.1999C18.4091 4.48 18.3254 4.61481 18.2522 4.76L17.9384 5.46518L18.1371 5.51704L18.4404 4.82222C18.5346 4.63556 18.6915 4.3763 18.3777 4.3037L18.1371 4.24148C18.0221 4.24148 18.0116 4.24148 18.1371 3.90963C18.1511 3.83421 18.1511 3.7569 18.1371 3.68148L17.9279 3.62963Z" fill="#492A00"/>
<path d="M19.0156 5.04L18.5449 6.07704L18.7227 6.22222L19.1934 5.13333L19.0156 5.04ZM19.8733 4.95704L19.6432 5.50667C19.6432 5.56889 19.4968 5.82815 19.3294 5.76592C19.2795 5.74719 19.236 5.71483 19.2039 5.67259L19.1411 5.82815C19.1732 5.87039 19.2168 5.90275 19.2666 5.92148C19.6223 6.04592 19.7896 5.65185 19.821 5.57926L20.1243 4.87407L19.2248 4.54222L19.162 4.68741L19.8733 4.95704Z" fill="#492A00"/>
<path d="M20.6892 5.18518L20.0093 6.22222L20.1766 6.31555L20.7624 5.40296L21.0343 5.54815C21.2122 5.65185 21.2017 5.75555 21.0343 5.9837L20.6369 6.58518L20.8147 6.68889L21.2226 6.04593C21.4213 5.72444 21.39 5.56889 21.1076 5.41333L20.6892 5.18518Z" fill="#492A00"/>
<path d="M22.2896 6.36741C22.4778 6.51259 22.4569 6.6163 22.2896 6.81333L21.8084 7.37333L21.9653 7.48741L22.4464 6.92741C22.7393 6.59556 22.6766 6.45037 22.4464 6.24296L22.0908 5.9837L21.9862 6.10815L22.2896 6.36741ZM21.7143 6.36741L21.2227 6.93778L21.3796 7.05185L21.8712 6.49185L21.7143 6.36741Z" fill="#492A00"/>
</g>
<path d="M23.5135 7.40444L23.8482 7.75704L23.001 8.47259L23.137 8.60741L23.9842 7.89185L24.1411 8.06815L24.2666 7.95407L23.6495 7.30074L23.5135 7.40444Z" fill="#492A00"/>
<mask id="mask5_380_1121" style="mask-type:luminance" maskUnits="userSpaceOnUse" x="3" y="1" width="24" height="26">
<path d="M26.8919 1.44148H3.43066V26.5481H26.8919V1.44148Z" fill="white"/>
</mask>
<g mask="url(#mask5_380_1121)">
<path d="M24.3607 8.2963L24.5385 8.54518C24.6954 8.73185 24.664 8.79407 24.4652 8.92889L23.7749 9.37481L23.89 9.53037L24.6012 9.07407C24.8732 8.88741 24.915 8.76296 24.7372 8.52444L24.5071 8.2963H24.3607Z" fill="#492A00"/>
<path d="M25.5427 9.83111L24.7582 10.1941L24.8419 10.3496L25.6368 9.99704L25.5427 9.83111ZM25.323 9.39556L24.1934 10.0281L24.4444 10.5052C24.5595 10.7437 24.7268 10.8993 25.1347 10.7126L25.8355 10.3704L25.7519 10.2044L25.0406 10.5259C24.7686 10.6504 24.6745 10.5259 24.5595 10.3393L24.4235 10.0904L25.4067 9.54074L25.323 9.39556Z" fill="#492A00"/>
<path d="M26.1493 10.9615C26.0677 11.0086 25.9796 11.0435 25.8878 11.0652L24.915 11.3659L24.9778 11.5422L25.6158 11.3452C25.8146 11.3452 26.1388 11.3452 26.2016 11.5111C26.2643 11.677 26.0238 11.7911 25.9296 11.8222L25.5322 11.9363C25.2811 12.0193 25.2184 11.8533 25.2184 11.6978L25.051 11.7496C25.051 12.04 25.2079 12.237 25.5845 12.123L26.0029 11.9985C26.1493 11.9467 26.5049 11.8533 26.3794 11.4904C26.2539 11.1274 25.961 11.2519 25.961 11.2519C26.0501 11.232 26.1351 11.1969 26.2121 11.1481L26.1493 10.9615Z" fill="#492A00"/>
<path d="M11.3174 22.6074C11.3174 22.7111 11.3174 22.7733 11.3174 22.7733C11.3174 22.7733 11.2546 22.7733 11.2233 22.6489C11.2186 22.5798 11.2186 22.5105 11.2233 22.4415V22.3896C11.2055 22.441 11.1809 22.4899 11.1501 22.5348C11.1254 22.5851 11.1045 22.6371 11.0873 22.6904C11.0527 22.7626 10.9984 22.8237 10.9304 22.8667C10.8748 22.9228 10.8067 22.9655 10.7317 22.9911H10.5852H10.512H10.3237C10.3678 22.9608 10.4176 22.9396 10.4702 22.9289C10.5286 22.9161 10.5806 22.883 10.6166 22.8356L10.763 22.6904C10.8094 22.6349 10.8513 22.5759 10.8886 22.5141V22.4311C10.8886 22.4311 10.8886 22.4311 10.8886 22.3274C10.8886 22.2237 10.8886 22.2652 10.8886 22.2652C10.8886 22.2652 10.9618 22.3793 10.9932 22.5556C11.0245 22.7318 10.9932 22.7837 10.9932 22.9081" fill="#D4DF2A"/>
<path d="M11.8824 21.9126C11.8834 21.9299 11.8834 21.9472 11.8824 21.9644C11.867 22.0033 11.8495 22.0414 11.8301 22.0785H11.5059L11.5582 21.9437C11.5527 21.9059 11.5527 21.8675 11.5582 21.8296C11.5582 21.8296 11.5582 21.8296 11.5582 21.7674C11.5582 21.7674 11.5582 21.7674 11.6418 21.8296V21.9022" fill="#D4DF2A"/>
<path d="M12.259 21.9644C12.2632 22.0058 12.2632 22.0475 12.259 22.0889V22.1407C12.2626 22.1683 12.2626 22.1962 12.259 22.2237C12.259 22.2237 12.259 22.3689 12.259 22.3793V22.483L11.9242 22.8148C11.9242 22.8148 11.9242 22.8148 11.9242 22.8667C11.9009 22.9078 11.8728 22.946 11.8406 22.9807L11.7464 23.0326C11.7159 23.0429 11.6828 23.0429 11.6523 23.0326H11.5059H11.5582L11.6314 22.9081C11.6487 22.8418 11.677 22.7787 11.7151 22.7215C11.7125 22.6835 11.7125 22.6454 11.7151 22.6074C11.7318 22.5506 11.7528 22.4952 11.7778 22.4415C11.7778 22.3689 11.7778 22.317 11.8301 22.2652C11.8369 22.224 11.8369 22.1819 11.8301 22.1407V22.203C11.8301 22.203 11.8301 22.203 11.8301 22.2859" fill="#D4DF2A"/>
<path d="M12.8445 22.4415C12.8445 22.4933 12.8445 22.5244 12.7817 22.5141C12.7542 22.526 12.7302 22.5446 12.712 22.5681C12.6937 22.5917 12.6817 22.6195 12.6771 22.6489C12.6563 22.7066 12.6388 22.7655 12.6248 22.8252C12.6107 22.8971 12.6107 22.971 12.6248 23.043C12.6211 23.1086 12.6211 23.1744 12.6248 23.24V23.1881C12.6248 23.1881 12.6248 23.1363 12.6248 23.1156V23.043C12.6211 23.0189 12.6211 22.9944 12.6248 22.9704V22.8978V22.8148V22.6904L12.7085 22.5763H12.7713C12.7676 22.5418 12.7676 22.5071 12.7713 22.4726C12.7606 22.4318 12.7606 22.389 12.7713 22.3481V22.2859C12.7713 22.2859 12.7713 22.2859 12.7713 22.2341C12.7678 22.2582 12.7678 22.2826 12.7713 22.3067C12.7713 22.3067 12.7713 22.3067 12.7713 22.4V22.4726V22.5348C12.7762 22.5553 12.7762 22.5766 12.7713 22.597" fill="#D4DF2A"/>
<path d="M13.3988 22.2652V22.317V22.3793C13.3765 22.3909 13.3582 22.409 13.3465 22.4311H13.2942H13.2209C13.2209 22.4311 13.2209 22.4311 13.2209 22.3689V22.2963C13.2169 22.2792 13.2169 22.2615 13.2209 22.2444C13.2243 22.2134 13.2243 22.1821 13.2209 22.1511V22.0785V21.9852C13.2209 21.9299 13.2 21.8988 13.1582 21.8919C13.1466 21.8967 13.1341 21.8992 13.1216 21.8992C13.109 21.8992 13.0965 21.8967 13.085 21.8919C13.1009 21.8629 13.1269 21.8408 13.1582 21.8296H13.2942H13.3465C13.3771 21.8531 13.3991 21.8859 13.4092 21.923V22.0059" fill="#D4DF2A"/>
<path d="M13.9845 21.8815V21.9644C13.9797 21.9954 13.9797 22.0268 13.9845 22.0578V22.1096V22.1926V22.2444C13.9789 22.2613 13.9789 22.2795 13.9845 22.2963C13.9826 22.317 13.9826 22.3378 13.9845 22.3585C13.9795 22.3416 13.9795 22.3236 13.9845 22.3067C13.9783 22.2759 13.9783 22.2441 13.9845 22.2133C13.9796 22.2018 13.9771 22.1895 13.9771 22.177C13.9771 22.1646 13.9796 22.1522 13.9845 22.1407V22.037C13.9926 22.0171 13.9926 21.9948 13.9845 21.9748C13.9895 21.9509 13.9895 21.9262 13.9845 21.9022V21.84C13.982 21.8124 13.982 21.7846 13.9845 21.757C13.9845 21.757 13.9845 21.757 13.9845 21.7052C13.9807 21.697 13.9788 21.6882 13.9788 21.6793C13.9788 21.6703 13.9807 21.6615 13.9845 21.6533V21.6015V21.4978C13.9902 21.5216 13.9902 21.5465 13.9845 21.5704" fill="#D4DF2A"/>
<path d="M14.9575 22.4933C14.9575 22.4933 14.9575 22.4933 14.8738 22.4933H14.811C14.7801 22.5012 14.7478 22.5012 14.7169 22.4933L14.6541 22.4415V22.3793C14.6528 22.3551 14.6528 22.3308 14.6541 22.3067V22.2341C14.6541 22.2341 14.6541 22.2341 14.6541 22.2963C14.6474 22.32 14.6474 22.3451 14.6541 22.3689V22.4726C14.6484 22.5034 14.6484 22.5351 14.6541 22.5659H14.5914H14.5391C14.5391 22.5659 14.5391 22.5141 14.5391 22.5037C14.5538 22.443 14.5749 22.3839 14.6018 22.3274C14.6298 22.2737 14.6542 22.2183 14.675 22.1615C14.702 22.0871 14.7334 22.0143 14.7692 21.9437C14.7664 21.9127 14.7664 21.8814 14.7692 21.8504C14.7732 21.8124 14.7732 21.7742 14.7692 21.7363C14.7722 21.6949 14.7722 21.6533 14.7692 21.6119V21.56C14.781 21.5082 14.8023 21.459 14.8319 21.4148C14.8319 21.3318 14.8842 21.2904 14.9052 21.28H14.9575C14.9632 21.3039 14.9632 21.3287 14.9575 21.3526V21.4252C14.9656 21.4451 14.9656 21.4674 14.9575 21.4874C14.9575 21.4874 14.9575 21.4874 14.9575 21.5704C14.9489 21.6118 14.9311 21.6508 14.9052 21.6844V21.7674C14.8898 21.8246 14.8688 21.8802 14.8424 21.9333L14.9261 21.8711C14.9388 21.8638 14.9532 21.86 14.9679 21.86C14.9826 21.86 14.997 21.8638 15.0098 21.8711H15.0725C15.0725 21.8711 15.0725 21.8711 15.0725 21.9333C15.0701 21.9575 15.0701 21.9818 15.0725 22.0059C15.0725 22.0059 15.0202 22.0059 14.9679 22.0059L14.9052 22.0785C14.9052 22.0785 14.9052 22.1511 14.8424 22.203C14.8475 22.2269 14.8475 22.2516 14.8424 22.2756C14.8379 22.303 14.8379 22.331 14.8424 22.3585C14.8834 22.37 14.9269 22.37 14.9679 22.3585H15.083H15.198H15.2503" fill="#D4DF2A"/>
<path d="M16.4426 22.6074C16.4426 22.7111 16.4426 22.7733 16.4426 22.7733C16.4426 22.7733 16.3694 22.7733 16.3484 22.6489C16.3391 22.5801 16.3391 22.5103 16.3484 22.4415C16.3435 22.4245 16.3435 22.4066 16.3484 22.3896C16.3484 22.3896 16.3484 22.4726 16.2752 22.5348C16.2438 22.5831 16.2192 22.6355 16.202 22.6904C16.1663 22.7651 16.1077 22.8268 16.0347 22.8667C15.979 22.9229 15.911 22.9655 15.8359 22.9911H15.6999H15.6267H15.564C15.611 22.9592 15.6646 22.9379 15.7209 22.9289C15.7194 22.889 15.7087 22.8499 15.6895 22.8148L15.8255 22.6696C15.8718 22.6141 15.9137 22.5552 15.951 22.4933V22.4104C15.9489 22.3758 15.9489 22.3412 15.951 22.3067V22.2444C15.951 22.2444 16.0242 22.3585 16.0451 22.5348C16.066 22.7111 16.0451 22.763 16.0451 22.8874" fill="#D4DF2A"/>
<path d="M17.091 22.2652C17.0899 22.2825 17.0899 22.2998 17.091 22.317V22.3793C17.0873 22.3964 17.0873 22.414 17.091 22.4311H17.0387L16.7353 22.8148C16.7396 22.7943 16.7396 22.7731 16.7353 22.7526V22.68C16.7327 22.6628 16.7327 22.6453 16.7353 22.6281C16.7415 22.5973 16.7415 22.5656 16.7353 22.5348C16.732 22.5107 16.732 22.4863 16.7353 22.4622V22.3689C16.7465 22.3388 16.7465 22.3057 16.7353 22.2756C16.7237 22.2804 16.7113 22.2829 16.6987 22.2829C16.6861 22.2829 16.6737 22.2804 16.6621 22.2756C16.678 22.2466 16.7041 22.2245 16.7353 22.2133H16.8713H16.9236C16.9542 22.2368 16.9762 22.2696 16.9864 22.3067V22.3896" fill="#D4DF2A"/>
<path d="M17.9073 21.8504C17.9103 21.8819 17.9051 21.9137 17.8923 21.9427C17.8795 21.9718 17.8595 21.9971 17.8341 22.0163C17.7913 22.0509 17.7458 22.0821 17.6981 22.1096C17.7309 22.14 17.7591 22.1749 17.7818 22.2133C17.7946 22.2609 17.7946 22.311 17.7818 22.3585V22.4311L17.719 22.5348L17.6353 22.6178L17.5412 22.68H17.4366H17.2588C17.2588 22.68 17.2588 22.68 17.1855 22.6281C17.1887 22.6006 17.1887 22.5727 17.1855 22.5452H17.332C17.419 22.5354 17.5019 22.5032 17.5726 22.4519C17.5775 22.4349 17.5775 22.4169 17.5726 22.4C17.5726 22.4 17.5726 22.3378 17.468 22.317L17.3215 22.2548V22.1719C17.318 22.1513 17.318 22.1302 17.3215 22.1096L17.4784 22.0474C17.5094 22.0334 17.5363 22.0118 17.5565 21.9845C17.5766 21.9573 17.5894 21.9254 17.5935 21.8919H17.4261V21.84C17.4745 21.831 17.5242 21.831 17.5726 21.84H17.7818H17.8341V21.8919" fill="#D4DF2A"/>
<path d="M18.493 21.8815C18.4979 21.9124 18.4979 21.9439 18.493 21.9748C18.4956 21.992 18.4956 22.0095 18.493 22.0267L18.4407 22.1096C18.4433 22.1268 18.4433 22.1443 18.4407 22.1615C18.4407 22.1615 18.4407 22.1615 18.4407 22.2133C18.4392 22.234 18.4392 22.2548 18.4407 22.2756H18.3675C18.3625 22.2586 18.3625 22.2406 18.3675 22.2237C18.3706 22.1927 18.3706 22.1614 18.3675 22.1304V22.0578C18.3692 22.0232 18.3692 21.9886 18.3675 21.9541C18.3714 21.9335 18.3714 21.9124 18.3675 21.8919V21.8193C18.3675 21.8193 18.3675 21.8193 18.3675 21.757C18.3675 21.6948 18.3675 21.757 18.3675 21.6741V21.6222C18.3675 21.6222 18.3675 21.6222 18.3675 21.5704V21.5185C18.3717 21.4841 18.3717 21.4493 18.3675 21.4148H18.4198C18.426 21.4386 18.426 21.4636 18.4198 21.4874" fill="#D4DF2A"/>
<path d="M19.0158 22.6074C19.0158 22.7111 19.0158 22.7733 19.0158 22.7733C19.0158 22.7733 18.9426 22.7733 18.9217 22.6489C18.9124 22.5801 18.9124 22.5103 18.9217 22.4415C18.9168 22.4245 18.9168 22.4066 18.9217 22.3896C18.9217 22.3896 18.9217 22.4726 18.8485 22.5348C18.8171 22.5831 18.7924 22.6355 18.7753 22.6904C18.7395 22.7651 18.681 22.8268 18.6079 22.8667C18.5537 22.9197 18.4898 22.9619 18.4196 22.9911H18.2732H18.2H18.1372C18.1842 22.9592 18.2378 22.9379 18.2941 22.9289C18.3073 22.8924 18.3109 22.8531 18.3046 22.8148L18.4405 22.6696C18.4902 22.6168 18.5325 22.5575 18.5661 22.4933L18.6184 22.4104C18.613 22.376 18.613 22.341 18.6184 22.3067V22.2444C18.6184 22.2444 18.6916 22.3585 18.7125 22.5348C18.7334 22.7111 18.7125 22.763 18.7125 22.8874" fill="#D4DF2A"/>
<path d="M12.0184 20.4919C12.1021 20.4919 12.1753 20.44 12.2276 20.3259C12.2855 20.2026 12.3141 20.0678 12.3113 19.9319C12.3113 19.6726 12.2381 19.5378 12.1021 19.5378C11.9661 19.5378 11.9557 19.5896 11.8929 19.6933C11.8398 19.8215 11.8148 19.9593 11.8197 20.0978C11.8197 20.357 11.8825 20.4919 12.0184 20.4919ZM11.8929 20.6267C11.7256 20.6267 11.6523 20.5022 11.6523 20.2533C11.655 20.0454 11.7206 19.8431 11.8406 19.6726C11.9661 19.4859 12.0917 19.3926 12.2276 19.3926C12.3636 19.3926 12.4682 19.517 12.4682 19.7659C12.4656 19.9738 12.4 20.1762 12.2799 20.3467C12.2449 20.4222 12.1909 20.4876 12.1232 20.5366C12.0554 20.5856 11.9762 20.6166 11.8929 20.6267Z" fill="#D4DF2A"/>
<path d="M12.9388 19.9215C13.0922 19.5689 13.2491 19.3926 13.4095 19.3926C13.4471 19.3825 13.4868 19.3825 13.5245 19.3926L13.3781 19.5793H13.2944C13.2107 19.5793 13.1375 19.6518 13.0538 19.7867C12.9755 19.9241 12.9257 20.0757 12.9074 20.2326V20.5333L12.7505 20.5956V20.3985L12.8133 19.797V19.7348C12.8177 19.6934 12.8177 19.6517 12.8133 19.6104V19.5378C12.8133 19.5378 12.6982 19.6104 12.6354 19.7556C12.6265 19.7587 12.6169 19.7599 12.6075 19.7589C12.598 19.7579 12.5889 19.7548 12.5809 19.7498C12.5728 19.7448 12.566 19.738 12.561 19.7301C12.5559 19.7221 12.5528 19.7131 12.5518 19.7037C12.5518 19.6518 12.5518 19.5896 12.6668 19.4963C12.7819 19.403 12.8028 19.3718 12.8551 19.3718C12.9074 19.3718 12.9388 19.4237 12.9388 19.517V19.9007V19.9215Z" fill="#D4DF2A"/>
<path d="M14.1626 20.0978C13.9638 20.4504 13.7965 20.6163 13.6396 20.6163C13.4969 20.7587 13.4083 20.9455 13.3885 21.1452C13.3864 21.2402 13.42 21.3326 13.4827 21.4044C13.5103 21.4383 13.5454 21.4652 13.5854 21.4832C13.6253 21.5012 13.6689 21.5098 13.7128 21.5081C13.7842 21.5094 13.8543 21.4892 13.914 21.4504C13.9737 21.4115 14.0202 21.3558 14.0475 21.2904C14.1309 21.0251 14.1732 20.7489 14.173 20.4711C14.173 20.3052 14.173 20.1807 14.173 20.0978M14.4031 19.4444V19.5378C14.4001 19.5653 14.4001 19.5932 14.4031 19.6207V20.077C14.3946 20.2117 14.3946 20.3468 14.4031 20.4815C14.3956 20.6625 14.3746 20.8428 14.3404 21.0207C14.3094 21.1337 14.2561 21.2395 14.1835 21.3318C14.1235 21.4221 14.0431 21.4972 13.9486 21.5512C13.8542 21.6052 13.7484 21.6366 13.6396 21.643C13.5957 21.6446 13.5521 21.6361 13.5122 21.6181C13.4722 21.6001 13.437 21.5731 13.4094 21.5393C13.3445 21.4605 13.311 21.3609 13.3153 21.2593C13.3256 21.1304 13.3624 21.005 13.4236 20.8908C13.4848 20.7766 13.569 20.6761 13.6709 20.5956C13.642 20.5614 13.6205 20.5216 13.6079 20.4788C13.5953 20.4359 13.5918 20.3909 13.5977 20.3467C13.5947 20.1122 13.6681 19.8831 13.8069 19.6933C13.862 19.6103 13.9363 19.5416 14.0236 19.4928C14.111 19.4441 14.2088 19.4169 14.309 19.4133C14.371 19.3998 14.4352 19.3998 14.4973 19.4133M14.309 19.5689C14.2564 19.5254 14.1891 19.5032 14.1207 19.5067C14.0301 19.5067 13.9464 19.5793 13.8697 19.7244C13.8017 19.8924 13.7696 20.0725 13.7755 20.2533C13.7755 20.357 13.7755 20.4193 13.8488 20.4193C13.922 20.4193 13.9952 20.357 14.0789 20.243C14.2025 20.0877 14.2787 19.9005 14.2985 19.7037L14.309 19.5689Z" fill="#D4DF2A"/>
<path d="M15.2505 19.6C15.1917 19.5606 15.1227 19.539 15.0518 19.5378C14.9611 19.5378 14.8774 19.6104 14.8007 19.7556C14.7289 19.9226 14.6932 20.1028 14.6961 20.2844C14.6961 20.3881 14.6961 20.4504 14.7798 20.4504C14.8635 20.4504 14.9262 20.3881 15.0099 20.2741C15.1335 20.1188 15.2097 19.9317 15.2296 19.7348L15.2505 19.6ZM15.1877 20.0978C15.1167 20.2358 15.0289 20.3646 14.9262 20.4815C14.8606 20.5555 14.7725 20.6064 14.6752 20.6267C14.5706 20.6267 14.5288 20.5333 14.5288 20.3467C14.5218 20.1117 14.5956 19.8813 14.738 19.6933C14.793 19.6103 14.8673 19.5416 14.9547 19.4928C15.042 19.4441 15.1399 19.4169 15.24 19.4133C15.3022 19.4016 15.3661 19.4016 15.4283 19.4133V19.4756C15.4313 19.5031 15.4313 19.5309 15.4283 19.5585L15.3656 20.1081V20.1911C15.3656 20.2741 15.3656 20.3259 15.3656 20.3467C15.3656 20.3674 15.3656 20.4089 15.3656 20.4089C15.3656 20.4089 15.4911 20.3259 15.5434 20.1704C15.5259 20.2335 15.4976 20.2931 15.4597 20.3467C15.376 20.4607 15.2923 20.523 15.2191 20.523C15.1459 20.523 15.1459 20.523 15.1459 20.3985C15.1421 20.3641 15.1421 20.3293 15.1459 20.2948V19.9941L15.1877 20.0978Z" fill="#D4DF2A"/>
<path d="M15.9304 20.5541L15.7735 20.6267V20.4193L15.8258 19.8281V19.7659C15.8302 19.7246 15.8302 19.6828 15.8258 19.6415C15.8258 19.5896 15.8258 19.5585 15.8258 19.5585C15.8258 19.5585 15.7107 19.6311 15.6479 19.7763C15.6583 19.6952 15.6994 19.621 15.763 19.5689C15.8362 19.4859 15.899 19.4341 15.9408 19.4341C15.9827 19.4341 16.035 19.4859 16.035 19.5793V19.9422C16.1093 19.8073 16.2046 19.6848 16.3174 19.5793C16.3796 19.5012 16.4692 19.4493 16.5684 19.4341C16.6416 19.4341 16.673 19.4963 16.673 19.6104C16.6769 19.6621 16.6769 19.7141 16.673 19.7659L16.6102 20.2326C16.6057 20.3051 16.6057 20.3778 16.6102 20.4504V20.5126C16.6102 20.5126 16.7148 20.44 16.7881 20.2844C16.7777 20.3656 16.7366 20.4397 16.673 20.4919C16.5893 20.5852 16.5266 20.6267 16.4743 20.6267C16.422 20.6267 16.4011 20.6267 16.4011 20.4919C16.3924 20.3953 16.3924 20.2981 16.4011 20.2015V19.9007C16.4098 19.8215 16.4098 19.7415 16.4011 19.6622C16.4011 19.6 16.3801 19.5689 16.3383 19.5689C16.2546 19.5689 16.1605 19.6415 16.0663 19.7867C15.9755 19.9276 15.9182 20.0872 15.899 20.2533L15.9304 20.5541Z" fill="#D4DF2A"/>
<path d="M17.1851 19.237L17.2793 18.9778C17.351 18.9377 17.4148 18.885 17.4676 18.8222C17.4676 18.9363 17.3734 19.0607 17.1747 19.2059M17.3839 20.243C17.3657 20.3078 17.3336 20.3679 17.2897 20.4193C17.2061 20.5333 17.1328 20.5956 17.0596 20.5956C16.9864 20.5956 16.9864 20.5956 16.9864 20.4711C16.9864 20.3467 16.9864 20.3363 16.9864 20.16V19.8178V19.5896V19.5274C16.9864 19.5274 16.8714 19.6 16.8086 19.7452C16.8245 19.6635 16.8689 19.5901 16.9341 19.5378C17.0073 19.4548 17.0701 19.403 17.1224 19.403C17.1747 19.403 17.2061 19.4548 17.2061 19.5378C17.2061 19.6207 17.2061 19.5896 17.2061 19.6415V19.7037C17.2022 19.7382 17.2022 19.7729 17.2061 19.8074V20.16V20.243C17.2061 20.3259 17.2061 20.3778 17.2061 20.3985C17.2061 20.4193 17.2061 20.4607 17.2061 20.4607C17.2061 20.4607 17.3316 20.3778 17.3839 20.2222" fill="#D4DF2A"/>
<path d="M18.2731 19.4341L18.1476 19.6C18.0957 19.5907 18.0426 19.5907 17.9907 19.6C17.95 19.5991 17.9096 19.6082 17.8732 19.6262C17.8367 19.6443 17.8053 19.6709 17.7815 19.7037C17.7176 19.8212 17.6885 19.9542 17.6978 20.0874C17.6939 20.1846 17.7155 20.2811 17.7606 20.3674C17.7725 20.3967 17.7926 20.4221 17.8186 20.4404C17.8445 20.4588 17.8752 20.4694 17.907 20.4711C18.0116 20.4711 18.0953 20.3881 18.1581 20.2222C18.1626 20.2427 18.1626 20.2639 18.1581 20.2844C18.1518 20.3295 18.1366 20.3729 18.1133 20.4121C18.0899 20.4513 18.0589 20.4854 18.0221 20.5126C17.9559 20.5822 17.8669 20.6263 17.7711 20.637C17.7333 20.6372 17.6962 20.6278 17.6632 20.6096C17.6302 20.5915 17.6025 20.5652 17.5828 20.5333C17.5376 20.4507 17.5159 20.3576 17.52 20.2637C17.5174 20.0533 17.5795 19.8472 17.6978 19.6726C17.7408 19.5978 17.8012 19.5343 17.874 19.4874C17.9468 19.4405 18.0298 19.4115 18.1162 19.403C18.1643 19.3911 18.2146 19.3911 18.2627 19.403" fill="#D4DF2A"/>
<path d="M4.79051 14.7156V14.5185L3.47258 14.4667V14.6948H4.34074C4.48718 14.6948 4.59177 14.6948 4.59177 14.8193C4.59177 14.9437 4.48718 14.923 4.37212 14.923H3.46212V15.1511H4.33028C4.48718 15.1511 4.58132 15.1511 4.58132 15.2756C4.58132 15.4 4.46626 15.3793 4.3512 15.3793H3.45166V15.5556H4.49764C4.53168 15.5615 4.56662 15.5602 4.60008 15.5515C4.63354 15.5429 4.66473 15.5272 4.69154 15.5056C4.71834 15.4839 4.74012 15.4568 4.75539 15.4261C4.77067 15.3953 4.77908 15.3617 4.78005 15.3274C4.78713 15.2756 4.77518 15.223 4.74637 15.1792C4.71756 15.1354 4.67383 15.1034 4.62315 15.0889C4.67401 15.0836 4.72088 15.0592 4.75399 15.0205C4.78711 14.9819 4.80394 14.9321 4.80097 14.8815C4.80292 14.8304 4.78747 14.7801 4.75712 14.7387C4.72677 14.6973 4.68327 14.6673 4.63361 14.6533H4.76959L4.79051 14.7156Z" fill="#492A00"/>
</g>
<path d="M3.45166 16.0222V16.2504L4.76959 16.1674V15.9289L3.45166 16.0222ZM4.93695 15.9185V16.1467H5.22982V15.9185H4.93695Z" fill="#492A00"/>
<mask id="mask6_380_1121" style="mask-type:luminance" maskUnits="userSpaceOnUse" x="3" y="1" width="24" height="26">
<path d="M26.8919 1.44148H3.43066V26.5481H26.8919V1.44148Z" fill="white"/>
</mask>
<g mask="url(#mask6_380_1121)">
<path d="M4.84296 16.6548V16.4267L3.49365 16.5926V16.8207L4.35135 16.717C4.48733 16.717 4.60239 16.717 4.60239 16.8C4.60239 16.883 4.52917 16.9141 4.40365 16.9244L3.52503 17.0281V17.2563L4.57101 17.1319C4.80112 17.1319 4.89526 16.997 4.87434 16.8726C4.86574 16.8245 4.84179 16.7804 4.80602 16.7468C4.77024 16.7132 4.72453 16.6918 4.67561 16.6859L4.84296 16.6548Z" fill="#492A00"/>
</g>
<path d="M3.65039 17.6296V17.8578L4.9997 17.6296V17.4015L3.65039 17.6296ZM5.11476 17.36V17.5881L5.38671 17.5363V17.3082L5.11476 17.36Z" fill="#492A00"/>
<mask id="mask7_380_1121" style="mask-type:luminance" maskUnits="userSpaceOnUse" x="3" y="1" width="24" height="26">
<path d="M26.8919 1.44148H3.43066V26.5481H26.8919V1.44148Z" fill="white"/>
</mask>
<g mask="url(#mask7_380_1121)">
<path d="M4.18352 18.0133C3.78605 18.0859 3.78605 18.3244 3.81743 18.4385C3.90111 18.7496 4.15214 18.7289 4.36134 18.6563C4.4555 18.6114 4.52989 18.534 4.57054 18.4385L4.68559 18.2207C4.69458 18.1914 4.71074 18.1646 4.73263 18.1429C4.75452 18.1212 4.78148 18.1052 4.81111 18.0963C4.83882 18.0895 4.86808 18.0932 4.89321 18.1066C4.91834 18.12 4.93754 18.1422 4.94709 18.1689C4.94709 18.2415 4.94709 18.283 4.76927 18.3141L4.83203 18.5422C5.11444 18.48 5.2295 18.3348 5.1772 18.1274C5.17005 18.0826 5.1534 18.0398 5.12836 18.0018C5.10332 17.9638 5.07046 17.9315 5.03192 17.907C4.99339 17.8825 4.95006 17.8664 4.90479 17.8597C4.85952 17.853 4.81334 17.8559 4.76927 17.8681C4.69187 17.8871 4.61975 17.9231 4.55821 17.9733C4.49666 18.0236 4.44726 18.0868 4.41364 18.1585L4.34042 18.3037C4.34042 18.3556 4.34042 18.4282 4.2149 18.4489C4.2008 18.4577 4.18493 18.4634 4.1684 18.4656C4.15186 18.4677 4.13505 18.4663 4.11913 18.4613C4.10321 18.4564 4.08857 18.4481 4.07621 18.437C4.06384 18.4259 4.05407 18.4123 4.04755 18.397C4.04755 18.397 4.04755 18.283 4.24628 18.2415L4.18352 18.0133Z" fill="#492A00"/>
<path d="M4.39269 19.2889C4.39269 19.2889 4.39269 19.2163 4.39269 19.1852L5.22947 18.9363V19.0296L5.43866 18.957V18.8741L5.77338 18.76L5.70016 18.5422L5.35498 18.6459V18.563L5.14579 18.6356V18.7185L4.28809 18.9985C4.05797 19.0711 4.14165 19.2474 4.21487 19.3615L4.39269 19.2889Z" fill="#492A00"/>
<path d="M5.59576 19.3304L5.50163 19.123L4.27783 19.5896L4.36151 19.8074L5.07277 19.5378C5.26105 19.4652 5.33427 19.5378 5.37611 19.6726L5.71082 19.5378C5.6991 19.5123 5.68173 19.4897 5.66 19.4717C5.63827 19.4538 5.61274 19.4409 5.5853 19.4341C5.51614 19.4216 5.44527 19.4216 5.37611 19.4341L5.59576 19.3304Z" fill="#492A00"/>
<path d="M5.74225 19.7037L4.69628 20.4919L4.54984 20.5852C4.47662 20.5852 4.4557 20.523 4.43478 20.4815L4.22559 20.5956C4.33018 20.8963 4.49754 20.8237 4.79041 20.7407L6.09788 20.357L5.98283 20.1496L5.30294 20.3778C5.19834 20.3778 5.09375 20.4504 4.98915 20.5022L5.29248 20.3259L5.85731 19.9215L5.74225 19.7037Z" fill="#492A00"/>
<path d="M5.55387 21.8711C5.73169 22.12 5.91997 22.0578 6.29652 21.8089C6.67307 21.56 6.90318 21.4044 6.69399 21.1244C6.48479 20.8444 6.24422 20.9896 5.87813 21.2385C5.51204 21.4874 5.3656 21.6326 5.55387 21.8711ZM6.2756 21.2904C6.3802 21.2178 6.48479 21.1452 6.55801 21.2904C6.63123 21.4356 6.55801 21.4563 6.42203 21.5185L6.0664 21.757C5.93043 21.8504 5.86767 21.8815 5.80491 21.757C5.74215 21.6326 5.80491 21.6222 5.91997 21.5289L6.2756 21.2904Z" fill="#492A00"/>
<path d="M6.88211 21.7778L6.02441 22.4311L6.18131 22.6074L7.03901 21.9644L7.10177 22.037L7.32143 21.8711L7.20637 21.7778L7.32143 21.7052H7.39464L7.58292 21.56L7.52016 21.4978C7.41556 21.363 7.31097 21.3526 7.12269 21.4978L7.01809 21.5807V21.5081L6.84028 21.643L6.88211 21.7778Z" fill="#492A00"/>
<path d="M7.54088 23.1778C7.4572 23.2607 7.32122 23.437 7.20616 23.3437C7.09111 23.2504 7.20616 23.2193 7.20616 23.157C7.24328 23.1128 7.29529 23.0833 7.3526 23.0741C7.43969 23.0689 7.52701 23.0689 7.6141 23.0741L7.54088 23.1778ZM7.32122 23.7274C7.35011 23.6782 7.38527 23.6329 7.42582 23.5926L7.95927 23.0533C8.08479 22.9393 8.22076 22.7733 7.95927 22.5556C7.69777 22.3378 7.5618 22.4415 7.39444 22.6178L7.5618 22.763C7.64547 22.68 7.70823 22.6385 7.79191 22.7111C7.87559 22.7837 7.85467 22.7837 7.79191 22.8356C7.76789 22.8749 7.73004 22.9041 7.68564 22.9175C7.64124 22.9309 7.59341 22.9276 7.55134 22.9082C7.34214 22.8563 7.17479 22.7941 6.96559 23.0015C6.75639 23.2089 6.75639 23.3333 6.90283 23.4578C6.9405 23.4679 6.98022 23.4679 7.01789 23.4578C7.06914 23.4725 7.12354 23.4725 7.17479 23.4578H7.32122C7.28776 23.4875 7.25948 23.5226 7.23754 23.5615L7.32122 23.7274Z" fill="#492A00"/>
<path d="M7.59335 24.1007C7.56602 24.1294 7.54566 24.1639 7.53381 24.2016C7.52197 24.2393 7.51896 24.2792 7.52501 24.3182C7.53107 24.3572 7.54602 24.3943 7.56874 24.4267C7.59146 24.4591 7.62134 24.486 7.65611 24.5052C7.92807 24.6919 8.10588 24.5674 8.26278 24.36L9.0368 23.3956L8.84853 23.2607L8.76485 23.3644C8.77753 23.3436 8.78571 23.3203 8.78888 23.2962C8.79205 23.272 8.79013 23.2475 8.78325 23.2241C8.77637 23.2007 8.76468 23.179 8.74891 23.1603C8.73314 23.1416 8.71364 23.1264 8.69163 23.1156C8.56611 23.0222 8.43014 23.0533 8.21048 23.323L7.91761 23.6859C7.79209 23.8415 7.68749 24.0385 7.85485 24.163C7.89591 24.1925 7.94534 24.2084 7.99606 24.2084C8.04678 24.2084 8.0962 24.1925 8.13726 24.163L8.04312 24.277C7.98037 24.3496 7.90715 24.4222 7.82347 24.36C7.73979 24.2978 7.82347 24.36 7.82347 24.2978C7.82347 24.2356 7.82347 24.2978 7.82347 24.2459L7.59335 24.1007ZM8.54519 23.6341L8.36738 23.9244C8.27324 24.0385 8.18956 24.08 8.1268 24.0385C8.06404 23.997 8.1268 23.9037 8.1268 23.8L8.36738 23.4785C8.45106 23.3748 8.52427 23.2815 8.61841 23.3437C8.71255 23.4059 8.61841 23.5511 8.52427 23.6341" fill="#492A00"/>
<path d="M9.41342 23.6652L9.21468 23.5511L8.50342 24.5881L8.70215 24.7022L9.12054 24.1007C9.13592 24.0734 9.15736 24.0498 9.18325 24.0318C9.20913 24.0138 9.23879 24.0019 9.27 23.9969C9.3012 23.9919 9.33314 23.994 9.36342 24.003C9.39369 24.012 9.42151 24.0277 9.4448 24.0489L9.64353 23.7689C9.58955 23.749 9.53016 23.749 9.47618 23.7689C9.40646 23.7892 9.34216 23.8247 9.2879 23.8726L9.41342 23.6652Z" fill="#492A00"/>
</g>
<path d="M9.1416 24.9615L9.3508 25.0756L10.0307 24.0385L9.82149 23.8519L9.1416 24.9615ZM9.90517 23.7689L10.1144 23.883L10.2608 23.6548L10.0516 23.5407L9.90517 23.7689Z" fill="#492A00"/>
<mask id="mask8_380_1121" style="mask-type:luminance" maskUnits="userSpaceOnUse" x="3" y="1" width="24" height="26">
<path d="M26.8919 1.44148H3.43066V26.5481H26.8919V1.44148Z" fill="white"/>
</mask>
<g mask="url(#mask8_380_1121)">
<path d="M10.6791 24.7956V24.7126C10.7085 24.6758 10.7289 24.6328 10.7386 24.5868C10.7482 24.5409 10.7469 24.4933 10.7347 24.448C10.7225 24.4026 10.6998 24.3607 10.6683 24.3256C10.6369 24.2905 10.5976 24.2632 10.5536 24.2459C10.3862 24.163 10.2084 24.1837 10.0515 24.5052L9.90505 24.8889C9.73769 25.1793 9.78999 25.3556 9.97827 25.4385C10.1665 25.5215 10.3548 25.4385 10.4699 25.2104L10.5222 25.1067L10.3025 25.0133V25.117C10.2502 25.2 10.2084 25.2726 10.1456 25.2415C10.0829 25.2104 10.0829 25.1585 10.1456 24.9407L10.2816 24.6815C10.3548 24.5363 10.4176 24.4222 10.5013 24.4637C10.5849 24.5052 10.5536 24.5259 10.5013 24.5985L10.4385 24.7126L10.6791 24.7956Z" fill="#492A00"/>
<path d="M11.0557 25.8222L11.2754 25.9052L11.7461 24.7437L11.5055 24.6607L11.1917 25.4178C11.1917 25.5007 11.0976 25.6459 10.993 25.6044C10.9875 25.595 10.9846 25.5843 10.9846 25.5733C10.9846 25.5624 10.9875 25.5517 10.993 25.5422C10.9782 25.4914 10.9782 25.4375 10.993 25.3867L11.3277 24.5881L11.0976 24.5052L10.7315 25.397C10.6478 25.5941 10.6478 25.7081 10.8256 25.7807C10.8826 25.7983 10.9441 25.7942 10.9983 25.7693C11.0524 25.7444 11.0952 25.7004 11.1185 25.6459L11.0557 25.8222Z" fill="#492A00"/>
</g>
<path d="M11.6523 26.0193L11.8825 26.0919L12.4054 24.5052L12.1753 24.443L11.6523 26.0193Z" fill="#492A00"/>
<mask id="mask9_380_1121" style="mask-type:luminance" maskUnits="userSpaceOnUse" x="3" y="1" width="24" height="26">
<path d="M26.8919 1.44148H3.43066V26.5481H26.8919V1.44148Z" fill="white"/>
</mask>
<g mask="url(#mask9_380_1121)">
<path d="M12.6354 26.04C12.6354 26.04 12.5308 26.04 12.5413 25.9778L12.74 25.2207H12.8446L12.8969 25.0133H12.7923L12.8864 24.6815L12.6459 24.6193L12.5622 24.9511H12.4576L12.4053 25.1585H12.4994L12.2902 25.9778C12.2275 26.2059 12.4262 26.237 12.5726 26.2474L12.6354 26.04Z" fill="#492A00"/>
<path d="M13.3574 26.3822H13.5875L13.7967 25.1482H13.5561L13.4097 25.9363C13.4097 26.04 13.4097 26.1852 13.2632 26.1748C13.2498 26.1708 13.2373 26.1641 13.2265 26.1552C13.2157 26.1463 13.2069 26.1353 13.2005 26.123C13.1848 26.0688 13.1848 26.0113 13.2005 25.957L13.3364 25.117H13.0959L12.939 26.0607C12.939 26.2681 12.939 26.3822 13.1168 26.4133C13.2946 26.4444 13.3155 26.4133 13.3783 26.237L13.3574 26.3822Z" fill="#492A00"/>
<path d="M14.309 25.2415H14.0685L13.9639 26.4859H14.2044L14.2672 25.76C14.2672 25.5837 14.3927 25.5526 14.5287 25.5733V25.2415C14.5003 25.2377 14.4714 25.2404 14.4442 25.2494C14.417 25.2584 14.3922 25.2734 14.3718 25.2933C14.3215 25.3395 14.2822 25.3961 14.2567 25.4593L14.309 25.2415Z" fill="#492A00"/>
<path d="M14.9574 25.7393V25.6874C14.9574 25.5733 14.9574 25.4593 15.0829 25.4696C15.2085 25.48 15.2085 25.4696 15.2085 25.6356V25.7393H14.9574ZM14.7064 26.0296C14.7064 26.3926 14.811 26.5481 15.0934 26.5585C15.3758 26.5689 15.4386 26.3822 15.4386 26.1022H15.198C15.198 26.2578 15.198 26.3304 15.0725 26.3304C14.947 26.3304 14.947 26.3304 14.947 26.1437V25.9259H15.4386V25.76C15.4386 25.4178 15.4386 25.2104 15.0725 25.2C14.7064 25.1896 14.6959 25.3659 14.7064 25.6563V26.0296Z" fill="#492A00"/>
<path d="M17.0076 26.0815C16.991 26.1115 16.9686 26.1379 16.9417 26.1592C16.9147 26.1806 16.8838 26.1965 16.8507 26.2059C16.7461 26.2059 16.6624 26.0919 16.6206 25.9778C16.6057 25.9232 16.6056 25.8657 16.6203 25.8111C16.635 25.7565 16.6639 25.7067 16.7042 25.6667L17.0076 26.0815ZM16.8611 25.4593C16.9179 25.4032 16.96 25.3341 16.9837 25.2582C17.0074 25.1823 17.012 25.1018 16.9971 25.0237C16.9983 24.9777 16.9891 24.9321 16.9704 24.89C16.9516 24.848 16.9236 24.8106 16.8885 24.7805C16.8535 24.7505 16.8121 24.7285 16.7674 24.7162C16.7227 24.7039 16.6758 24.7016 16.6301 24.7094C16.5844 24.7172 16.541 24.735 16.5031 24.7614C16.4651 24.7878 16.4335 24.8223 16.4106 24.8622C16.3877 24.9022 16.374 24.9467 16.3705 24.9926C16.367 25.0384 16.3738 25.0845 16.3905 25.1274C16.4158 25.2507 16.4736 25.3652 16.5578 25.4593C16.4855 25.5319 16.4316 25.6206 16.4007 25.718C16.3697 25.8153 16.3627 25.9186 16.38 26.0193C16.4323 26.2993 16.6206 26.4859 16.8402 26.4548C16.9008 26.4503 16.9593 26.4308 17.0105 26.3982C17.0616 26.3656 17.1037 26.3209 17.1331 26.2682L17.2063 26.3615H17.4783L17.2586 26.0504C17.3005 25.866 17.3005 25.6747 17.2586 25.4904H17.0494C17.0653 25.59 17.0653 25.6915 17.0494 25.7911L16.8611 25.4593ZM16.7356 25.2726C16.6905 25.209 16.6552 25.1391 16.631 25.0652C16.631 24.9926 16.631 24.9511 16.6938 24.9511C16.7565 24.9511 16.7984 24.9511 16.8088 25.0652C16.8163 25.1031 16.8134 25.1423 16.8006 25.1787C16.7877 25.2152 16.7653 25.2476 16.7356 25.2726Z" fill="#492A00"/>
<path d="M18.2314 24.8889L18.0117 24.9511L18.3987 26.1437L18.6288 26.0815L18.4092 25.3867C18.3464 25.2104 18.4092 25.1481 18.5765 25.1274L18.4719 24.8059C18.443 24.8089 18.4156 24.8203 18.3932 24.8388C18.3709 24.8573 18.3546 24.8819 18.3464 24.9096C18.3249 24.9736 18.3249 25.0427 18.3464 25.1067L18.2314 24.8889Z" fill="#492A00"/>
<path d="M19.5911 25.7081L19.8003 25.6356L19.3087 24.4741L19.0785 24.5674L19.4028 25.3141C19.4028 25.4074 19.4969 25.5422 19.4028 25.5837C19.3901 25.591 19.3756 25.5948 19.361 25.5948C19.3463 25.5948 19.3318 25.591 19.3191 25.5837C19.2813 25.5416 19.2528 25.4922 19.2354 25.4385L18.8903 24.6504L18.6602 24.7333L19.0472 25.6148C19.1308 25.8119 19.2145 25.9052 19.3923 25.8326C19.5702 25.76 19.5388 25.6978 19.5179 25.5526L19.5911 25.7081Z" fill="#492A00"/>
<path d="M19.7688 24.2667L19.5596 24.3704L20.1453 25.48L20.365 25.3867L20.0303 24.7333C19.9466 24.5778 20.0303 24.4948 20.1453 24.4533L19.9884 24.1422C19.9387 24.1688 19.9013 24.2134 19.8838 24.2667C19.8623 24.3306 19.8623 24.3998 19.8838 24.4637L19.7688 24.2667Z" fill="#492A00"/>
<path d="M20.9193 24.4844C20.9821 24.5882 21.1181 24.7644 21.003 24.837C20.888 24.9096 20.867 24.837 20.8147 24.7541C20.7793 24.71 20.7608 24.6549 20.7624 24.5985C20.7624 24.5156 20.8252 24.443 20.8461 24.3704L20.9193 24.4844ZM21.4319 24.8059C21.3912 24.7619 21.3561 24.7132 21.3273 24.6607L20.9193 24.0385C20.9019 23.9911 20.8735 23.9483 20.8363 23.9138C20.7992 23.8793 20.7543 23.8539 20.7054 23.8398C20.6565 23.8257 20.605 23.8231 20.5549 23.8324C20.5048 23.8417 20.4577 23.8626 20.4173 23.8933C20.1558 24.0385 20.1872 24.2148 20.3231 24.4119L20.5219 24.2978C20.4591 24.2044 20.4382 24.1422 20.5219 24.08C20.6056 24.0178 20.616 24.08 20.6579 24.08C20.6859 24.1135 20.7013 24.1557 20.7013 24.1993C20.7013 24.2428 20.6859 24.285 20.6579 24.3185C20.5428 24.4948 20.4277 24.6296 20.5846 24.8785C20.7415 25.1274 20.867 25.1482 21.0344 25.0548C21.0695 25.0337 21.0956 25.0005 21.1076 24.9615C21.1184 24.9137 21.1184 24.8641 21.1076 24.8163C21.1333 24.8555 21.1651 24.8905 21.2018 24.92L21.4319 24.8059Z" fill="#492A00"/>
</g>
<path d="M20.7729 23.2504L21.7771 24.6089L21.9758 24.4741L20.9717 23.1156L20.7729 23.2504Z" fill="#492A00"/>
<mask id="mask10_380_1121" style="mask-type:luminance" maskUnits="userSpaceOnUse" x="3" y="1" width="24" height="26">
<path d="M26.8919 1.44148H3.43066V26.5481H26.8919V1.44148Z" fill="white"/>
</mask>
<g mask="url(#mask10_380_1121)">
<path d="M23.0742 23.6341L23.252 23.4889L22.0701 22.2548L21.8923 22.4104L22.1956 22.7215C22.2208 22.7517 22.2488 22.7795 22.2793 22.8044C22.2354 22.7665 22.1785 22.7464 22.1203 22.7483C22.0621 22.7503 22.0067 22.774 21.9655 22.8148C21.8504 22.9185 21.8504 23.043 22.091 23.3022L22.4048 23.6341C22.5512 23.7793 22.7395 23.9141 22.8964 23.7896C22.9261 23.7528 22.9423 23.7071 22.9423 23.66C22.9423 23.6129 22.9261 23.5672 22.8964 23.5304L23.0742 23.6341ZM22.7813 23.3333C22.8859 23.4474 22.9069 23.52 22.8546 23.5719C22.8023 23.6237 22.7081 23.5719 22.6244 23.4785L22.3211 23.1674C22.2374 23.0741 22.1537 23.0015 22.2374 22.9289C22.3211 22.8563 22.4466 22.9807 22.5198 23.0637L22.7813 23.3333Z" fill="#492A00"/>
<path d="M23.0845 22.5348C23.0008 22.4622 22.9171 22.3896 23.0008 22.3067C23.0845 22.2237 23.1158 22.2444 23.21 22.3067L23.2937 22.3793L23.0845 22.5348ZM23.1472 22.8978C23.4296 23.1467 23.6284 23.1778 23.8271 22.9911C24.0258 22.8044 23.9212 22.6281 23.7016 22.4415L23.5342 22.6074C23.6597 22.7111 23.7016 22.7837 23.6388 22.8459C23.5761 22.9081 23.5238 22.9081 23.3983 22.8459L23.2623 22.7215L23.5865 22.3896L23.461 22.2756C23.1995 22.037 23.0112 21.923 22.7811 22.1615C22.551 22.4 22.6556 22.5244 22.8962 22.7111L23.1472 22.8978Z" fill="#492A00"/>
<path d="M24.392 22.3067L24.5699 22.0785L23.6599 21.1452L23.5134 21.3319L24.0364 21.8296C24.1201 21.9126 24.2874 22.037 24.3293 22.0785L23.9946 21.8815L23.3461 21.5393L23.1787 21.7363L24.392 22.3067Z" fill="#492A00"/>
<path d="M24.3085 21.0726C24.2039 21.0104 24.0993 20.9585 24.1621 20.8652C24.2249 20.7719 24.2667 20.7822 24.3817 20.8652L24.4759 20.9274L24.3085 21.0726ZM24.4445 21.4148C24.7688 21.6222 24.978 21.6119 25.1244 21.4148C25.2708 21.2178 25.1244 21.0415 24.8943 20.9067L24.7583 21.1037C24.9047 21.1763 24.957 21.2385 24.9152 21.3111C24.8734 21.3837 24.8211 21.3941 24.6746 21.3111L24.5073 21.2178L24.7688 20.8237L24.6119 20.7407C24.3085 20.5541 24.0993 20.4815 23.9215 20.7407C23.7437 21 23.9215 21.1244 24.1516 21.2696L24.4445 21.4148Z" fill="#492A00"/>
</g>
<path d="M23.9004 20.0148L25.4589 20.7926L25.574 20.5852L24.0154 19.8074L23.9004 20.0148Z" fill="#492A00"/>
<mask id="mask11_380_1121" style="mask-type:luminance" maskUnits="userSpaceOnUse" x="3" y="1" width="24" height="26">
<path d="M26.8919 1.44148H3.43066V26.5481H26.8919V1.44148Z" fill="white"/>
</mask>
<g mask="url(#mask11_380_1121)">
<path d="M25.9299 19.9733C26.0659 19.7037 25.9299 19.5793 25.4801 19.4133C25.0304 19.2474 24.8002 19.1333 24.6538 19.4133C24.5074 19.6933 24.7689 19.8385 25.1873 20.0148C25.6056 20.1911 25.8044 20.2222 25.9299 19.9422M25.0408 19.7037C24.9362 19.7037 24.8107 19.6104 24.8735 19.4963C24.9362 19.3822 25.0304 19.4963 25.1454 19.4963L25.5533 19.6726C25.6998 19.7244 25.7625 19.7659 25.7102 19.8593C25.6579 19.9526 25.5952 19.9422 25.4487 19.8593L25.0408 19.7037Z" fill="#492A00"/>
<path d="M25.0095 18.6667L24.9258 18.8844L26.6098 19.3926L26.683 19.1852L26.1496 19.04C26.1991 19.0395 26.2474 19.0244 26.2884 18.9968C26.3293 18.9691 26.3611 18.93 26.3797 18.8844C26.4424 18.6978 26.2333 18.5941 26.0345 18.5319L25.5847 18.3867C25.2291 18.2933 25.1036 18.3867 25.0513 18.48C25.0333 18.5242 25.0331 18.5735 25.0506 18.6178C25.0681 18.6621 25.102 18.6982 25.1454 18.7185L25.0095 18.6667ZM25.4697 18.8015C25.3756 18.8015 25.1977 18.7185 25.2291 18.6148C25.2605 18.5111 25.386 18.6148 25.5115 18.6148L25.9299 18.7393C26.045 18.7393 26.1391 18.8326 26.1077 18.9052C26.0764 18.9778 25.9927 18.9881 25.8567 18.9052L25.4697 18.8015Z" fill="#492A00"/>
<path d="M25.3024 17.7644L25.2501 17.9822L26.5575 18.2207V17.9926L25.6998 17.8474C25.5639 17.8474 25.4593 17.7956 25.4802 17.6815C25.5011 17.5674 25.5952 17.5985 25.7103 17.6089L26.6098 17.7748V17.5467L25.7521 17.3911C25.6057 17.3911 25.5116 17.3393 25.5325 17.2356C25.5534 17.1319 25.658 17.1526 25.7731 17.1733L26.6517 17.3289L26.704 17.1007L25.658 16.9141C25.6237 16.9031 25.5874 16.8993 25.5515 16.9028C25.5157 16.9064 25.4809 16.9173 25.4495 16.9348C25.418 16.9524 25.3906 16.9762 25.3689 17.0047C25.3472 17.0333 25.3316 17.066 25.3233 17.1007C25.3129 17.1516 25.3196 17.2044 25.3422 17.2512C25.3649 17.298 25.4023 17.3362 25.4488 17.36C25.3978 17.3571 25.3475 17.3737 25.3086 17.4066C25.2696 17.4394 25.2449 17.4859 25.2396 17.5363C25.229 17.5845 25.2346 17.6349 25.2553 17.6798C25.276 17.7246 25.3109 17.7616 25.3547 17.7852L25.3024 17.7644Z" fill="#492A00"/>
<path d="M26.0134 16.3956H25.9611C25.846 16.3956 25.731 16.3956 25.7414 16.2711C25.7519 16.1467 25.7414 16.157 25.9192 16.157H26.0343L26.0134 16.3956ZM26.3167 16.6548C26.7037 16.6548 26.8815 16.5822 26.892 16.323C26.9024 16.0637 26.7351 15.9807 26.4318 15.9704V16.1985C26.5991 16.1985 26.6723 16.1985 26.6723 16.323C26.6723 16.4474 26.6723 16.437 26.4527 16.4267H26.2539V15.9704H26.1493C25.7937 15.9704 25.5636 15.9704 25.5427 16.2815C25.5218 16.5926 25.6996 16.6341 26.0134 16.6444L26.3167 16.6548Z" fill="#492A00"/>
<path d="M25.5532 15.4207V15.6489H26.8711V15.4207H26.0134C25.8775 15.4207 25.7624 15.4207 25.7729 15.3067C25.7833 15.1926 25.8565 15.2133 25.9821 15.203H26.8711V14.9748H25.8252C25.5846 14.9748 25.48 15.0889 25.4905 15.2133C25.4914 15.2614 25.5083 15.3077 25.5385 15.3453C25.5688 15.3828 25.6108 15.4093 25.6578 15.4207H25.5218H25.5532Z" fill="#492A00"/>
<path d="M26.5888 14.3111C26.5888 14.3111 26.5888 14.3941 26.5888 14.4044L25.7311 14.5185V14.4252H25.5114V14.5185H25.1035V14.7467H25.4696V14.84H25.6997V14.7467L26.5888 14.6741C26.8398 14.6741 26.8085 14.4667 26.7666 14.3319L26.5888 14.3111Z" fill="#492A00"/>
<path d="M4.67553 7.09333C4.57093 7.02074 4.34082 6.84444 4.13162 7.09333C4.09524 7.12292 4.0669 7.16105 4.04916 7.20425C4.03142 7.24746 4.02485 7.29437 4.03005 7.34074C4.03524 7.3871 4.05204 7.43144 4.07891 7.46973C4.10578 7.50802 4.14188 7.53905 4.18392 7.56C4.24357 7.59919 4.31162 7.62404 4.38266 7.63259C4.53552 7.61754 4.68631 7.58625 4.83243 7.53926C4.86163 7.52467 4.89387 7.51707 4.92656 7.51707C4.95926 7.51707 4.9915 7.52467 5.0207 7.53926C5.03581 7.54978 5.04814 7.56376 5.05665 7.58C5.06516 7.59625 5.06961 7.61429 5.06961 7.63259C5.06961 7.6509 5.06516 7.66894 5.05665 7.68518C5.04814 7.70143 5.03581 7.7154 5.0207 7.72593C4.95794 7.80889 4.86381 7.78815 4.75921 7.72593H4.69645L4.57093 7.89185H4.64415C4.67653 7.93093 4.71724 7.96241 4.76336 7.98403C4.80948 8.00564 4.85986 8.01685 4.91087 8.01685C4.96189 8.01685 5.01227 8.00564 5.05839 7.98403C5.1045 7.96241 5.14522 7.93093 5.1776 7.89185C5.21047 7.85685 5.23476 7.8148 5.24859 7.76898C5.26241 7.72315 5.26539 7.67479 5.25729 7.62764C5.2492 7.58049 5.23025 7.53582 5.20191 7.49711C5.17358 7.4584 5.13662 7.42669 5.09392 7.40444C5.01615 7.34628 4.91868 7.32026 4.82197 7.33185L4.48725 7.40444C4.40358 7.40444 4.34082 7.40444 4.25714 7.40444C4.24941 7.39292 4.24409 7.37998 4.24148 7.36639C4.23888 7.3528 4.23904 7.33882 4.24196 7.32529C4.24489 7.31176 4.25051 7.29895 4.25851 7.28761C4.2665 7.27627 4.27671 7.26663 4.28852 7.25926C4.36174 7.16593 4.45587 7.25926 4.55001 7.25926L4.67553 7.09333Z" fill="#492A00"/>
</g>
<path d="M4.5708 6.6163L4.71724 6.74074L4.88459 6.56444L5.71092 7.25926L5.86781 7.11407L5.04149 6.40889L5.20885 6.23259L5.06241 6.10815L4.5708 6.6163Z" fill="#492A00"/>
<mask id="mask12_380_1121" style="mask-type:luminance" maskUnits="userSpaceOnUse" x="3" y="1" width="24" height="26">
<path d="M26.8919 1.44148H3.43066V26.5481H26.8919V1.44148Z" fill="white"/>
</mask>
<g mask="url(#mask12_380_1121)">
<path d="M5.66903 6.06667C5.63644 6.01719 5.59779 5.97191 5.55397 5.93185V5.86963H5.61673L5.76317 5.97333L6.07696 6.17037L5.94099 6.29481L5.66903 6.06667ZM6.20248 6.75111L6.00374 6.50222L6.18156 6.32593L6.46397 6.50222L6.63133 6.3363L5.50168 5.67259L5.29248 5.86963L6.03512 6.90667L6.20248 6.75111Z" fill="#492A00"/>
</g>
<path d="M5.79492 5.41333L5.92044 5.54815L6.10872 5.38222L6.85136 6.16L7.01872 6.02518L6.27607 5.24741L6.46435 5.09185L6.32837 4.95704L5.79492 5.41333Z" fill="#492A00"/>
<path d="M6.6001 4.76L7.38458 5.74519L7.87619 5.39259L7.76113 5.24741L7.43688 5.47556L7.1963 5.17481L7.48918 4.96741L7.37412 4.82222L7.08125 5.02963L6.88251 4.78074L7.20676 4.55259L7.09171 4.41778L6.6001 4.76Z" fill="#492A00"/>
<mask id="mask13_380_1121" style="mask-type:luminance" maskUnits="userSpaceOnUse" x="3" y="1" width="24" height="26">
<path d="M26.8919 1.44148H3.43066V26.5481H26.8919V1.44148Z" fill="white"/>
</mask>
<g mask="url(#mask13_380_1121)">
<path d="M8.22143 4.25185C8.16913 4.16889 8.04362 3.99259 8.22143 3.90963C8.39925 3.82667 8.47247 4.0237 8.52477 4.10667L8.70258 4.3763C8.76534 4.46963 8.85948 4.61481 8.70258 4.69778C8.54569 4.78074 8.46201 4.62518 8.36787 4.54222L8.22143 4.25185ZM8.15867 4.55259C8.33649 4.83259 8.48293 5.02963 8.79672 4.85333C9.11051 4.67704 8.99546 4.45926 8.79672 4.17926L8.70258 4.03407C8.52477 3.76444 8.37833 3.57778 8.075 3.75407C7.77166 3.93037 7.88672 4.12741 8.075 4.40741L8.15867 4.55259Z" fill="#492A00"/>
</g>
<path d="M8.79688 3.41185L9.37216 4.51111L9.5709 4.42815L9.3094 3.93037L9.65458 3.76444L9.5709 3.60889L9.22573 3.76444L9.08975 3.48444L9.44538 3.31852L9.3617 3.15259L8.79688 3.41185Z" fill="#492A00"/>
<path d="M10.0938 2.85185L10.5644 4.00296L10.7736 3.93037L10.3029 2.77926L10.0938 2.85185Z" fill="#492A00"/>
<mask id="mask14_380_1121" style="mask-type:luminance" maskUnits="userSpaceOnUse" x="3" y="1" width="24" height="26">
<path d="M26.8919 1.44148H3.43066V26.5481H26.8919V1.44148Z" fill="white"/>
</mask>
<g mask="url(#mask14_380_1121)">
<path d="M11.3904 2.83111C11.3904 2.71704 11.2649 2.44741 10.9301 2.54074C10.8846 2.5475 10.8413 2.56481 10.8038 2.59125C10.7663 2.61769 10.7356 2.65253 10.7142 2.69293C10.6928 2.73333 10.6813 2.77817 10.6807 2.8238C10.68 2.86943 10.6902 2.91457 10.7105 2.95555C10.733 3.01727 10.7729 3.07127 10.8255 3.11111C10.9581 3.18477 11.0984 3.24388 11.2439 3.28741C11.2764 3.29259 11.3067 3.30717 11.3308 3.3293C11.355 3.35143 11.3721 3.38015 11.3799 3.41185C11.3799 3.50518 11.3799 3.55704 11.2962 3.58815C11.2126 3.61926 11.1393 3.58815 11.0975 3.43259V3.36L10.8883 3.42222V3.51555C10.8969 3.56479 10.9166 3.61146 10.946 3.65208C10.9753 3.69271 11.0136 3.72623 11.0578 3.75016C11.1021 3.77409 11.1512 3.7878 11.2015 3.79027C11.2519 3.79275 11.3021 3.78392 11.3485 3.76444C11.3956 3.75608 11.4402 3.73715 11.4788 3.70909C11.5174 3.68103 11.549 3.64459 11.5712 3.60256C11.5934 3.56052 11.6056 3.51401 11.6069 3.46658C11.6082 3.41914 11.5985 3.37205 11.5786 3.32889C11.5674 3.28312 11.5467 3.24016 11.5179 3.20268C11.4891 3.16521 11.4528 3.13403 11.4113 3.11111C11.3074 3.06234 11.1987 3.02412 11.087 2.99704C11.0138 2.99704 10.9406 2.99704 10.9197 2.86222C10.9104 2.84852 10.905 2.83263 10.9039 2.81616C10.9029 2.7997 10.9062 2.78325 10.9137 2.7685C10.9211 2.75374 10.9324 2.74121 10.9463 2.73217C10.9602 2.72313 10.9763 2.71791 10.9929 2.71704C11.108 2.71704 11.1498 2.77926 11.1812 2.89333L11.3904 2.83111Z" fill="#492A00"/>
<path d="M11.8924 2.50963H12.0493C12.1329 2.50963 12.1852 2.50963 12.2271 2.63407C12.2689 2.75852 12.2271 2.81037 12.1434 2.83111H11.976L11.8924 2.50963ZM12.0597 2.99704C12.1221 2.98715 12.1856 2.98715 12.248 2.99704C12.3317 2.99704 12.3526 3.11111 12.3735 3.17333C12.3926 3.27832 12.4278 3.37976 12.4781 3.47407H12.7082C12.6455 3.47407 12.5722 3.16296 12.5618 3.12148C12.5513 3.08 12.4676 2.92444 12.3421 2.93481C12.4781 2.88296 12.4676 2.73778 12.4363 2.60296C12.4272 2.56146 12.4091 2.52242 12.3832 2.4886C12.3573 2.45478 12.3243 2.42701 12.2864 2.40723C12.2485 2.38746 12.2067 2.37616 12.1639 2.37415C12.1211 2.37213 12.0784 2.37944 12.0388 2.39555L11.6309 2.48889L11.9551 3.68148H12.1643L12.0283 3.00741L12.0597 2.99704Z" fill="#492A00"/>
<path d="M13.158 2.47852V2.31259C13.158 2.31259 13.158 2.25037 13.158 2.22963C13.1534 2.25362 13.1534 2.27823 13.158 2.30222C13.152 2.35737 13.152 2.413 13.158 2.46815L13.273 2.81037H13.0848L13.158 2.47852ZM13.158 3.32889V3.01778H13.409L13.5136 3.31852H13.7542L13.2835 2.07407H12.9906L12.8965 3.32889H13.158Z" fill="#492A00"/>
</g>
<path d="M13.8384 2.00148L13.9325 3.22518L14.5392 3.1837L14.5287 3.00741L14.1313 3.02815L14.0999 2.65481L14.466 2.63407L14.4555 2.45778L14.0894 2.47852L14.0685 2.16741L14.466 2.14667L14.4555 1.96L13.8384 2.00148Z" fill="#492A00"/>
<path d="M14.769 1.96L14.79 3.1837L15.4175 3.17333V2.98667L15.0096 2.99704L14.9887 1.94963L14.769 1.96Z" fill="#492A00"/>
<mask id="mask15_380_1121" style="mask-type:luminance" maskUnits="userSpaceOnUse" x="3" y="1" width="24" height="26">
<path d="M26.8919 1.44148H3.43066V26.5481H26.8919V1.44148Z" fill="white"/>
</mask>
<g mask="url(#mask15_380_1121)">
<path d="M16.3381 1.44148C16.3547 1.52363 16.3547 1.60823 16.3381 1.69037V1.91852C16.3301 1.94747 16.3289 1.97785 16.3346 2.00733C16.3402 2.03681 16.3526 2.06461 16.3708 2.08862C16.389 2.11263 16.4124 2.13221 16.4394 2.14586C16.4663 2.15952 16.4961 2.16689 16.5263 2.16741H16.746C16.9657 2.16741 16.9029 2.33333 16.8506 2.49926L16.6414 3.22518H16.8506L17.0493 2.49926C17.1121 2.29185 17.2271 2.02222 16.9029 1.99111H16.6623C16.5473 1.99111 16.5368 1.99111 16.5786 1.65926C16.5894 1.58706 16.5894 1.51368 16.5786 1.44148H16.3381Z" fill="#492A00"/>
</g>
<path d="M17.75 2.46815L17.3525 3.34963L17.5513 3.39111L17.8337 2.6963L18.1161 3.50519L18.3358 3.54667L18.1789 3.11111L18.5763 2.33333L18.3776 2.29185L18.1056 2.89333L17.8651 2.18815L17.635 2.14667L17.75 2.46815Z" fill="#492A00"/>
<mask id="mask16_380_1121" style="mask-type:luminance" maskUnits="userSpaceOnUse" x="3" y="1" width="24" height="26">
<path d="M26.8919 1.44148H3.43066V26.5481H26.8919V1.44148Z" fill="white"/>
</mask>
<g mask="url(#mask16_380_1121)">
<path d="M18.8276 2.57185L19.131 2.66518C19.3715 2.73778 19.3925 2.8 19.3088 3.02815L19.0578 3.76444L19.246 3.82667L19.5389 3.11111C19.6435 2.81037 19.6017 2.68592 19.3088 2.59259L18.9113 2.47852L18.8276 2.57185Z" fill="#492A00"/>
<path d="M20.6478 3.01778L20.2817 3.77481L20.47 3.84741L20.8256 3.11111L20.6478 3.01778ZM20.1771 2.82074L19.7378 3.98222L20.2608 4.2C20.5118 4.31407 20.7419 4.33481 20.9407 3.94074L21.2545 3.27704L21.0766 3.19407L20.7419 3.87852C20.6269 4.12741 20.4909 4.12741 20.2503 4.0237L19.9784 3.90963L20.3549 2.87259L20.1771 2.82074Z" fill="#492A00"/>
<path d="M21.5264 4.22074L21.767 3.80593C21.8119 3.73605 21.8437 3.65878 21.8612 3.57778L21.6729 3.48444C21.6606 3.56527 21.6322 3.64285 21.5892 3.71259L21.3486 4.12741L21.5264 4.22074Z" fill="#492A00"/>
<path d="M22.9383 4.2L22.3526 4.94667C22.248 5.09185 22.1434 5.04 22.1225 4.94667L22.0283 5.08148C22.045 5.12644 22.074 5.16593 22.112 5.19555C22.248 5.28889 22.363 5.26815 22.5199 5.06074L23.0115 4.43852L23.2207 4.5837C23.409 4.71852 23.409 4.78074 23.2207 4.95704L22.7291 5.6L22.886 5.71407L23.3463 5.12296C23.6182 4.77037 23.6182 4.68741 23.2835 4.45926L22.9383 4.2Z" fill="#492A00"/>
<path d="M23.9531 5.62074L23.5661 6.02518L23.2733 5.78667L23.1582 5.91111L23.5871 6.27407L24.1623 5.67259C24.3925 5.43407 24.3611 5.26815 24.1623 5.1437L24.0577 4.99852L23.9427 5.12296L24.0577 5.18518C24.1833 5.29926 24.1414 5.40296 23.9636 5.58963" fill="#492A00"/>
<path d="M24.4028 6.27407L24.748 5.93185C24.8136 5.88026 24.8641 5.81224 24.8944 5.73481L24.748 5.6C24.7112 5.67679 24.6617 5.74691 24.6015 5.80741L24.2563 6.14963L24.4028 6.27407Z" fill="#492A00"/>
</g>
<path d="M25.0511 6.11852L25.3858 6.46074L24.5386 7.1763L24.6746 7.31111L25.5218 6.59556L25.6787 6.77185L25.8147 6.65778L25.1766 6.00444L25.0511 6.11852Z" fill="#492A00"/>
<mask id="mask17_380_1121" style="mask-type:luminance" maskUnits="userSpaceOnUse" x="3" y="1" width="24" height="26">
<path d="M26.8919 1.44148H3.43066V26.5481H26.8919V1.44148Z" fill="white"/>
</mask>
<g mask="url(#mask17_380_1121)">
<path d="M26.1492 7.01037C26.0851 7.07953 26.0111 7.13894 25.9296 7.18667L25.0928 7.7363L25.2078 7.89185L25.7517 7.52889C25.9296 7.41481 26.2433 7.35259 26.3689 7.52889C26.4944 7.70519 26.2852 7.84 26.2015 7.90222L25.8668 8.12C25.6471 8.26518 25.5321 8.12 25.4902 7.97481L25.3333 8.07852C25.3452 8.14461 25.3749 8.2063 25.4192 8.2571C25.4635 8.30789 25.5207 8.3459 25.585 8.36713C25.6492 8.38836 25.718 8.39203 25.7842 8.37774C25.8504 8.36344 25.9114 8.33173 25.9609 8.28593L26.327 8.04741C26.463 7.96444 26.7663 7.77778 26.5362 7.46667C26.4794 7.40158 26.4036 7.35564 26.3192 7.3352C26.2349 7.31476 26.1462 7.32084 26.0655 7.35259C26.1412 7.30511 26.2114 7.24946 26.2747 7.18667L26.1492 7.01037Z" fill="#492A00"/>
</g>
</svg>
