<svg width="30" height="31" viewBox="0 0 30 31" fill="none" xmlns="http://www.w3.org/2000/svg">
<path d="M15 29.0987C22.5207 29.0987 28.6138 23.0123 28.6138 15.5C28.6138 7.98767 22.5207 1.90134 15 1.90134C7.47933 1.90134 1.38623 7.98767 1.38623 15.5C1.38623 23.0123 7.47933 29.0987 15 29.0987Z" stroke="#346139" stroke-linecap="round"/>
<path d="M15.1138 15.903L22.7586 15.531" stroke="#346139" stroke-linecap="round"/>
<path d="M15 17.05C15.8586 17.05 16.5517 16.3577 16.5517 15.5C16.5517 14.6423 15.8586 13.95 15 13.95C14.1413 13.95 13.4482 14.6423 13.4482 15.5C13.4482 16.3577 14.1413 17.05 15 17.05Z" fill="#346139"/>
<path d="M15.1758 16.2957V5.60068" stroke="#346139" stroke-linecap="round"/>
</svg>
