<svg width="39" height="39" viewBox="0 0 39 39" fill="none" xmlns="http://www.w3.org/2000/svg">
<g clip-path="url(#clip0_44_242)">
<path d="M12.8505 32.526C12.8627 32.5841 12.8549 32.6446 12.8283 32.6977C12.8018 32.7508 12.7581 32.7934 12.7043 32.8185C12.6774 32.8274 12.649 32.8306 12.6208 32.8279C12.5927 32.8253 12.5653 32.8168 12.5406 32.8031C12.5159 32.7893 12.4943 32.7706 12.4771 32.7481C12.46 32.7256 12.4477 32.6998 12.441 32.6722C10.3545 26.7442 14.7908 23.1172 19.266 19.461L19.4513 19.3147C19.4678 19.2961 19.488 19.2811 19.5107 19.2709C19.5334 19.2606 19.558 19.2553 19.5829 19.2553C19.6078 19.2553 19.6324 19.2606 19.6551 19.2709C19.6778 19.2811 19.6981 19.2961 19.7145 19.3147C21.9516 20.9448 23.9388 22.8926 25.6133 25.0965C26.3814 26.1839 26.8719 27.4428 27.0418 28.7633C27.2118 30.0837 27.0561 31.4258 26.5883 32.6722C26.5646 32.7272 26.5223 32.7721 26.4688 32.7988C26.4152 32.8256 26.354 32.8326 26.2958 32.8185C26.2656 32.8108 26.2373 32.7969 26.2127 32.7776C26.1881 32.7584 26.1679 32.7342 26.1532 32.7067C26.1385 32.6792 26.1297 32.6489 26.1274 32.6178C26.1251 32.5866 26.1293 32.5554 26.1398 32.526C26.5844 31.3449 26.7315 30.0725 26.5683 28.8211C26.4051 27.5696 25.9365 26.3776 25.2038 25.35C23.6136 23.2262 21.714 21.3529 19.5683 19.7925C15.2003 23.3707 10.9103 26.8807 12.8505 32.5162" fill="#346139"/>
<path d="M12.4411 6.32775C12.4456 6.3021 12.4554 6.27767 12.4699 6.25606C12.4844 6.23446 12.5034 6.21616 12.5254 6.20236C12.5475 6.18856 12.5723 6.17957 12.5981 6.17598C12.6238 6.17238 12.6501 6.17426 12.6751 6.1815C12.7048 6.19135 12.7323 6.20706 12.7558 6.22771C12.7794 6.24836 12.7985 6.27352 12.8121 6.3017C12.8258 6.32989 12.8336 6.36052 12.8352 6.39179C12.8368 6.42306 12.8321 6.45433 12.8214 6.48375C10.8714 12.0802 15.1711 15.6195 19.5391 19.1587C21.6825 17.6045 23.5904 15.7491 25.2039 13.65C25.9317 12.6238 26.3967 11.4348 26.5582 10.1871C26.7197 8.93942 26.5727 7.67117 26.1301 6.4935C26.1301 6.3375 26.1301 6.23025 26.2861 6.19125C26.3408 6.17299 26.4002 6.17472 26.4538 6.19615C26.5074 6.21757 26.5516 6.25729 26.5786 6.30825C27.0464 7.5531 27.2021 8.89359 27.0321 10.2125C26.8622 11.5314 26.3717 12.7887 25.6036 13.8742C23.9317 16.0833 21.9442 18.0347 19.7049 19.6657C19.6689 19.6986 19.622 19.7169 19.5732 19.7169C19.5245 19.7169 19.4776 19.6986 19.4416 19.6657L19.2661 19.5C14.7909 15.8047 10.3449 12.1875 12.4411 6.28875" fill="#346139"/>
<path d="M26.5491 7.8585C26.7051 7.8585 26.7733 7.9755 26.7733 8.12175C26.7747 8.15156 26.7699 8.18134 26.7591 8.20918C26.7483 8.23702 26.7318 8.2623 26.7107 8.2834C26.6896 8.30451 26.6644 8.32098 26.6365 8.33176C26.6087 8.34254 26.5789 8.34739 26.5491 8.346H12.4506C12.3926 8.34152 12.3381 8.31645 12.297 8.27533C12.2559 8.2342 12.2308 8.17973 12.2263 8.12175C12.2234 8.05763 12.245 7.99481 12.2866 7.94595C12.3282 7.89709 12.3868 7.86584 12.4506 7.8585H26.5491Z" fill="#346139"/>
<path d="M26.6661 9.75C26.7256 9.75 26.7826 9.77363 26.8247 9.81568C26.8667 9.85774 26.8903 9.91477 26.8903 9.97425C26.8903 10.1302 26.8123 10.2375 26.6661 10.2375H12.3336C12.2689 10.2375 12.2069 10.2118 12.1612 10.1661C12.1155 10.1204 12.0898 10.0584 12.0898 9.99375C12.0898 9.9291 12.1155 9.8671 12.1612 9.82139C12.2069 9.77568 12.2689 9.75 12.3336 9.75H26.6661Z" fill="#346139"/>
<path d="M26.3252 11.7C26.3839 11.7024 26.4395 11.7268 26.4811 11.7683C26.5226 11.8099 26.547 11.8655 26.5494 11.9242C26.5508 11.9541 26.546 11.9838 26.5352 12.0117C26.5244 12.0395 26.5079 12.0648 26.4868 12.0859C26.4657 12.107 26.4404 12.1235 26.4126 12.1343C26.3848 12.145 26.355 12.1499 26.3252 12.1485H12.6752C12.6453 12.1499 12.6156 12.145 12.5877 12.1343C12.5599 12.1235 12.5346 12.107 12.5135 12.0859C12.4924 12.0648 12.4759 12.0395 12.4652 12.0117C12.4544 11.9838 12.4495 11.9541 12.4509 11.9242C12.4533 11.8655 12.4777 11.8099 12.5193 11.7683C12.5608 11.7268 12.6165 11.7024 12.6752 11.7H26.3252Z" fill="#346139"/>
<path d="M25.243 13.572C25.3017 13.5744 25.3573 13.5988 25.3989 13.6403C25.4404 13.6819 25.4648 13.7375 25.4672 13.7963C25.4686 13.8261 25.4638 13.8559 25.453 13.8837C25.4422 13.9115 25.4257 13.9368 25.4046 13.9579C25.3835 13.979 25.3582 13.9955 25.3304 14.0063C25.3026 14.017 25.2728 14.0219 25.243 14.0205H13.7867C13.7549 14.0247 13.7226 14.022 13.6919 14.0126C13.6612 14.0032 13.6329 13.9874 13.6089 13.9661C13.5848 13.9449 13.5657 13.9187 13.5526 13.8894C13.5395 13.8601 13.5329 13.8283 13.5332 13.7963C13.5382 13.7333 13.5674 13.6748 13.6147 13.633C13.662 13.5911 13.7236 13.5693 13.7867 13.572H25.243Z" fill="#346139"/>
<path d="M23.6927 15.4733C23.7222 15.4733 23.7513 15.4791 23.7785 15.4903C23.8058 15.5016 23.8305 15.5181 23.8513 15.5389C23.8721 15.5598 23.8886 15.5845 23.8999 15.6117C23.9112 15.6389 23.917 15.6681 23.917 15.6975C23.917 15.727 23.9112 15.7561 23.8999 15.7833C23.8886 15.8105 23.8721 15.8352 23.8513 15.8561C23.8305 15.8769 23.8058 15.8934 23.7785 15.9047C23.7513 15.916 23.7222 15.9218 23.6927 15.9218H15.298C15.2385 15.9218 15.1815 15.8981 15.1394 15.8561C15.0974 15.814 15.0737 15.757 15.0737 15.6975C15.0737 15.638 15.0974 15.581 15.1394 15.5389C15.1815 15.4969 15.2385 15.4733 15.298 15.4733H23.6927Z" fill="#346139"/>
<path d="M21.7426 17.3745C21.7744 17.3703 21.8068 17.373 21.8375 17.3824C21.8681 17.3918 21.8965 17.4076 21.9205 17.4289C21.9445 17.4501 21.9637 17.4763 21.9767 17.5056C21.9898 17.5349 21.9964 17.5667 21.9961 17.5987C21.9911 17.6617 21.9619 17.7202 21.9147 17.762C21.8674 17.8039 21.8057 17.8257 21.7426 17.823H17.2284C17.1697 17.8206 17.114 17.7962 17.0725 17.7547C17.0309 17.7131 17.0065 17.6575 17.0041 17.5987C17.0027 17.5689 17.0076 17.5392 17.0184 17.5113C17.0292 17.4835 17.0456 17.4582 17.0667 17.4371C17.0878 17.416 17.1131 17.3995 17.141 17.3887C17.1688 17.378 17.1986 17.3731 17.2284 17.3745H21.7426Z" fill="#346139"/>
<path d="M21.7229 21.1478C21.7809 21.1522 21.8354 21.1773 21.8765 21.2184C21.9177 21.2595 21.9427 21.314 21.9472 21.372C21.9499 21.4351 21.9281 21.4967 21.8862 21.544C21.8444 21.5913 21.7859 21.6205 21.7229 21.6255H17.2769C17.2449 21.6258 17.2131 21.6192 17.1838 21.6061C17.1545 21.5931 17.1283 21.5739 17.1071 21.5498C17.0858 21.5258 17.07 21.4975 17.0606 21.4668C17.0512 21.4361 17.0485 21.4038 17.0527 21.372C17.0513 21.3422 17.0562 21.3124 17.0669 21.2846C17.0777 21.2567 17.0942 21.2315 17.1153 21.2103C17.1364 21.1892 17.1617 21.1728 17.1895 21.162C17.2174 21.1512 17.2471 21.1464 17.2769 21.1478H21.7229Z" fill="#346139"/>
<path d="M23.7508 23.049C23.7829 23.0463 23.8151 23.05 23.8457 23.0599C23.8763 23.0697 23.9046 23.0855 23.9291 23.1064C23.9536 23.1272 23.9737 23.1527 23.9883 23.1813C24.0028 23.21 24.0116 23.2412 24.0141 23.2732C24.0141 23.4195 23.9068 23.4975 23.7508 23.4975H15.2098C15.18 23.4989 15.1502 23.494 15.1224 23.4833C15.0946 23.4725 15.0693 23.456 15.0482 23.4349C15.0271 23.4138 15.0106 23.3885 14.9998 23.3607C14.989 23.3328 14.9842 23.3031 14.9856 23.2732C14.988 23.2145 15.0124 23.1589 15.0539 23.1173C15.0955 23.0758 15.1511 23.0514 15.2098 23.049H23.7508Z" fill="#346139"/>
<path d="M25.3499 24.9502C25.4086 24.9526 25.4642 24.977 25.5058 25.0186C25.5473 25.0601 25.5717 25.1158 25.5741 25.1745C25.5755 25.2043 25.5706 25.2341 25.5599 25.2619C25.5491 25.2898 25.5326 25.315 25.5115 25.3362C25.4904 25.3573 25.4651 25.3737 25.4373 25.3845C25.4095 25.3953 25.3797 25.4001 25.3499 25.3987H13.6986C13.6688 25.4001 13.639 25.3953 13.6112 25.3845C13.5833 25.3737 13.5581 25.3573 13.5369 25.3362C13.5158 25.315 13.4994 25.2898 13.4886 25.2619C13.4778 25.2341 13.473 25.2043 13.4744 25.1745C13.4768 25.1158 13.5011 25.0601 13.5427 25.0186C13.5842 24.977 13.6399 24.9526 13.6986 24.9502H25.3499Z" fill="#346139"/>
<path d="M26.3249 26.8515C26.3547 26.8501 26.3845 26.855 26.4123 26.8657C26.4401 26.8765 26.4654 26.893 26.4865 26.9141C26.5076 26.9352 26.5241 26.9605 26.5349 26.9883C26.5457 27.0162 26.5505 27.0459 26.5491 27.0757C26.5522 27.1059 26.5485 27.1364 26.5383 27.165C26.5281 27.1936 26.5116 27.2196 26.4902 27.2411C26.4687 27.2625 26.4428 27.2789 26.4142 27.2891C26.3856 27.2993 26.3551 27.303 26.3249 27.3H12.6749C12.6428 27.3027 12.6106 27.299 12.58 27.2891C12.5494 27.2793 12.5211 27.2635 12.4966 27.2426C12.4721 27.2218 12.452 27.1963 12.4374 27.1677C12.4229 27.139 12.4141 27.1078 12.4116 27.0757C12.419 27.012 12.4502 26.9534 12.4991 26.9118C12.5479 26.8701 12.6108 26.8486 12.6749 26.8515H26.3249Z" fill="#346139"/>
<path d="M26.7737 28.7527C26.8035 28.7514 26.8333 28.7562 26.8611 28.767C26.889 28.7778 26.9142 28.7942 26.9354 28.8153C26.9565 28.8364 26.9729 28.8617 26.9837 28.8896C26.9945 28.9174 26.9993 28.9472 26.998 28.977C26.9956 29.0357 26.9712 29.0914 26.9296 29.1329C26.8881 29.1745 26.8324 29.1989 26.7737 29.2012H12.2559C12.1929 29.204 12.1312 29.1821 12.0839 29.1403C12.0367 29.0985 12.0074 29.0399 12.0024 28.977C12.0022 28.9449 12.0088 28.9132 12.0218 28.8838C12.0349 28.8545 12.0541 28.8284 12.0781 28.8071C12.1021 28.7859 12.1304 28.77 12.1611 28.7606C12.1918 28.7513 12.2241 28.7486 12.2559 28.7527H26.7737Z" fill="#346139"/>
<path d="M26.7248 30.6247C26.7594 30.6233 26.7938 30.6291 26.8259 30.642C26.858 30.6548 26.887 30.6743 26.911 30.6992C26.9349 30.7241 26.9533 30.7538 26.965 30.7863C26.9766 30.8189 26.9811 30.8536 26.9783 30.888C26.971 30.9492 26.9408 31.0053 26.8938 31.0451C26.8467 31.0849 26.7864 31.1054 26.7248 31.1025H12.2461C12.189 31.1003 12.1346 31.0773 12.0933 31.0378C12.052 30.9983 12.0266 30.945 12.0218 30.888C12.0192 30.856 12.0229 30.8237 12.0327 30.7931C12.0426 30.7625 12.0584 30.7342 12.0792 30.7097C12.1 30.6853 12.1255 30.6651 12.1542 30.6506C12.1828 30.636 12.214 30.6272 12.2461 30.6247H26.7248Z" fill="#346139"/>
<path d="M19.5002 37.6642C29.532 37.6642 37.6644 29.5318 37.6644 19.5C37.6644 9.46816 29.532 1.33575 19.5002 1.33575C9.46835 1.33575 1.33594 9.46816 1.33594 19.5C1.33594 29.5318 9.46835 37.6642 19.5002 37.6642Z" stroke="#346139" stroke-width="1.62" stroke-miterlimit="10"/>
<path d="M32.7212 7.371L5.01172 31.1415" stroke="#346139" stroke-width="1.62" stroke-miterlimit="10"/>
</g>
<defs>
<clipPath id="clip0_44_242">
<rect width="39" height="39" fill="white"/>
</clipPath>
</defs>
</svg>
