<svg width="30" height="28" viewBox="0 0 30 28" fill="none" xmlns="http://www.w3.org/2000/svg">
<path d="M26.8152 1.65926H3.10449V20.5852H26.8152V1.65926Z" stroke="#007447" stroke-width="0.88" stroke-miterlimit="10"/>
<path d="M25.3095 15.2652C25.334 14.8339 25.2707 14.4021 25.1235 13.9963C24.9762 13.5904 24.7481 13.2191 24.4532 12.905C24.1582 12.5909 23.8025 12.3407 23.408 12.1697C23.0134 11.9987 22.5883 11.9105 22.1587 11.9105C21.7291 11.9105 21.304 11.9987 20.9094 12.1697C20.5149 12.3407 20.1592 12.5909 19.8643 12.905C19.5693 13.2191 19.3412 13.5904 19.1939 13.9963C19.0467 14.4021 18.9834 14.8339 19.0079 15.2652C18.9834 15.6965 19.0467 16.1283 19.1939 16.5341C19.3412 16.9399 19.5693 17.3113 19.8643 17.6253C20.1592 17.9394 20.5149 18.1896 20.9094 18.3606C21.304 18.5316 21.7291 18.6198 22.1587 18.6198C22.5883 18.6198 23.0134 18.5316 23.408 18.3606C23.8025 18.1896 24.1582 17.9394 24.4532 17.6253C24.7481 17.3113 24.9762 16.9399 25.1235 16.5341C25.2707 16.1283 25.334 15.6965 25.3095 15.2652ZM24.4122 15.2652C24.4614 15.5915 24.44 15.9246 24.3494 16.2418C24.2587 16.559 24.101 16.8528 23.887 17.103C23.6731 17.3533 23.4079 17.5541 23.1096 17.6918C22.8113 17.8295 22.4869 17.9008 22.1587 17.9008C21.8305 17.9008 21.5061 17.8295 21.2078 17.6918C20.9095 17.5541 20.6443 17.3533 20.4304 17.103C20.2164 16.8528 20.0587 16.559 19.9681 16.2418C19.8774 15.9246 19.856 15.5915 19.9052 15.2652C19.8632 14.9392 19.8898 14.6079 19.9834 14.2929C20.077 13.9779 20.2355 13.6863 20.4485 13.4369C20.6615 13.1875 20.9243 12.9859 21.2198 12.8453C21.5154 12.7047 21.837 12.6282 22.1639 12.6207C23.5665 12.6207 24.4122 13.7304 24.4122 15.2652ZM18.0075 18.5111V12.0193H16.7699L14.9341 17.5052L13.0983 12.0193H11.8298V18.5111H12.6652V14.6741C12.6652 14.4874 12.6652 13.637 12.6652 13.0667L14.4906 18.5111H15.3467L17.1721 13.0563C17.1721 13.6578 17.1721 14.4874 17.1721 14.6741V18.5111H18.0075ZM7.69406 15.7837H9.75675C9.78678 16.1088 9.73768 16.4363 9.6137 16.738C9.48972 17.0397 9.29458 17.3066 9.04512 17.5156C8.66567 17.8025 8.1994 17.949 7.725 17.9304C6.00265 17.9304 5.56948 16.5718 5.56948 15.2548C5.56948 13.5541 6.52863 12.6207 7.68374 12.6207C8.11678 12.5754 8.55152 12.689 8.90784 12.9405C9.26416 13.1921 9.51804 13.5647 9.62268 13.9896H10.4684C10.3577 13.3552 10.017 12.7846 9.51219 12.3881C9.00737 11.9916 8.37428 11.7973 7.73531 11.843C7.3073 11.8416 6.88366 11.9295 6.49118 12.1012C6.09869 12.2729 5.7459 12.5246 5.4551 12.8403C5.16431 13.1561 4.94184 13.5292 4.80175 13.9358C4.66167 14.3425 4.60702 14.774 4.64127 15.203C4.60384 15.7089 4.67674 16.217 4.85488 16.6916C5.03302 17.1663 5.3121 17.5962 5.67261 17.9511C5.93358 18.205 6.24475 18.4008 6.58591 18.5259C6.92706 18.651 7.29056 18.7025 7.6528 18.677C8.06295 18.6835 8.46889 18.593 8.83791 18.4129C9.20693 18.2328 9.52872 17.968 9.77738 17.64L9.98365 18.48H10.5509V15.037H7.67343L7.69406 15.7837Z" fill="#007447"/>
<path d="M23.917 8.97037L20.627 3.72296H19.5957V10.2148H20.4414V5.02963L23.721 10.2667H24.7524V3.72296H23.9067L23.917 8.97037ZM18.0589 6.96889C18.0942 6.53199 18.039 6.09249 17.8969 5.67811C17.7548 5.26372 17.5288 4.88343 17.2333 4.5612C16.9378 4.23898 16.579 3.98182 16.1798 3.80592C15.7805 3.63003 15.3493 3.53922 14.9133 3.53922C14.4774 3.53922 14.0462 3.63003 13.6469 3.80592C13.2476 3.98182 12.8889 4.23898 12.5934 4.5612C12.2978 4.88343 12.0719 5.26372 11.9298 5.67811C11.7877 6.09249 11.7325 6.53199 11.7677 6.96889C11.7325 7.40579 11.7877 7.84528 11.9298 8.25967C12.0719 8.67406 12.2978 9.05435 12.5934 9.37658C12.8889 9.6988 13.2476 9.95596 13.6469 10.1319C14.0462 10.3078 14.4774 10.3986 14.9133 10.3986C15.3493 10.3986 15.7805 10.3078 16.1798 10.1319C16.579 9.95596 16.9378 9.6988 17.2333 9.37658C17.5288 9.05435 17.7548 8.67406 17.8969 8.25967C18.039 7.84528 18.0942 7.40579 18.0589 6.96889ZM17.1617 6.96889C17.1617 8.5037 16.316 9.61333 14.9133 9.61333C13.5107 9.61333 12.665 8.5037 12.665 6.96889C12.6106 6.64059 12.6281 6.30433 12.716 5.98349C12.804 5.66264 12.9604 5.3649 13.1743 5.11098C13.3883 4.85706 13.6547 4.65304 13.955 4.51311C14.2553 4.37318 14.5823 4.30069 14.9133 4.30069C15.2443 4.30069 15.5713 4.37318 15.8717 4.51311C16.172 4.65304 16.4384 4.85706 16.6523 5.11098C16.8663 5.3649 17.0227 5.66264 17.1107 5.98349C17.1986 6.30433 17.216 6.64059 17.1617 6.96889ZM9.34406 8.97037L6.09531 3.72296H5.06396V10.2148H5.90967V5.02963L9.20998 10.2148H10.2413V3.72296H9.34406V8.97037Z" fill="#007447"/>
<path d="M24.6906 26.3407H24.969L25.6085 23.4785H24.5771V23.0015H24.3399V23.6859H25.2784L24.6906 26.3407ZM23.2776 26.3407H23.5561L24.1955 23.4785H23.1642V23.0015H22.896V23.6859H23.8449L23.2776 26.3407ZM22.6794 26.3407L22.205 25.3037C22.5351 25.2 22.6691 25.0237 22.6691 24.4948V23.5304H22.401V24.5674C22.401 24.9096 22.401 25.0444 22.1328 25.1378L21.4315 23.5407H21.1634L21.5862 24.5052C21.2562 24.5985 21.1324 24.8163 21.1324 25.283V26.3407H21.4109V25.1585C21.4109 24.8578 21.4109 24.6919 21.6687 24.6296L22.4113 26.3407H22.6794ZM18.4819 26.3407H18.7706V24.5052H18.4819V26.3407ZM19.8948 23.4785H18.4612V23.6859H19.5957V26.3407H19.8742L19.8948 23.4785ZM17.533 26.3407C17.9146 26.3407 18.0384 26.1644 18.0384 25.7289V23.4785H17.3371V23.6859H17.7599V25.6874C17.7599 25.9985 17.698 26.1333 17.4299 26.1333H17.203V26.3407H17.533ZM17.1205 23.4785H15.6663V23.6859H16.5017V26.3407H16.7801V23.6859H17.0586L17.1205 23.4785ZM15.1506 25.0859C15.1506 25.8844 15.0784 26.123 14.4802 26.123H14.3152L14.1708 23.6756H15.1506V25.0859ZM15.4188 23.4785H13.8614L14.0264 26.3407H14.439C15.2331 26.3407 15.3981 26.04 15.3981 25.0444L15.4188 23.4785ZM12.0359 26.3407H12.3144V24.5052H12.0359V26.3407ZM13.4076 23.4785H11.9637V23.6859H13.1292V26.3407H13.4076V23.4785ZM10.4889 25.7393V26.3407H10.7571L10.5095 23.4785H9.89073V23.6859H10.2723L10.3858 25.1481C10.4373 25.7393 10.2517 26.1022 9.79791 26.1022H9.81854V26.3407H9.91136C10.0712 26.3383 10.2241 26.2748 10.3391 26.163C10.454 26.0513 10.5223 25.8998 10.5302 25.7393M9.10691 26.3407C9.48851 26.3407 9.61227 26.1644 9.61227 25.7289V23.4785H8.91095V23.6859H9.33381V25.6874C9.33381 25.9985 9.27193 26.1333 9.00378 26.1333H8.77688V26.3407H9.10691ZM8.57061 25.0341V23.4785H7.77647V23.6963H8.25089V25.0652C8.25089 25.8948 8.15807 26.1022 7.60114 26.1022H7.46707L7.32268 23.4785H7.05453L7.21954 26.3407H7.6424C8.36434 26.3407 8.57061 26.0504 8.57061 25.0341ZM6.68324 23.4785H6.40478V25.0652H6.68324V23.4785ZM5.15685 23.4785H4.37302V23.6859H4.61023V26.123H4.20801V26.3407H4.86807V23.6859H5.15685C5.56939 23.6859 5.72409 23.8207 5.72409 24.4222V26.3407H5.99224V24.4637C5.99224 23.6756 5.77566 23.4785 5.1981 23.4785" fill="#007447"/>
</svg>
