<svg width="33" height="33" viewBox="0 0 33 33" fill="none" xmlns="http://www.w3.org/2000/svg">
<g clip-path="url(#clip0_25_250)">
<path d="M24.8571 6.35915C24.4894 6.35739 24.1295 6.46492 23.8231 6.66808C23.5166 6.87124 23.2775 7.16089 23.136 7.50023C22.9944 7.83957 22.957 8.21331 23.0283 8.574C23.0996 8.93469 23.2764 9.26606 23.5364 9.52604C23.7964 9.78603 24.1278 9.96289 24.4884 10.0342C24.8491 10.1055 25.2229 10.068 25.5622 9.92648C25.9016 9.78496 26.1912 9.54581 26.3944 9.23937C26.5975 8.93293 26.7051 8.57303 26.7033 8.20537C26.7009 7.71644 26.5057 7.24821 26.16 6.90249C25.8142 6.55676 25.346 6.3615 24.8571 6.35915Z" fill="url(#paint0_linear_25_250)"/>
<path d="M16.6337 8.73157C15.0973 8.73157 13.5954 9.18717 12.3179 10.0408C11.0404 10.8944 10.0447 12.1076 9.45669 13.5271C8.86872 14.9466 8.71488 16.5086 9.01463 18.0155C9.31437 19.5224 10.0542 20.9066 11.1407 21.993C12.2271 23.0794 13.6113 23.8193 15.1182 24.1191C16.6251 24.4188 18.1871 24.265 19.6066 23.677C21.0261 23.089 22.2393 22.0933 23.0929 20.8158C23.9465 19.5383 24.4021 18.0364 24.4021 16.4999C24.3974 14.4411 23.5774 12.4679 22.1216 11.0121C20.6658 9.55624 18.6926 8.73628 16.6337 8.73157ZM16.6337 21.4767C15.6494 21.4767 14.6872 21.1848 13.8688 20.638C13.0504 20.0911 12.4125 19.3139 12.0358 18.4045C11.6591 17.4951 11.5606 16.4944 11.7526 15.529C11.9446 14.5636 12.4186 13.6769 13.1146 12.9808C13.8107 12.2848 14.6974 11.8108 15.6628 11.6188C16.6282 11.4268 17.6289 11.5253 18.5383 11.902C19.4476 12.2787 20.2249 12.9166 20.7718 13.735C21.3186 14.5534 21.6105 15.5156 21.6105 16.4999C21.6081 17.8191 21.083 19.0836 20.1502 20.0164C19.2174 20.9493 17.9529 21.4743 16.6337 21.4767Z" fill="url(#paint1_linear_25_250)"/>
<path d="M22.7967 32.2775H10.2032C7.68948 32.2752 5.27937 31.2756 3.50189 29.4981C1.7244 27.7206 0.724774 25.3105 0.722412 22.7967V10.2032C0.724774 7.68948 1.7244 5.27937 3.50189 3.50189C5.27937 1.7244 7.68948 0.724774 10.2032 0.722412H22.7967C25.3105 0.724774 27.7206 1.7244 29.4981 3.50189C31.2756 5.27937 32.2752 7.68948 32.2775 10.2032V22.7967C32.2752 25.3105 31.2756 27.7206 29.4981 29.4981C27.7206 31.2756 25.3105 32.2752 22.7967 32.2775ZM10.2032 3.73701C8.47645 3.73701 6.8204 4.42297 5.59938 5.64398C4.37837 6.86499 3.69241 8.52104 3.69241 10.2478V22.7967C3.69241 24.5235 4.37837 26.1796 5.59938 27.4006C6.8204 28.6216 8.47645 29.3075 10.2032 29.3075H22.7967C24.5235 29.3075 26.1796 28.6216 27.4006 27.4006C28.6216 26.1796 29.3075 24.5235 29.3075 22.7967V10.2032C29.3075 8.47645 28.6216 6.8204 27.4006 5.59938C26.1796 4.37837 24.5235 3.69241 22.7967 3.69241L10.2032 3.73701Z" fill="url(#paint2_linear_25_250)"/>
</g>
<defs>
<linearGradient id="paint0_linear_25_250" x1="10.3995" y1="-5.62788" x2="39.0203" y2="21.7621" gradientUnits="userSpaceOnUse">
<stop stop-color="#FFE185"/>
<stop offset="0.21" stop-color="#FFBB36"/>
<stop offset="0.38" stop-color="#FF5176"/>
<stop offset="0.52" stop-color="#F63395"/>
<stop offset="0.74" stop-color="#A436D2"/>
<stop offset="1" stop-color="#5F4EED"/>
</linearGradient>
<linearGradient id="paint1_linear_25_250" x1="2.31887" y1="2.8094" x2="30.9397" y2="30.1994" gradientUnits="userSpaceOnUse">
<stop stop-color="#FFE185"/>
<stop offset="0.21" stop-color="#FFBB36"/>
<stop offset="0.38" stop-color="#FF5176"/>
<stop offset="0.52" stop-color="#F63395"/>
<stop offset="0.74" stop-color="#A436D2"/>
<stop offset="1" stop-color="#5F4EED"/>
</linearGradient>
<linearGradient id="paint2_linear_25_250" x1="2.25647" y1="2.87187" x2="30.8773" y2="30.2619" gradientUnits="userSpaceOnUse">
<stop stop-color="#FFE185"/>
<stop offset="0.21" stop-color="#FFBB36"/>
<stop offset="0.38" stop-color="#FF5176"/>
<stop offset="0.52" stop-color="#F63395"/>
<stop offset="0.74" stop-color="#A436D2"/>
<stop offset="1" stop-color="#5F4EED"/>
</linearGradient>
<clipPath id="clip0_25_250">
<rect width="33" height="33" fill="white"/>
</clipPath>
</defs>
</svg>
