<svg width="60" height="60" viewBox="0 0 60 60" fill="none" xmlns="http://www.w3.org/2000/svg">
<g clip-path="url(#clip0_233_440)">
<path d="M26.5996 48.3641H3.26257C3.22766 47.7517 3.20508 46.9738 3.20508 46.0345C3.20508 45.1324 3.22356 44.3793 3.25846 43.7586H12.5124C14.5191 43.7586 16.0248 42.8014 17.0295 40.8869C17.8905 39.2635 18.321 37.169 18.321 34.6035C18.321 28.7152 16.3855 25.771 12.5144 25.771H3.8539C3.81968 25.0814 3.80188 24.3048 3.80052 23.4414C3.80052 22.6138 3.81899 21.8524 3.8539 21.1655H15.352C18.8658 21.1655 21.4823 22.3579 23.2015 24.7428C24.6716 26.8366 25.4074 29.6717 25.4087 33.2483C25.4019 35.2654 25.0376 37.2651 24.3328 39.1531C23.5115 41.429 22.4001 42.9641 20.9984 43.7586H26.5914C26.8419 45.2834 26.8419 46.8393 26.5914 48.3641" fill="#346139"/>
<path d="M34.1089 34.711C32.2815 35.7579 29.9881 36.4979 27.2285 36.931V21.1655H34.1109L34.1089 34.711Z" fill="#346139"/>
<path d="M56.6613 31.0262C56.6613 35.902 55.0296 40.0924 51.7663 43.5972C48.5058 47.0648 44.7416 48.8345 40.4736 48.9062C40.297 48.1117 40.297 46.5772 40.4736 44.3027C43.0196 44.0489 45.1885 42.6393 46.9803 40.0738C48.7773 37.6083 49.7384 34.6251 49.7213 31.5662C49.7213 27.7386 47.857 25.8248 44.1283 25.8248H39.1841C36.6409 25.8248 35.3686 24.1993 35.3672 20.9483V19.3262C36.0075 18.6577 36.8027 18.16 37.6812 17.8779C41.0136 16.8434 41.4694 17.671 41.4694 17.671V19.5869C41.4694 20.6338 41.8465 21.1572 42.6007 21.1572H47.5182C53.6149 21.1572 56.6626 24.4441 56.6613 31.0179" fill="#346139"/>
<path d="M29.7206 11.731L28.1787 11.7041H28.0493C25.8951 11.6312 23.8558 10.7078 22.3712 9.13327C20.8866 7.55871 20.0757 5.45917 20.1136 3.2876L26.6367 3.40139H26.6736L26.8174 3.4138C28.8942 3.48518 30.867 4.3472 32.3381 5.82611C33.8092 7.30503 34.6692 9.2909 34.7449 11.3835V14.4869L34.1638 13.4876C32.8375 12.2462 31.6507 11.8883 29.7268 11.7435" fill="#D4DF2A"/>
<path d="M42.4382 15.4552L44.6598 15.4138H44.8528C47.9559 15.3079 50.8934 13.9772 53.0317 11.7087C55.17 9.44026 56.3377 6.41579 56.2832 3.2876L46.8835 3.45311H46.6371C43.6441 3.55682 40.8014 4.79959 38.6816 6.93108C36.5617 9.06257 35.3223 11.9244 35.2129 14.94V17.9752C35.2129 17.9752 36.8103 15.4283 42.4444 15.4531" fill="#97C93D"/>
<path d="M56.7944 54.3993C56.7948 53.9413 56.6604 53.4935 56.4081 53.1125C56.1559 52.7315 55.7972 52.4344 55.3774 52.2589C54.9577 52.0833 54.4956 52.0372 54.0498 52.1263C53.604 52.2154 53.1944 52.4357 52.8729 52.7594C52.5514 53.0831 52.3323 53.4956 52.2435 53.9448C52.1547 54.394 52.2001 54.8596 52.3739 55.2827C52.5478 55.7059 52.8422 56.0676 53.2201 56.3221C53.598 56.5766 54.0423 56.7124 54.4968 56.7124C54.7984 56.7127 55.0971 56.653 55.3759 56.5369C55.6546 56.4208 55.9079 56.2505 56.1213 56.0356C56.3347 55.8208 56.5039 55.5657 56.6194 55.285C56.7349 55.0042 56.7944 54.7032 56.7944 54.3993Z" fill="#97C93D"/>
<path d="M50.7358 54.3993C50.7362 53.9413 50.6018 53.4935 50.3495 53.1125C50.0973 52.7315 49.7386 52.4344 49.3189 52.2589C48.8991 52.0833 48.437 52.0372 47.9912 52.1263C47.5454 52.2154 47.1358 52.4357 46.8143 52.7594C46.4928 53.0831 46.2737 53.4956 46.1849 53.9448C46.0961 54.394 46.1415 54.8596 46.3153 55.2827C46.4892 55.7059 46.7836 56.0676 47.1615 56.3221C47.5394 56.5766 47.9837 56.7124 48.4382 56.7124C48.7398 56.7127 49.0385 56.653 49.3173 56.5369C49.596 56.4208 49.8493 56.2505 50.0627 56.0356C50.2761 55.8208 50.4453 55.5657 50.5608 55.285C50.6763 55.0042 50.7358 54.7032 50.7358 54.3993Z" fill="#492A00"/>
<path d="M44.6811 54.3993C44.6815 53.9413 44.5471 53.4935 44.2949 53.1125C44.0426 52.7315 43.684 52.4344 43.2642 52.2589C42.8444 52.0833 42.3823 52.0372 41.9365 52.1263C41.4907 52.2154 41.0811 52.4357 40.7596 52.7594C40.4381 53.0831 40.2191 53.4956 40.1302 53.9448C40.0414 54.394 40.0868 54.8596 40.2606 55.2827C40.4345 55.7059 40.729 56.0676 41.1068 56.3221C41.4847 56.5766 41.929 56.7124 42.3835 56.7124C42.6851 56.7127 42.9838 56.653 43.2626 56.5369C43.5413 56.4208 43.7946 56.2505 44.008 56.0356C44.2214 55.8208 44.3906 55.5657 44.5061 55.285C44.6216 55.0042 44.6811 54.7032 44.6811 54.3993Z" fill="#8F3163"/>
<path d="M37.1494 52.8124V53.6772C37.1494 54.3641 37.057 54.6724 36.4719 55.1379C36.246 55.3158 35.3754 56.0503 35.3754 56.0503V56.7H35.9709C35.9709 56.7 36.8989 55.9386 37.135 55.7379C37.866 55.0945 38.0939 54.5421 38.0939 53.669V52.3821C38.0939 52.1462 38.02 52.0076 37.7017 52.0076H35.5212V50.7165L34.4207 50.5096L34.2708 51.0993L34.6506 51.2565V52.8062L37.1494 52.8124ZM30.2506 52.8124V52.8496C30.0227 52.9758 29.8112 53.3814 29.8112 54.0517V56.5159C30.1116 56.6173 30.4367 56.6173 30.7372 56.5159V53.7517C30.7372 53.1765 31.0144 52.7669 31.4496 52.7669H32.4763V56.5076C32.7761 56.6171 33.1045 56.6171 33.4043 56.5076V52.8041H33.7554V52.3903C33.7554 52.1503 33.6671 52.0117 33.3448 52.0117H30.2033L30.0391 51.5545H29.4395L29.3697 52.6903C29.6156 52.7798 29.8765 52.8199 30.1376 52.8083L30.2506 52.8124ZM27.0414 52.0159L26.8956 51.5586H26.2899L26.2036 52.7027C26.4702 52.7815 26.7472 52.8184 27.0249 52.8124H27.4027C27.608 52.8124 27.7189 53.0069 27.7189 53.2262C27.7189 53.64 27.4602 53.7745 27.1789 54.0124C27.2273 54.1336 27.2993 54.2439 27.3906 54.3366C27.4819 54.4293 27.5908 54.5027 27.7107 54.5524C28.2918 54.1572 28.6634 53.5345 28.6593 53.0524C28.6593 52.3469 28.2754 52.0179 27.5855 52.0179L27.0414 52.0159ZM24.2469 52.0159L24.095 51.5586H23.4954L23.4174 52.6945C23.6078 52.775 23.8126 52.8151 24.019 52.8124H24.2079C24.3763 52.8124 24.4132 52.8765 24.4132 53.0627V56.4993C24.7238 56.5986 25.0573 56.5986 25.368 56.4993V52.7752C25.368 52.1917 25.1626 52.0179 24.637 52.0179L24.2469 52.0159ZM19.3849 52.8124L19.3992 52.86C19.1775 53.0338 18.8798 53.2738 18.8798 54.0331C18.8798 54.8421 19.4423 55.2517 19.3643 55.7731H18.3665C18.2803 56.0251 18.2803 56.299 18.3665 56.551H20.1877C20.5983 55.4255 19.7298 54.811 19.7298 53.9814C19.7298 53.1517 20.163 52.769 20.8303 52.769H20.9782C21.4792 52.769 21.6434 53.0462 21.6434 53.46V56.4993C21.9487 56.5983 22.278 56.5925 22.5797 56.4827V53.3938C22.5797 52.3903 22.0623 52.0159 21.2328 52.0159H19.3602L19.2001 51.5586H18.6046L18.5184 52.6945C18.7986 52.7824 19.0915 52.8223 19.3849 52.8124ZM11.2725 52.8372C10.5436 53.551 11.2972 55.3779 11.8988 56.551H14.4838C14.9971 55.7772 15.5104 54.4427 15.5104 53.429C15.5104 52.5207 14.9663 51.7903 14.0731 51.7903C13.6145 51.8145 13.1771 51.993 12.8309 52.2972V53.8965C13.1047 53.9937 13.4031 53.9937 13.6769 53.8965V52.7048C13.768 52.6004 13.8964 52.5364 14.0341 52.5269C14.5906 52.5269 14.6809 52.9531 14.6809 53.4124C14.6809 54.2172 14.2415 55.2745 13.9274 55.8227H12.4901C12.0918 55.0758 11.2582 52.8993 12.3094 52.7752V52.3386C12.3094 52.1648 12.2396 52.0179 12.0055 52.0179H11.328L11.1822 51.5607H10.5662L10.4861 52.6821C10.7289 52.7696 10.9863 52.8083 11.2438 52.7958L11.2725 52.8372ZM8.54995 52.0096L8.39596 51.5524H7.79641L7.7225 52.6945C7.91353 52.7752 8.11903 52.8153 8.32615 52.8124H8.51299C8.68341 52.8124 8.71832 52.8765 8.71832 53.0627V56.4993C9.02964 56.5986 9.3638 56.5986 9.67512 56.4993V52.7752C9.67512 52.1917 9.4698 52.0179 8.94212 52.0179L8.54995 52.0096ZM6.49056 55.7586L6.47413 55.7152C6.63839 55.6076 6.86219 55.2165 6.86219 54.4593V53.1103C6.87069 52.9656 6.8489 52.8207 6.79824 52.685C6.74758 52.5493 6.66917 52.4258 6.56811 52.3226C6.46706 52.2194 6.3456 52.1388 6.21162 52.086C6.07764 52.0331 5.93413 52.0092 5.79041 52.0159H4.30592L4.15603 51.5586H3.54006L3.44562 52.6903C3.69863 52.7828 3.96722 52.8243 4.23611 52.8124H5.51733C5.57884 52.806 5.64099 52.8137 5.69915 52.8348C5.75731 52.856 5.80997 52.8902 5.8532 52.9347C5.89644 52.9793 5.92912 53.0331 5.94882 53.0922C5.96853 53.1512 5.97473 53.214 5.96698 53.2758V54.569C5.96698 55.2476 5.57071 55.7545 4.94037 55.7545H3.38402C3.28345 56.0117 3.28345 56.2979 3.38402 56.5552H7.24204C7.3447 56.2983 7.3447 56.0113 7.24204 55.7545L6.49056 55.7586Z" fill="#346139"/>
</g>
<defs>
<clipPath id="clip0_233_440">
<rect width="54" height="54" fill="white" transform="translate(3 3)"/>
</clipPath>
</defs>
</svg>
