<svg width="29" height="23" viewBox="0 0 29 23" fill="none" xmlns="http://www.w3.org/2000/svg">
<g clip-path="url(#clip0_44_153)">
<path d="M2.86905 10.6427C2.70334 10.695 7.95441 0.554091 14.1583 0.585455C20.3623 0.616819 25.458 10.7786 25.3544 10.7368C16.903 8.02909 10.7198 8.36364 2.86905 10.6427Z" fill="white"/>
<path d="M2.86905 10.6427C2.70334 10.695 7.95441 0.554091 14.1583 0.585455C20.3623 0.616819 25.458 10.7786 25.3544 10.7368C16.903 8.02909 10.7198 8.36364 2.86905 10.6427Z" fill="white"/>
<path d="M25.3545 10.7473C25.4581 10.7473 20.3727 0.606363 14.1584 0.585454C13.7267 0.582965 13.296 0.628543 12.8741 0.721363C10.057 1.32773 7.5195 3.85773 5.707 6.14727C4.5911 7.52928 3.63871 9.03796 2.86914 10.6427C4.94523 10.0286 7.05924 9.55368 9.19735 9.22091C9.94307 6.47136 11.7763 1.48455 14.5002 1.04545C16.1781 0.752727 18.1149 6.15773 19.0574 9.27318C21.1924 9.6167 23.2977 10.127 25.3545 10.7995" fill="#346139"/>
<path d="M3.23161 20.9718C3.31698 19.6743 3.47605 18.3828 3.70804 17.1036C3.77018 16.7482 3.70804 16.1732 3.26268 16.2464L2.22697 16.5182C2.30982 16.1836 2.40304 15.8595 2.49625 15.5459C2.09232 15.6714 1.6884 15.8073 1.29482 15.9641C0.981695 16.9914 0.739448 18.0394 0.569824 19.1005C0.963396 19.0064 1.36732 18.9123 1.77125 18.8391C1.94732 18.8391 1.92661 19.0273 1.91625 19.1527C1.9059 19.2782 1.86447 19.5814 1.65732 19.6232L1.0359 19.7486C0.932324 20.5745 0.859824 21.4214 0.828753 22.2577L2.49625 22.1845C3.01411 22.1114 3.17982 21.4318 3.23161 20.9718Z" fill="#346139"/>
<path d="M8.64842 22.0486C8.30664 21.2541 7.98556 20.4491 7.67485 19.6441C8.07878 18.1805 8.53449 16.7273 9.06271 15.3055C8.41021 15.3682 7.75771 15.4414 7.11556 15.525C7.01199 15.8073 6.90842 16.0791 6.81521 16.3614C6.72199 16.6436 6.81521 16.79 6.62878 16.8527C6.44235 16.9155 6.62878 16.79 6.62878 16.7691C6.58664 16.5783 6.53478 16.3899 6.47342 16.2045C6.36985 15.9014 6.19378 15.6818 5.87271 15.7236C5.36521 15.8073 4.83699 15.9014 4.33985 16.0059C3.91857 18.0296 3.67252 20.0864 3.60449 22.1532L5.35485 22.1009C5.35485 21.6305 5.35485 21.1705 5.41699 20.7C5.41699 20.4805 5.41699 20.2714 5.41699 20.0518V19.9995V19.9055C5.41699 19.9055 5.41699 19.9055 5.41699 19.9577C5.41699 20.01 5.52056 20.2923 5.57235 20.47C5.74842 21.0136 5.95556 21.5155 6.17306 22.08H8.57592" fill="#346139"/>
<path d="M14.2202 22.0277V16.2045C14.2208 15.9201 14.114 15.6461 13.9216 15.4383C13.7293 15.2305 13.4657 15.1045 13.1845 15.0859C11.9347 15.0859 10.6815 15.1486 9.42484 15.2741C9.32127 16.1732 9.23841 17.0827 9.17627 17.9818L11.2477 17.8982C11.4859 17.8982 11.5895 18.0655 11.5895 18.3059C11.5895 19.55 11.517 20.7836 11.4963 22.0277H14.1477" fill="#346139"/>
<path d="M22.4438 20.9091C22.3709 19.1576 22.1945 17.4121 21.9156 15.6818L20.0824 15.4414C20.2274 16.5809 20.331 17.7205 20.4035 18.8705C20.4035 19.1005 20.3413 19.2782 20.1031 19.2782H19.8752C19.8027 17.9923 19.6992 16.6959 19.5542 15.41C18.881 15.3473 18.2077 15.2845 17.4827 15.2427C17.576 16.56 17.6381 17.8668 17.6795 19.1841C17.3585 19.1841 17.0788 19.1214 17.0477 18.7241C17.0477 17.5532 16.9752 16.3823 16.9027 15.2114C16.1985 15.2114 15.4942 15.1591 14.8313 15.1486C14.8313 16.9991 14.8313 18.8495 14.8313 20.7105C14.8172 21.0418 14.9245 21.3667 15.1328 21.6232C15.341 21.8797 15.6356 22.0498 15.9602 22.1009C17.8245 22.1009 19.6888 22.1323 21.5531 22.195C22.1745 22.195 22.4438 21.505 22.4335 20.93" fill="#346139"/>
<path d="M24.7123 19.4141C24.6294 18.63 24.5258 17.8564 24.3912 17.0827C24.3573 16.82 24.2524 16.5717 24.088 16.3652C23.9236 16.1586 23.706 16.0018 23.4591 15.9118L22.4233 15.7132C22.6201 16.8736 22.7651 18.0445 22.8687 19.2155C23.4901 19.2677 24.1219 19.3409 24.7537 19.4141" fill="#346139"/>
<path d="M28.42 22.4145C28.42 21.5991 28.3372 20.7836 28.244 19.9786L27.9643 19.9159L27.8711 19.2886C27.8711 19.09 27.809 18.8914 27.7779 18.6823C27.7468 18.4732 27.6847 18.1282 27.6225 17.8459C27.5884 17.6126 27.5015 17.3903 27.3686 17.1963C27.2357 17.0024 27.0603 16.8419 26.8561 16.7273C26.1104 16.4973 25.3543 16.2986 24.5879 16.1209C24.7536 16.9364 24.8986 17.7727 25.0022 18.5986L26.3486 18.8286C26.5143 18.8286 26.5661 19.0586 26.5972 19.2259C26.6282 19.3932 26.5972 19.5186 26.649 19.665C26.1311 19.5814 25.6132 19.5082 25.1057 19.4455C25.199 20.3655 25.2507 21.2959 25.2818 22.2264L28.389 22.3936" fill="#346139"/>
<path d="M5.43746 14.6886C5.71886 13.5334 6.08584 12.4011 6.53531 11.3014C6.68031 10.8623 6.12103 10.9145 5.87246 10.9773C4.88796 11.2817 3.92584 11.6555 2.99317 12.0959C2.72388 12.5559 2.48567 13.0368 2.25781 13.5282C2.75496 13.2982 3.29353 13.0995 3.7596 12.9218C3.88388 12.9218 3.99781 12.9218 3.93567 13.0577C3.64505 13.7754 3.39267 14.5083 3.1796 15.2532C3.92531 15.0336 4.67103 14.8455 5.43746 14.6886Z" fill="#346139"/>
<path d="M13.6091 9.79591C12.7805 9.79591 11.952 9.85864 11.1234 9.94227C10.9609 10.0577 10.8115 10.1909 10.678 10.3395L10.098 10.0677C9.17522 10.192 8.25919 10.3629 7.35339 10.58C7.89196 10.8623 8.3891 11.1759 8.93803 11.5C9.11338 11.6085 9.29692 11.7029 9.48696 11.7823L9.88053 11.9286C9.88053 11.9286 9.9841 11.9286 9.9841 12.0123C9.9841 12.0959 9.84946 12.0855 9.78732 12.0959C9.24874 12.0959 8.7516 12.19 8.18196 12.2841C7.61232 12.3782 7.14624 12.4618 6.68017 12.5664C6.47303 13.225 6.29696 13.8836 6.1416 14.5527C8.48139 14.1351 10.8502 13.9044 13.2259 13.8627C13.2259 13.3086 13.2777 12.7545 13.2984 12.2005C13.2843 12.0768 13.24 11.9585 13.1695 11.8564C13.099 11.7542 13.0045 11.6713 12.8945 11.615L12.0659 11.1341C12.563 10.6636 13.1016 10.2245 13.6091 9.79591Z" fill="#346139"/>
<path d="M17.6069 13.9777C17.5034 12.8068 17.3687 11.6464 17.1823 10.4859C17.0373 9.97364 16.3434 9.86909 15.9187 9.83773C15.4941 9.80636 14.883 9.83773 14.3237 9.78545V13.8523C15.4319 13.8523 16.5298 13.8523 17.638 13.9777" fill="#346139"/>
<path d="M20.9318 12.4095C20.8075 11.9286 20.6625 11.4477 20.4968 10.9668C20.3593 10.7485 20.1737 10.5652 19.9546 10.431C19.7354 10.2968 19.4886 10.2154 19.2332 10.1932L17.7314 9.98409C17.8868 10.6532 18.0007 11.3223 18.1147 12.0018C19.0572 12.0959 19.9997 12.2318 20.9318 12.4095Z" fill="#346139"/>
<path d="M26.9803 15.1382C26.6889 14.3175 26.3429 13.5176 25.9446 12.7441C25.7012 12.3423 25.3389 12.0278 24.9088 11.845C23.5886 11.2886 22.2233 10.8479 20.8281 10.5277C21.0146 11.0086 21.1906 11.5 21.3563 11.9914L21.6256 12.0541C21.8846 12.8905 22.1124 13.7373 22.2988 14.5945C23.0549 14.7305 23.8006 14.8977 24.5463 15.0964C24.3465 14.262 24.1045 13.4385 23.8213 12.6291L24.3392 12.7964C24.4224 12.8199 24.4992 12.8623 24.5638 12.9202C24.6284 12.9782 24.6791 13.0502 24.7121 13.1309C24.8156 13.4027 24.5878 13.34 24.4117 13.2773C24.6396 13.915 24.8467 14.5527 25.0228 15.2114C25.5303 15.3473 26.0585 15.5145 26.5349 15.6818C27.0113 15.8491 27.0942 15.5041 26.9803 15.1382Z" fill="#346139"/>
</g>
<defs>
<clipPath id="clip0_44_153">
<rect width="29" height="23" fill="white"/>
</clipPath>
</defs>
</svg>
