<svg width="39" height="39" viewBox="0 0 39 39" fill="none" xmlns="http://www.w3.org/2000/svg">
<g clip-path="url(#clip0_44_236)">
<path d="M21.1381 20.7675C21.1284 20.9558 21.0644 21.1373 20.9536 21.2899C20.8429 21.4426 20.6903 21.5599 20.5143 21.6275C20.3383 21.6952 20.1464 21.7104 19.9619 21.6712C19.7775 21.632 19.6083 21.5402 19.475 21.4069C19.3416 21.2735 19.2498 21.1044 19.2107 20.9199C19.1715 20.7355 19.1867 20.5436 19.2543 20.3676C19.322 20.1916 19.4393 20.039 19.5919 19.9282C19.7446 19.8175 19.926 19.7534 20.1144 19.7437C20.2507 19.7367 20.3869 19.7584 20.5143 19.8074C20.6417 19.8564 20.7573 19.9315 20.8538 20.028C20.9503 20.1245 21.0255 20.2402 21.0745 20.3676C21.1234 20.495 21.1451 20.6312 21.1381 20.7675ZM19.5001 24.999C19.4982 25.3515 19.3919 25.6955 19.1947 25.9876C18.9975 26.2797 18.7181 26.5069 18.3919 26.6405C18.0657 26.774 17.7073 26.808 17.3618 26.738C17.0164 26.6681 16.6994 26.4974 16.4508 26.2475C16.2022 25.9975 16.0333 25.6796 15.9652 25.3338C15.8972 24.9879 15.9331 24.6297 16.0684 24.3042C16.2037 23.9787 16.4324 23.7007 16.7256 23.505C17.0188 23.3094 17.3634 23.205 17.7159 23.205C17.951 23.205 18.1838 23.2515 18.4009 23.3417C18.618 23.432 18.8152 23.5643 18.981 23.731C19.1468 23.8978 19.278 24.0956 19.3671 24.3132C19.4562 24.5308 19.5014 24.7639 19.5001 24.999Z" stroke="#346139" stroke-width="0.61" stroke-miterlimit="10"/>
<path d="M23.7707 11.5343H15.2297C15.0082 11.5343 14.7889 11.4906 14.5842 11.4059C14.3796 11.3211 14.1936 11.1968 14.037 11.0402C13.8804 10.8836 13.7561 10.6976 13.6714 10.493C13.5866 10.2883 13.543 10.069 13.543 9.8475C13.543 9.62599 13.5866 9.40666 13.6714 9.20201C13.7561 8.99736 13.8804 8.81142 14.037 8.65479C14.1936 8.49816 14.3796 8.37391 14.5842 8.28915C14.7889 8.20438 15.0082 8.16075 15.2297 8.16075H23.7707C24.2181 8.16075 24.6471 8.33846 24.9634 8.65479C25.2797 8.97112 25.4575 9.40015 25.4575 9.8475C25.4575 10.2949 25.2797 10.7239 24.9634 11.0402C24.6471 11.3565 24.2181 11.5343 23.7707 11.5343ZM24.6775 20.6505C24.19 20.007 23.7902 19.4903 23.5465 19.1198V11.5343H15.6002V19.1198L13.6502 21.8985C13.465 22.2105 13.153 22.6103 12.7922 23.0978C11.4175 24.843 9.27246 27.5925 9.27246 29.3085C9.27246 30.225 9.88671 30.8393 11.4467 30.8393H27.6512C29.1137 30.8393 29.6987 30.225 29.6987 29.2403C29.6987 27.0758 26.5787 23.0685 24.6775 20.6505Z" stroke="#346139" stroke-width="0.61" stroke-miterlimit="10"/>
<path d="M19.5002 37.6642C29.532 37.6642 37.6644 29.5318 37.6644 19.5C37.6644 9.46816 29.532 1.33575 19.5002 1.33575C9.46835 1.33575 1.33594 9.46816 1.33594 19.5C1.33594 29.5318 9.46835 37.6642 19.5002 37.6642Z" stroke="#346139" stroke-width="1.62" stroke-miterlimit="10"/>
<path d="M33.3545 7.371L5.64502 31.1415" stroke="#346139" stroke-width="1.62" stroke-miterlimit="10"/>
</g>
<defs>
<clipPath id="clip0_44_236">
<rect width="39" height="39" fill="white"/>
</clipPath>
</defs>
</svg>
