<svg width="39" height="28" viewBox="0 0 39 28" fill="none" xmlns="http://www.w3.org/2000/svg">
<g clip-path="url(#clip0_380_965)">
<mask id="mask0_380_965" style="mask-type:luminance" maskUnits="userSpaceOnUse" x="1" y="0" width="37" height="28">
<path d="M37.0606 0.622223H1.3208V27.3778H37.0606V0.622223Z" fill="white"/>
</mask>
<g mask="url(#mask0_380_965)">
<path d="M14.854 9.26074C14.854 8.45512 15.0972 7.66756 15.553 6.99757C16.0087 6.32757 16.6565 5.80519 17.4146 5.49642C18.1726 5.18765 19.0069 5.10634 19.812 5.26276C20.6171 5.41917 21.3569 5.8063 21.9379 6.37524C22.519 6.94418 22.9153 7.66941 23.0767 8.4593C23.238 9.2492 23.1573 10.0683 22.8447 10.8132C22.5321 11.5581 22.0016 12.1953 21.3202 12.6444C20.6388 13.0935 19.8371 13.3342 19.0164 13.3363C17.9153 13.3363 16.8592 12.9069 16.0806 12.1426C15.302 11.3783 14.8646 10.3416 14.8646 9.26074" fill="#00853F"/>
<path d="M14.854 9.26074C14.854 8.45512 15.0972 7.66756 15.553 6.99757C16.0087 6.32757 16.6565 5.80519 17.4146 5.49642C18.1726 5.18765 19.0069 5.10634 19.812 5.26276C20.6171 5.41917 21.3569 5.8063 21.9379 6.37524C22.519 6.94418 22.9153 7.66941 23.0767 8.4593C23.238 9.2492 23.1573 10.0683 22.8447 10.8132C22.5321 11.5581 22.0016 12.1953 21.3202 12.6444C20.6388 13.0935 19.8371 13.3342 19.0164 13.3363C18.4703 13.3377 17.9293 13.2333 17.4243 13.029C16.9194 12.8248 16.4604 12.5249 16.0738 12.1463C15.6871 11.7677 15.3804 11.3179 15.1711 10.8228C14.9617 10.3276 14.854 9.79683 14.854 9.26074Z" stroke="#00853F" stroke-width="0.02" stroke-miterlimit="3.86"/>
<path d="M16.3013 7.12444C16.5027 7.42803 16.7566 7.69475 17.0514 7.91259C17.5374 8.2963 17.96 8.26519 18.4882 8.58667C18.7603 8.7486 19.0183 8.93244 19.2594 9.1363C19.2076 8.74072 19.1794 8.34251 19.1749 7.9437C19.1259 7.67163 19.1554 7.39154 19.2599 7.13502C19.3645 6.87849 19.5399 6.65573 19.7665 6.49185C20.2225 6.20483 20.7327 6.01085 21.2667 5.92148C21.4589 5.88445 21.6407 5.80684 21.7994 5.69403C21.9581 5.58123 22.09 5.43591 22.1858 5.26815C22.2706 5.53347 22.2956 5.81372 22.2591 6.08948C22.2226 6.36524 22.1255 6.62992 21.9745 6.86519C21.6525 7.36486 21.1572 7.73324 20.58 7.90222C19.7771 8.28593 19.4284 8.49333 19.2594 9.14667C19.53 9.57752 19.6962 10.0636 19.7454 10.5674C19.7815 11.0549 19.7388 11.5449 19.6186 12.0193C19.5378 12.4642 19.4176 12.9015 19.2594 13.3259H19.0164C19.1098 13.0856 19.1874 12.8397 19.2488 12.5896C19.3168 12.328 19.3592 12.0606 19.3756 11.7911C18.7946 11.2207 18.372 11.2415 17.7909 10.8059C17.2099 10.3704 16.6077 10.1526 16.2697 9.43704C16.0869 9.08406 15.9962 8.69213 16.0055 8.2963C16.0073 7.90127 16.1089 7.51286 16.3013 7.16593" fill="white"/>
<path d="M16.3013 7.12444C16.5027 7.42802 16.7566 7.69475 17.0514 7.91259C17.5374 8.2963 17.96 8.26519 18.4882 8.58667C18.7603 8.7486 19.0183 8.93244 19.2594 9.1363C19.2076 8.74072 19.1794 8.34251 19.1749 7.9437C19.1259 7.67163 19.1554 7.39154 19.2599 7.13502C19.3645 6.87849 19.5399 6.65573 19.7665 6.49185C20.2225 6.20483 20.7327 6.01085 21.2667 5.92148C21.4589 5.88445 21.6407 5.80684 21.7994 5.69403C21.9581 5.58123 22.09 5.43591 22.1858 5.26815C22.2706 5.53347 22.2956 5.81372 22.2591 6.08948C22.2226 6.36524 22.1255 6.62992 21.9745 6.86519C21.6525 7.36486 21.1572 7.73324 20.58 7.90222C19.7771 8.28593 19.4284 8.49333 19.2594 9.14667C19.53 9.57752 19.6962 10.0636 19.7454 10.5674C19.7815 11.0549 19.7388 11.5449 19.6186 12.0193C19.5378 12.4642 19.4176 12.9015 19.2594 13.3259H19.0164C19.1098 13.0856 19.1874 12.8397 19.2488 12.5896C19.3168 12.328 19.3592 12.0606 19.3756 11.7911C18.7946 11.2207 18.372 11.2415 17.7909 10.8059C17.2099 10.3704 16.6077 10.1526 16.2697 9.43704C16.0869 9.08406 15.9962 8.69213 16.0055 8.2963C16.0001 7.88724 16.102 7.4837 16.3013 7.12444Z" stroke="white" stroke-width="0.02" stroke-miterlimit="3.86"/>
<path d="M16.6079 8.19259C16.8032 8.50956 17.0577 8.7875 17.358 9.01185C17.8757 9.47852 18.4144 9.44741 18.8476 10.0489C18.9942 10.178 19.1079 10.3391 19.1795 10.5192C19.251 10.6994 19.2785 10.8935 19.2596 11.0859C19.1502 10.7579 18.9489 10.4667 18.6786 10.2459C18.1609 9.66519 17.4848 9.65482 17.0094 9.11556C16.8825 9.00066 16.7812 8.86113 16.7121 8.70583C16.643 8.55052 16.6075 8.38281 16.6079 8.21334" fill="#00853F"/>
<path d="M16.6076 8.19259C16.803 8.50956 17.0574 8.7875 17.3577 9.01185C17.8754 9.47852 18.4142 9.44741 18.8473 10.0489C18.994 10.178 19.1076 10.3391 19.1792 10.5192C19.2508 10.6994 19.2782 10.8935 19.2593 11.0859C19.15 10.7579 18.9486 10.4667 18.6783 10.2459C18.1606 9.66519 17.4845 9.65482 17.0091 9.11556C16.8795 8.99831 16.7768 8.85543 16.7076 8.69633C16.6384 8.53724 16.6043 8.36555 16.6076 8.19259Z" stroke="#00853F" stroke-width="0.02" stroke-miterlimit="3.86"/>
<path d="M22.0381 5.75556C21.8613 5.97671 21.6469 6.16618 21.4043 6.31556C20.9817 6.62667 20.5908 6.56444 20.2105 6.93778C20.0907 7.02793 19.994 7.14421 19.928 7.27741C19.862 7.41061 19.8285 7.55707 19.8301 7.70519C19.935 7.46577 20.1072 7.2607 20.3267 7.11407C20.7598 6.72 21.2669 6.77185 21.6578 6.39852C21.7631 6.32309 21.8514 6.22698 21.9168 6.11629C21.9823 6.0056 22.0236 5.88276 22.0381 5.75556Z" fill="#00853F"/>
<path d="M22.0381 5.75556C21.8613 5.97671 21.6469 6.16618 21.4043 6.31556C20.9817 6.62667 20.5908 6.56444 20.2105 6.93778C20.0907 7.02793 19.994 7.14421 19.928 7.27741C19.862 7.41061 19.8285 7.55707 19.8301 7.70519C19.935 7.46577 20.1072 7.2607 20.3267 7.11407C20.7598 6.72 21.2669 6.77185 21.6578 6.39852C21.7631 6.32309 21.8514 6.22698 21.9168 6.11629C21.9823 6.0056 22.0236 5.88276 22.0381 5.75556Z" stroke="#00853F" stroke-width="0.02" stroke-miterlimit="3.86"/>
</g>
<path d="M14.4837 7.1763L14.7267 6.64741H15.0225L15.1704 6.32593L13.7337 6.29482L13.5752 6.63704L14.5471 7.67407L14.695 7.36296L14.4837 7.1763ZM13.9133 6.59556H14.4837L14.3041 6.95852L13.9133 6.59556Z" fill="#231F20"/>
<mask id="mask1_380_965" style="mask-type:luminance" maskUnits="userSpaceOnUse" x="1" y="0" width="37" height="28">
<path d="M37.0606 0.622223H1.3208V27.3778H37.0606V0.622223Z" fill="white"/>
</mask>
<g mask="url(#mask1_380_965)">
<path d="M16.048 4.95704L16.3543 4.74963C16.386 4.83088 16.3887 4.92029 16.3618 5.0032C16.3349 5.08611 16.2801 5.1576 16.2064 5.20593C16.1595 5.24637 16.104 5.27611 16.044 5.29299C15.984 5.30987 15.9209 5.31349 15.8593 5.30357C15.7976 5.29365 15.739 5.27045 15.6876 5.23564C15.6362 5.20082 15.5933 5.15526 15.562 5.10222C15.5202 5.05593 15.4892 5.00125 15.4711 4.94198C15.4531 4.88271 15.4484 4.82029 15.4575 4.75907C15.4665 4.69785 15.4891 4.6393 15.5235 4.58752C15.558 4.53574 15.6036 4.49197 15.6571 4.45926C15.7196 4.41824 15.7932 4.39634 15.8684 4.39634C15.9436 4.39634 16.0171 4.41824 16.0797 4.45926L16.3543 4.27259C16.2276 4.13778 15.9212 4.03407 15.5092 4.27259C15.4167 4.31832 15.3357 4.38372 15.2721 4.46403C15.2086 4.54434 15.164 4.63754 15.1418 4.73686C15.1195 4.83618 15.1201 4.93912 15.1434 5.0382C15.1668 5.13728 15.2123 5.23 15.2768 5.30963C15.3301 5.38732 15.3994 5.45322 15.4802 5.50315C15.561 5.55307 15.6515 5.58591 15.746 5.59957C15.8404 5.61323 15.9367 5.60742 16.0287 5.58249C16.1207 5.55757 16.2065 5.51408 16.2804 5.45481C16.3607 5.40715 16.4291 5.34229 16.4803 5.26507C16.5315 5.18786 16.5643 5.10028 16.5762 5.00889L16.703 5.12296L16.9037 4.97778L16.4917 4.40741L15.9423 4.78074L16.048 4.95704Z" fill="#231F20"/>
<path d="M17.823 4.64593H18.1505L18.0977 4.14815H18.4358C18.6893 4.14815 18.7104 4.14815 18.7316 4.36593C18.7334 4.45583 18.755 4.54428 18.795 4.62519H19.1541C19.0802 4.62519 19.0802 4.56296 19.0591 4.36593C19.0379 4.16889 18.9534 4.0963 18.8161 4.06519C18.8659 4.05152 18.9119 4.02682 18.9505 3.99297C18.989 3.95912 19.0192 3.91703 19.0386 3.86994C19.058 3.82286 19.0661 3.77203 19.0623 3.72138C19.0585 3.67072 19.043 3.6216 19.0168 3.57778C19.0168 3.4637 18.89 3.21482 18.4675 3.26667L17.6646 3.34963L17.823 4.64593ZM18.0766 3.88889V3.5363H18.4886C18.6893 3.5363 18.7421 3.60889 18.7421 3.68148C18.7421 3.75407 18.6787 3.86815 18.5097 3.88889H18.0766Z" fill="#231F20"/>
</g>
<path d="M20.3934 3.37686L20.0718 4.64483L20.3998 4.725L20.7214 3.45703L20.3934 3.37686Z" fill="#231F20"/>
<mask id="mask2_380_965" style="mask-type:luminance" maskUnits="userSpaceOnUse" x="1" y="0" width="37" height="28">
<path d="M37.0606 0.622223H1.3208V27.3778H37.0606V0.622223Z" fill="white"/>
</mask>
<g mask="url(#mask2_380_965)">
<path d="M21.6683 4.46963C21.603 4.54791 21.5563 4.63941 21.5314 4.73754C21.5065 4.83567 21.5041 4.93799 21.5243 5.03715C21.5445 5.13632 21.5868 5.22985 21.6483 5.31103C21.7097 5.39222 21.7887 5.45903 21.8795 5.50667C21.953 5.57483 22.0407 5.62649 22.1366 5.65806C22.2324 5.68963 22.3341 5.70037 22.4346 5.68951C22.5351 5.67866 22.632 5.64649 22.7186 5.59522C22.8052 5.54394 22.8794 5.47481 22.936 5.39259C22.9994 5.31362 23.0446 5.22208 23.0685 5.1243C23.0923 5.02651 23.0943 4.9248 23.0742 4.8262C23.0541 4.7276 23.0124 4.63446 22.9521 4.5532C22.8918 4.47194 22.8142 4.40451 22.7247 4.35556C22.6504 4.28902 22.5625 4.23878 22.4669 4.2082C22.3713 4.17761 22.2702 4.16737 22.1702 4.17816C22.0702 4.18896 21.9738 4.22053 21.8872 4.27079C21.8007 4.32105 21.726 4.38883 21.6683 4.46963ZM21.9324 4.66667C21.962 4.6137 22.0031 4.56773 22.0528 4.53199C22.1024 4.49624 22.1594 4.47158 22.2198 4.45972C22.2802 4.44787 22.3425 4.44911 22.4023 4.46336C22.4622 4.47761 22.5181 4.50453 22.5662 4.54222C22.6177 4.57452 22.6612 4.61764 22.6936 4.66847C22.726 4.7193 22.7465 4.77656 22.7536 4.83612C22.7606 4.89567 22.7541 4.95602 22.7345 5.01281C22.7149 5.06959 22.6827 5.12139 22.6402 5.16445C22.6117 5.21715 22.5716 5.26301 22.5229 5.29873C22.4742 5.33444 22.418 5.35914 22.3584 5.37103C22.2989 5.38293 22.2373 5.38173 22.1783 5.36753C22.1192 5.35333 22.0641 5.32647 22.0169 5.28889C21.9661 5.25625 21.9231 5.21326 21.8908 5.16285C21.8585 5.11244 21.8376 5.05579 21.8296 4.99676C21.8216 4.93772 21.8266 4.87768 21.8444 4.82072C21.8621 4.76377 21.8921 4.71122 21.9324 4.66667Z" fill="#231F20"/>
<path d="M23.084 6.66815L23.2002 6.95852L23.6862 6.78222L23.8129 7.09333C23.908 7.32148 23.8129 7.36296 23.6756 7.42519C23.589 7.45519 23.5072 7.49709 23.4326 7.54963L23.57 7.89185C23.57 7.81926 23.57 7.79852 23.7918 7.72593C24.0137 7.65333 24.0348 7.56 24.0348 7.42519C24.074 7.4855 24.1338 7.53012 24.2035 7.55103C24.2732 7.57194 24.3483 7.56776 24.4151 7.53926C24.5208 7.53926 24.7426 7.33185 24.5841 6.94815L24.2989 6.22222L23.084 6.66815ZM23.8975 6.66815L24.2355 6.5437L24.3834 6.92741C24.4574 7.1037 24.3834 7.1763 24.3095 7.19704C24.2355 7.21778 24.1087 7.19704 24.0454 7.03111L23.8975 6.66815Z" fill="#231F20"/>
<path d="M14.3365 12.8904L14.9598 12.5274C15.0788 12.478 15.1736 12.385 15.2239 12.2681C15.2462 12.1691 15.2455 12.0663 15.2217 11.9675C15.1979 11.8688 15.1517 11.7766 15.0865 11.6978L14.8753 11.3348L14.6534 11.4696L14.833 11.7807C14.8668 11.8185 14.891 11.8635 14.9039 11.9121C14.9167 11.9607 14.9178 12.0116 14.907 12.0607C14.907 12.1437 14.8013 12.1748 14.7168 12.2267L14.1357 12.5689L14.3365 12.8904Z" fill="#231F20"/>
</g>
<path d="M15.905 12.7224L15.084 13.6842L15.3836 13.9306L16.2046 12.9688L15.905 12.7224Z" fill="#231F20"/>
<mask id="mask3_380_965" style="mask-type:luminance" maskUnits="userSpaceOnUse" x="1" y="0" width="37" height="28">
<path d="M37.0606 0.622223H1.3208V27.3778H37.0606V0.622223Z" fill="white"/>
</mask>
<g mask="url(#mask3_380_965)">
<path d="M16.6713 13.357L16.7769 13.5748L16.872 13.8237V13.8859C16.7533 13.9041 16.6409 13.9504 16.5445 14.0207C16.4364 14.1182 16.3594 14.2442 16.3227 14.3837L16.2593 14.5496L16.6396 14.6844L16.7452 14.3941C16.7691 14.3147 16.8086 14.2407 16.8615 14.1763C16.9248 14.1244 16.9671 14.1037 16.9671 14.1141C16.9671 14.1141 17.0305 14.28 17.0727 14.4044C17.115 14.5289 17.1573 14.6844 17.1995 14.8504L17.6327 15.0059C17.6327 14.9126 17.6327 14.8504 17.5587 14.757L17.4636 14.4459C17.5912 14.4372 17.7129 14.3901 17.8123 14.3111C17.8887 14.2409 17.9436 14.1511 17.9707 14.0519L18.0447 13.8548L17.6538 13.72L17.5587 13.9793C17.5431 14.038 17.5181 14.094 17.4848 14.1452C17.4848 14.2178 17.3791 14.2178 17.3791 14.2178L17.2206 13.8133C17.2206 13.6993 17.1467 13.6267 17.0939 13.5126L16.6713 13.357Z" fill="#231F20"/>
</g>
<path d="M18.7627 14.6741L19.1536 14.6015L19.1641 13.8756H18.7733L18.7627 14.6741Z" fill="#231F20"/>
<mask id="mask4_380_965" style="mask-type:luminance" maskUnits="userSpaceOnUse" x="1" y="0" width="37" height="28">
<path d="M37.0606 0.622223H1.3208V27.3778H37.0606V0.622223Z" fill="white"/>
</mask>
<g mask="url(#mask4_380_965)">
<path d="M21.2454 14.7156L21.0341 14.0311C21.0144 13.9042 20.9464 13.7894 20.844 13.7096C20.7492 13.6682 20.6466 13.6467 20.5429 13.6467C20.4391 13.6467 20.3365 13.6682 20.2418 13.7096L19.8403 13.8341L19.9143 14.0726L20.2735 13.9689C20.3193 13.9461 20.37 13.9342 20.4214 13.9342C20.4728 13.9342 20.5234 13.9461 20.5693 13.9689C20.6327 13.9689 20.6432 14.0933 20.6749 14.1867L20.8757 14.8193L21.2454 14.7156Z" fill="#231F20"/>
<path d="M22.3339 13.2015L22.186 13.0459C22.1538 13.0076 22.1135 12.9766 22.0679 12.9552C22.0223 12.9337 21.9725 12.9222 21.9219 12.9215C21.7869 12.9369 21.6608 12.9951 21.5627 13.0874L21.3408 13.243L21.4993 13.4504L21.7317 13.2741C21.7627 13.2645 21.7958 13.2645 21.8268 13.2741C21.8417 13.2675 21.8579 13.2641 21.8743 13.2641C21.8907 13.2641 21.9069 13.2675 21.9219 13.2741L22.0064 13.3881C22.0698 13.4711 22.0064 13.6163 22.0064 13.7407C21.9833 13.8355 21.9551 13.9289 21.9219 14.0207L22.1332 14.3007C22.1803 14.1842 22.2122 14.0622 22.2282 13.9378C22.2388 13.8482 22.2388 13.7577 22.2282 13.6681L22.3761 13.8237L22.5029 13.9378L22.8199 13.7096L22.6719 13.5956C22.5374 13.4674 22.4137 13.3287 22.3022 13.1807" fill="#231F20"/>
<path d="M22.4395 12.4444L22.6824 12.3822L22.9466 12.32H23.0205C23.0205 12.4391 23.0495 12.5564 23.105 12.6622C23.1846 12.7844 23.2983 12.8816 23.4325 12.9422L23.591 13.0252L23.7917 12.6726L23.5065 12.4444C23.4295 12.4112 23.3609 12.3616 23.3057 12.2993C23.3008 12.2649 23.3008 12.23 23.3057 12.1956L23.6227 12.1333L24.0875 12.0815L24.3094 11.6874H24.0453H23.7178C23.7279 11.5641 23.6983 11.4408 23.6332 11.3348C23.576 11.2492 23.4955 11.1809 23.4008 11.1378L23.2107 11.0341L23.0099 11.3867L23.2529 11.5215C23.3118 11.5461 23.3656 11.5813 23.4114 11.6252C23.4316 11.6366 23.4483 11.6533 23.4595 11.6735C23.4706 11.6936 23.4759 11.7164 23.4748 11.7393L23.0416 11.8326L22.7247 11.9052L22.4395 12.4444Z" fill="#231F20"/>
<path d="M25.4504 4.98815C26.1284 5.43408 26.6876 6.03315 27.081 6.73508C27.4744 7.43702 27.6905 8.22134 27.7112 9.02222C27.6848 9.88348 27.4352 10.7239 26.986 11.4642C26.5368 12.2045 25.9029 12.8203 25.144 13.2533C25.7767 12.7378 26.2849 12.0908 26.632 11.3592C26.9791 10.6275 27.1565 9.82933 27.1513 9.02222C27.1719 8.27031 27.0312 7.52255 26.7381 6.82754C26.4451 6.13253 26.0063 5.50582 25.4504 4.98815Z" fill="#00853F"/>
<path d="M13.2694 4.97778C12.588 5.42355 12.0259 6.02376 11.6305 6.7277C11.2352 7.43164 11.0183 8.21864 10.998 9.02222C11.0245 9.88348 11.2741 10.7239 11.7233 11.4642C12.1724 12.2045 12.8064 12.8203 13.5652 13.2533C12.9343 12.7363 12.4273 12.0891 12.0803 11.3578C11.7334 10.6264 11.555 9.82897 11.558 9.02222C11.5398 8.26816 11.6828 7.51872 11.9775 6.82215C12.2723 6.12558 12.7124 5.49731 13.2694 4.97778Z" fill="#00853F"/>
<path d="M7.39551 8.8563C7.39551 8.74903 7.43892 8.64616 7.51618 8.57031C7.59345 8.49446 7.69825 8.45185 7.80752 8.45185C7.9168 8.45185 8.0216 8.49446 8.09886 8.57031C8.17613 8.64616 8.21954 8.74903 8.21954 8.8563C8.21954 8.96356 8.17613 9.06644 8.09886 9.14228C8.0216 9.21813 7.9168 9.26074 7.80752 9.26074C7.69825 9.26074 7.59345 9.21813 7.51618 9.14228C7.43892 9.06644 7.39551 8.96356 7.39551 8.8563Z" fill="#231F20"/>
<path d="M30.1408 8.8563C30.1408 8.77631 30.1649 8.69811 30.2102 8.6316C30.2555 8.56509 30.3198 8.51325 30.3951 8.48264C30.4704 8.45203 30.5532 8.44402 30.6332 8.45962C30.7131 8.47523 30.7865 8.51375 30.8441 8.57031C30.9017 8.62688 30.941 8.69894 30.9569 8.77739C30.9728 8.85585 30.9646 8.93717 30.9334 9.01107C30.9023 9.08497 30.8494 9.14814 30.7817 9.19258C30.7139 9.23702 30.6343 9.26074 30.5528 9.26074C30.4983 9.26217 30.4441 9.25268 30.3934 9.23286C30.3428 9.21304 30.2968 9.18331 30.2582 9.14546C30.2197 9.10762 30.1894 9.06246 30.1692 9.01274C30.149 8.96303 30.1393 8.9098 30.1408 8.8563Z" fill="#231F20"/>
</g>
<path d="M7.04639 6.8237L8.58881 7.12444L8.83179 6.25333L7.44784 5.9837L7.04639 6.8237Z" fill="#00853F"/>
<mask id="mask5_380_965" style="mask-type:luminance" maskUnits="userSpaceOnUse" x="1" y="0" width="37" height="28">
<path d="M37.0606 0.622223H1.3208V27.3778H37.0606V0.622223Z" fill="white"/>
</mask>
<g mask="url(#mask5_380_965)">
<path d="M10.9347 4.56296L10.0895 5.23704L10.491 5.44445L12.2024 4.08593L10.9136 3.42222C10.7867 3.35595 10.6452 3.32129 10.5015 3.32129C10.3578 3.32129 10.2164 3.35595 10.0895 3.42222C9.70243 3.56622 9.34466 3.77694 9.03307 4.04445L8.58936 4.39704L8.98024 4.60445L9.37113 4.29333C9.46081 4.22393 9.5605 4.16801 9.66694 4.12741C9.70837 4.10877 9.75341 4.09912 9.79899 4.09912C9.84457 4.09912 9.88962 4.10877 9.93105 4.12741L10.9347 4.56296Z" fill="#00853F"/>
<path d="M15.7414 1.71111L15.5935 1.47259C15.5099 1.4018 15.4124 1.34869 15.3069 1.31657C15.2015 1.28445 15.0905 1.27402 14.9808 1.28593C14.5246 1.3127 14.0737 1.39633 13.6391 1.53481L12.7622 1.77333L12.9629 2.08444L13.9137 1.82518C14.0188 1.80954 14.1256 1.80954 14.2307 1.82518C14.2724 1.82102 14.3146 1.82531 14.3546 1.8378C14.3945 1.85029 14.4315 1.8707 14.4631 1.89778L14.5687 2.0637C14.6533 2.17778 14.3152 2.40593 14.0722 2.58222C13.8292 2.75852 13.4489 2.99704 13.4489 2.99704L13.7236 3.41185C13.9941 3.25644 14.2489 3.07586 14.4842 2.87259C14.6297 2.75991 14.7578 2.62718 14.8645 2.47852C14.9403 2.55978 15.0215 2.636 15.1075 2.70667C15.192 2.77926 15.3083 2.84148 15.34 2.87259L16.5971 2.53037C16.5971 2.53037 16.4387 2.44741 16.3225 2.36444C16.0983 2.19055 15.9024 1.98425 15.7414 1.75259" fill="#00853F"/>
<path d="M22.1859 2.53037L22.3655 1.60741C22.3822 1.56111 22.3895 1.51203 22.3869 1.46297C22.3842 1.41391 22.3718 1.36585 22.3502 1.32154C22.3286 1.27722 22.2983 1.23752 22.261 1.20472C22.2238 1.17191 22.1803 1.14665 22.1331 1.13037C21.5097 0.877037 20.8427 0.743268 20.1681 0.736297L18.6996 0.622223L18.6362 0.954075L19.9145 1.03704C20.2446 1.04434 20.5705 1.11113 20.8759 1.23407C21.0344 1.33778 20.9921 1.43111 20.971 1.55556L20.802 2.40593L22.1859 2.53037Z" fill="#00853F"/>
</g>
<path d="M25.2177 1.73185L23.876 3.10074L25.0486 3.56741L26.3798 2.19852L25.2177 1.73185Z" fill="#00853F"/>
<mask id="mask6_380_965" style="mask-type:luminance" maskUnits="userSpaceOnUse" x="1" y="0" width="37" height="28">
<path d="M37.0606 0.622223H1.3208V27.3778H37.0606V0.622223Z" fill="white"/>
</mask>
<g mask="url(#mask6_380_965)">
<path d="M28.8201 3.39111C28.8201 3.39111 28.8201 3.67111 28.8201 3.83704C28.8201 4.00296 28.8201 4.28296 28.7673 4.33481V4.45926C28.502 4.29223 28.2139 4.16303 27.9116 4.07556C27.6136 4.02266 27.3066 4.05137 27.0241 4.15852L26.7178 4.27259L27.3939 5.08148L27.9433 4.89481C28.0995 4.82827 28.2699 4.79981 28.4398 4.81185C28.5407 4.8219 28.6381 4.85377 28.725 4.90519V4.98815C28.725 5.07111 28.725 5.30963 28.63 5.53778C28.57 5.80069 28.4959 6.0603 28.4081 6.31556L29.1687 7.22815C29.2216 7.06222 29.2427 6.95852 29.285 6.79259C29.3272 6.62667 29.4012 6.28444 29.4117 6.24296V6.17037C29.675 6.35673 29.9729 6.49061 30.2886 6.56444C30.5024 6.60497 30.7238 6.57961 30.9225 6.49185L31.2922 6.36741L30.6372 5.55852L30.1512 5.72444C30.0436 5.76909 29.9296 5.79707 29.8132 5.80741C29.7006 5.82051 29.5872 5.79082 29.4962 5.72444C29.4962 5.72444 29.5702 5.24741 29.6019 4.94667C29.6336 4.64593 29.6019 4.59407 29.6547 4.36593L28.8201 3.39111Z" fill="#00853F"/>
<path d="M7.81796 12.123L8.58917 11.7704C8.72607 11.7197 8.8465 11.6337 8.9378 11.5215C8.98681 11.4341 9.01252 11.336 9.01252 11.2363C9.01252 11.1366 8.98681 11.0385 8.9378 10.9511L8.76877 10.6089L8.45183 10.7333L8.59973 11.0341C8.62585 11.0763 8.63966 11.1247 8.63966 11.1741C8.63966 11.2234 8.62585 11.2719 8.59973 11.3141C8.53286 11.3846 8.44945 11.438 8.35675 11.4696L7.64893 11.7911L7.81796 12.123Z" fill="#00853F"/>
</g>
<path d="M9.77508 12.3574L8.625 13.2703L8.85085 13.5445L10.0009 12.6316L9.77508 12.3574Z" fill="#00853F"/>
<mask id="mask7_380_965" style="mask-type:luminance" maskUnits="userSpaceOnUse" x="1" y="0" width="37" height="28">
<path d="M37.0606 0.622223H1.3208V27.3778H37.0606V0.622223Z" fill="white"/>
</mask>
<g mask="url(#mask7_380_965)">
<path d="M10.7445 13.3881L10.3325 13.9378C10.2497 14.0164 10.1865 14.1127 10.1477 14.2192C10.109 14.3257 10.0957 14.4395 10.109 14.5518C10.1223 14.6641 10.1617 14.7719 10.2243 14.8669C10.2869 14.9618 10.3709 15.0413 10.4698 15.0993C10.6357 15.233 10.8473 15.2997 11.0614 15.2859C11.3995 15.2341 11.5263 15.12 11.8432 14.7052L12.0968 14.3837L11.8115 14.1763L11.558 14.5081C11.2939 14.8504 11.1882 14.9333 11.0509 14.9644C10.9814 14.9866 10.9075 14.9915 10.8356 14.9788C10.7637 14.9662 10.6962 14.9363 10.6389 14.8919C10.5618 14.8408 10.503 14.7673 10.4708 14.6817C10.4386 14.5961 10.4345 14.5028 10.4593 14.4148C10.5276 14.4709 10.6069 14.5127 10.6923 14.5376C10.7777 14.5626 10.8673 14.5702 10.9558 14.56C11.1063 14.5133 11.2389 14.4229 11.3361 14.3007L11.5685 13.9896L11.2833 13.7822L11.0192 14.1141C10.989 14.1655 10.9461 14.2087 10.8943 14.2395C10.8426 14.2703 10.7838 14.2878 10.7234 14.2904C10.6678 14.3036 10.6099 14.3036 10.5544 14.2904L11.0403 13.6474L10.7445 13.3881Z" fill="#00853F"/>
</g>
<path d="M12.7197 15.7526L13.0895 15.8356L13.4698 15.0889L13.1529 14.923L12.7197 15.7526Z" fill="#00853F"/>
<mask id="mask8_380_965" style="mask-type:luminance" maskUnits="userSpaceOnUse" x="1" y="0" width="37" height="28">
<path d="M37.0606 0.622223H1.3208V27.3778H37.0606V0.622223Z" fill="white"/>
</mask>
<g mask="url(#mask8_380_965)">
<path d="M14.484 15.4933C14.5101 15.5715 14.5419 15.6477 14.5791 15.7215C14.5791 15.8252 14.6636 15.9704 14.6741 16.0015V16.0741C14.5556 16.1123 14.4473 16.176 14.3572 16.2607C14.2562 16.3949 14.181 16.546 14.1353 16.7067L14.0825 16.9037L14.4417 17.0074L14.5474 16.6652C14.5711 16.573 14.6103 16.4854 14.6636 16.4059L14.7586 16.3126C14.8001 16.4167 14.8319 16.5243 14.8537 16.6341C14.9024 16.7941 14.9412 16.9569 14.9699 17.1215L15.382 17.2459C15.382 17.1422 15.382 17.0696 15.3186 16.9763C15.2552 16.883 15.2341 16.6652 15.2235 16.6341V16.5926C15.3508 16.5617 15.4652 16.4929 15.551 16.3956C15.6287 16.306 15.6831 16.1992 15.7095 16.0844L15.7834 15.8459L15.4137 15.7422L15.3186 16.043C15.3034 16.115 15.2785 16.1848 15.2446 16.2504C15.2446 16.3333 15.1495 16.3437 15.1495 16.3437L15.0016 15.8978L14.8854 15.5763L14.484 15.4933Z" fill="#00853F"/>
<path d="M18.9107 16.4889C18.9055 16.5301 18.8904 16.5696 18.8665 16.6038C18.8426 16.6381 18.8106 16.6663 18.7733 16.6859C18.7099 16.603 18.6677 16.5304 18.6782 16.4785C18.6768 16.4627 18.6787 16.4467 18.6839 16.4317C18.689 16.4166 18.6974 16.4028 18.7083 16.3911C18.7193 16.3793 18.7326 16.37 18.7474 16.3636C18.7622 16.3573 18.7783 16.354 18.7945 16.3541C18.8123 16.3514 18.8305 16.3533 18.8474 16.3595C18.8643 16.3657 18.8793 16.3761 18.8909 16.3896C18.9026 16.4031 18.9105 16.4194 18.914 16.4367C18.9174 16.4541 18.9163 16.4721 18.9107 16.4889ZM19.2487 17.3911C19.3572 17.2532 19.4232 17.0876 19.4389 16.9141H19.1853C19.1785 17.0058 19.1495 17.0947 19.1008 17.1733L18.9001 16.883C18.9736 16.8501 19.0363 16.7978 19.0811 16.7318C19.1259 16.6658 19.1511 16.5889 19.1536 16.5096C19.1596 16.4622 19.1553 16.4141 19.1411 16.3684C19.1269 16.3226 19.1031 16.2803 19.0713 16.2442C19.0394 16.208 19.0002 16.1788 18.9562 16.1585C18.9122 16.1381 18.8643 16.127 18.8156 16.1259C18.7653 16.1217 18.7147 16.1276 18.6668 16.1432C18.6189 16.1589 18.5748 16.184 18.5372 16.217C18.4996 16.2501 18.4693 16.2903 18.4481 16.3353C18.427 16.3803 18.4154 16.429 18.4141 16.4785C18.417 16.6015 18.4575 16.7207 18.5303 16.8207C18.4406 16.8625 18.3651 16.9287 18.3126 17.0114C18.2602 17.0942 18.2331 17.19 18.2345 17.2874C18.2302 17.3468 18.2381 17.4065 18.2577 17.4629C18.2773 17.5192 18.3082 17.5712 18.3486 17.6157C18.3889 17.6601 18.438 17.6962 18.4928 17.7218C18.5476 17.7473 18.6071 17.7618 18.6677 17.7644C18.7471 17.7682 18.8263 17.7542 18.8995 17.7237C18.9727 17.6932 19.0379 17.6469 19.0903 17.5881L19.1748 17.7333H19.5234L19.2487 17.3911ZM18.9318 17.3911C18.8711 17.4542 18.7877 17.4914 18.6994 17.4948C18.6424 17.4921 18.5886 17.468 18.5493 17.4275C18.5099 17.3869 18.488 17.333 18.4881 17.277C18.4881 17.1422 18.5515 17.1007 18.6677 17.0074L18.9318 17.3911Z" fill="#00853F"/>
<path d="M22.0902 17.4844L22.4388 17.4015L22.1853 16.2711H22.4071C22.5339 16.2711 22.6184 16.2711 22.7029 16.2711C22.7875 16.2711 22.7769 16.3956 22.798 16.4889L22.9987 17.2978L23.3474 17.2148L23.1572 16.4059C23.1348 16.2672 23.0725 16.1377 22.9776 16.0326C22.9115 15.9704 22.8294 15.9269 22.7401 15.9069C22.6508 15.8868 22.5577 15.8908 22.4705 15.9185L21.7627 16.0844L22.0902 17.4844Z" fill="#00853F"/>
</g>
<path d="M24.5275 15.2428L24.1943 15.3747L24.7474 16.7212L25.0806 16.5893L24.5275 15.2428Z" fill="#00853F"/>
<path d="M25.7773 15.0059L26.6013 14.5185L26.9077 15.6904L27.2563 15.4933L26.9288 14.2904L26.7915 14.0622L25.6294 14.7467L25.7773 15.0059ZM25.9992 15.2963L26.6647 16.3852L26.9711 16.2089L26.2633 15.037L25.9992 15.2963Z" fill="#00853F"/>
<path d="M27.6475 13.3778L28.2813 14.0726L28.4821 13.7615L27.9116 13.1393L27.6475 13.3778Z" fill="#00853F"/>
<mask id="mask9_380_965" style="mask-type:luminance" maskUnits="userSpaceOnUse" x="1" y="0" width="37" height="28">
<path d="M37.0606 0.622223H1.3208V27.3778H37.0606V0.622223Z" fill="white"/>
</mask>
<g mask="url(#mask9_380_965)">
<path d="M29.2217 12.123C29.3802 11.9052 29.5281 11.843 29.8133 12.04C30.0986 12.237 30.0986 12.3926 29.9612 12.5896L29.6337 13.0356L29.8873 13.2015L30.2782 12.6519C30.3566 12.4919 30.3734 12.3095 30.3257 12.1383C30.2779 11.9671 30.1687 11.8186 30.0183 11.7201C29.8678 11.6216 29.6862 11.5798 29.5068 11.6024C29.3274 11.625 29.1624 11.7104 29.0421 11.843L28.6724 12.3719L29.0738 12.6519C29.122 12.6905 29.1779 12.7189 29.238 12.7349C29.2981 12.751 29.3609 12.7545 29.4224 12.7452C29.5556 12.6825 29.6581 12.5706 29.7077 12.4341L29.4964 12.2889C29.4964 12.2889 29.4964 12.3822 29.4224 12.3926C29.398 12.4053 29.3708 12.412 29.3432 12.412C29.3156 12.412 29.2884 12.4053 29.264 12.3926L29.1055 12.2889L29.2217 12.123Z" fill="#00853F"/>
<path d="M16.4808 20.077C16.4745 19.8194 16.5466 19.5658 16.6878 19.3486C16.8291 19.1313 17.033 18.9604 17.2737 18.8575C17.5144 18.7546 17.7808 18.7244 18.0391 18.7709C18.2973 18.8173 18.5355 18.9383 18.7234 19.1182C18.9113 19.2982 19.0402 19.5291 19.0938 19.7814C19.1474 20.0336 19.1231 20.2959 19.0242 20.5345C18.9252 20.7732 18.7561 20.9775 18.5383 21.1214C18.3205 21.2653 18.0639 21.3421 17.8014 21.3422C17.4558 21.345 17.123 21.2136 16.8757 20.9766C16.6283 20.7396 16.4864 20.4163 16.4808 20.077Z" stroke="#231F20" stroke-width="0.61" stroke-miterlimit="3.86"/>
</g>
<path d="M13.9661 22.1615L14.1245 22.6489H13.7865L13.9661 22.1615ZM13.8182 21.8815L13.3428 23.1156H13.6386L13.7337 22.8148H14.2196L14.3041 23.0741H14.6105L14.1457 21.84L13.8182 21.8815Z" fill="#231F20"/>
<path d="M13.7338 22.8148H14.2304L14.3043 23.0741H14.6107L14.1459 21.84H13.8289L13.3535 23.0741H13.6493L13.7338 22.8148ZM13.9768 22.12L14.1353 22.6074H13.7972L13.9768 22.12Z" stroke="#231F20" stroke-width="0.05" stroke-miterlimit="3.86"/>
<mask id="mask10_380_965" style="mask-type:luminance" maskUnits="userSpaceOnUse" x="1" y="0" width="37" height="28">
<path d="M37.0606 0.622223H1.3208V27.3778H37.0606V0.622223Z" fill="white"/>
</mask>
<g mask="url(#mask10_380_965)">
<path d="M15.8468 22.2859C15.8259 22.1558 15.7553 22.0383 15.6493 21.9574C15.5434 21.8765 15.41 21.8382 15.2763 21.8504C15.1907 21.8484 15.1057 21.8644 15.0269 21.8973C14.9481 21.9302 14.8774 21.9791 14.8194 22.041C14.7614 22.1028 14.7175 22.176 14.6906 22.2558C14.6638 22.3356 14.6545 22.4201 14.6636 22.5037C14.6545 22.5859 14.6635 22.6691 14.6898 22.7476C14.7161 22.8261 14.7592 22.8983 14.8162 22.9591C14.8733 23.02 14.9428 23.0682 15.0204 23.1006C15.0979 23.1329 15.1815 23.1486 15.2658 23.1467C15.4033 23.156 15.5393 23.1143 15.647 23.0298C15.7546 22.9453 15.8259 22.8241 15.8468 22.6904H15.5299C15.5194 22.7582 15.483 22.8196 15.428 22.862C15.373 22.9043 15.3037 22.9246 15.2341 22.9185C15.0016 22.9185 14.9066 22.7215 14.9066 22.5037C14.9066 22.2859 15.0967 22.0785 15.2341 22.0785C15.3006 22.0718 15.3675 22.0891 15.4219 22.1273C15.4764 22.1655 15.5148 22.2219 15.5299 22.2859H15.8468Z" fill="#231F20"/>
<path d="M15.8468 22.2859C15.8259 22.1558 15.7553 22.0383 15.6493 21.9574C15.5434 21.8765 15.41 21.8382 15.2763 21.8504C15.1907 21.8484 15.1057 21.8644 15.0269 21.8973C14.9481 21.9302 14.8774 21.9791 14.8194 22.041C14.7614 22.1028 14.7175 22.176 14.6906 22.2558C14.6638 22.3356 14.6545 22.4201 14.6636 22.5037C14.6545 22.5859 14.6635 22.6691 14.6898 22.7476C14.7161 22.8261 14.7592 22.8983 14.8162 22.9591C14.8733 23.02 14.9428 23.0682 15.0204 23.1006C15.0979 23.1329 15.1815 23.1486 15.2658 23.1467C15.4033 23.156 15.5393 23.1143 15.647 23.0298C15.7546 22.9453 15.8259 22.8241 15.8468 22.6904H15.5299C15.5194 22.7582 15.483 22.8196 15.428 22.862C15.373 22.9043 15.3037 22.9246 15.2341 22.9185C15.0016 22.9185 14.9066 22.7215 14.9066 22.5037C14.9066 22.2859 15.0967 22.0785 15.2341 22.0785C15.3006 22.0718 15.3675 22.0891 15.4219 22.1273C15.4764 22.1655 15.5148 22.2219 15.5299 22.2859H15.8468Z" stroke="#231F20" stroke-width="0.05" stroke-miterlimit="3.86"/>
<path d="M17.1144 22.2859C17.0935 22.1558 17.0229 22.0383 16.9169 21.9574C16.811 21.8765 16.6776 21.8382 16.5439 21.8504C16.4583 21.8484 16.3733 21.8644 16.2945 21.8973C16.2157 21.9302 16.145 21.9791 16.087 22.041C16.029 22.1028 15.9851 22.176 15.9582 22.2558C15.9314 22.3356 15.9222 22.4201 15.9312 22.5037C15.922 22.5868 15.9312 22.6709 15.9581 22.7502C15.9851 22.8295 16.0291 22.9021 16.0873 22.9632C16.1455 23.0242 16.2164 23.0722 16.2952 23.1039C16.374 23.1355 16.4589 23.1501 16.5439 23.1467C16.6797 23.1534 16.8131 23.1104 16.9185 23.0261C17.0239 22.9419 17.0937 22.8222 17.1144 22.6904H16.8397C16.8293 22.7582 16.7928 22.8196 16.7379 22.862C16.6829 22.9043 16.6136 22.9246 16.5439 22.9185C16.3115 22.9185 16.2164 22.7215 16.2164 22.5037C16.2164 22.2859 16.4066 22.0785 16.5439 22.0785C16.6105 22.0718 16.6773 22.0891 16.7318 22.1273C16.7863 22.1655 16.8247 22.2219 16.8397 22.2859H17.1144Z" fill="#231F20"/>
<path d="M17.1144 22.2859C17.0935 22.1558 17.0229 22.0383 16.9169 21.9574C16.811 21.8765 16.6776 21.8382 16.5439 21.8504C16.4583 21.8484 16.3733 21.8644 16.2945 21.8973C16.2157 21.9302 16.145 21.9791 16.087 22.041C16.029 22.1028 15.9851 22.176 15.9582 22.2558C15.9314 22.3356 15.9222 22.4201 15.9312 22.5037C15.922 22.5868 15.9312 22.6709 15.9581 22.7502C15.9851 22.8295 16.0291 22.9021 16.0873 22.9632C16.1455 23.0242 16.2164 23.0722 16.2952 23.1039C16.374 23.1355 16.4589 23.1501 16.5439 23.1467C16.6797 23.1534 16.8131 23.1104 16.9185 23.0261C17.0239 22.9419 17.0937 22.8222 17.1144 22.6904H16.8397C16.8293 22.7582 16.7928 22.8196 16.7379 22.862C16.6829 22.9043 16.6136 22.9246 16.5439 22.9185C16.3115 22.9185 16.2164 22.7215 16.2164 22.5037C16.2164 22.2859 16.4066 22.0785 16.5439 22.0785C16.6105 22.0718 16.6773 22.0891 16.7318 22.1273C16.7863 22.1655 16.8247 22.2219 16.8397 22.2859H17.1144Z" stroke="#231F20" stroke-width="0.05" stroke-miterlimit="3.86"/>
<path d="M17.3045 23.1156H17.5792V22.6281H17.8539C18.0652 22.6281 18.0757 22.7007 18.0757 22.8667C18.0611 22.949 18.0611 23.0332 18.0757 23.1156H18.3715C18.3187 23.1156 18.3187 23.043 18.3187 22.8667C18.3187 22.6904 18.2553 22.597 18.1497 22.5556C18.2108 22.5353 18.2635 22.4959 18.2998 22.4435C18.336 22.3911 18.3538 22.3285 18.3504 22.2652C18.3535 22.214 18.3455 22.1628 18.3269 22.1149C18.3084 22.0669 18.2797 22.0234 18.2427 21.9872C18.2058 21.9509 18.1615 21.9228 18.1127 21.9045C18.0638 21.8863 18.0116 21.8785 17.9595 21.8815H17.2939L17.3045 23.1156ZM17.5792 22.4207V22.0993H17.9595C18.118 22.0993 18.1497 22.1926 18.1497 22.2548C18.1497 22.317 18.0863 22.4207 17.9384 22.4207H17.5792Z" fill="#231F20"/>
<path d="M17.3045 23.1156H17.5792V22.6281H17.8539C18.0652 22.6281 18.0757 22.7007 18.0757 22.8667C18.0611 22.949 18.0611 23.0332 18.0757 23.1156H18.3715C18.3187 23.1156 18.3187 23.043 18.3187 22.8667C18.3187 22.6904 18.2553 22.597 18.1497 22.5556C18.2108 22.5353 18.2635 22.4959 18.2998 22.4435C18.336 22.3911 18.3538 22.3285 18.3504 22.2652C18.3535 22.214 18.3455 22.1628 18.3269 22.1149C18.3084 22.0669 18.2797 22.0234 18.2427 21.9872C18.2058 21.9509 18.1615 21.9228 18.1127 21.9045C18.0638 21.8863 18.0116 21.8785 17.9595 21.8815H17.2939L17.3045 23.1156ZM17.5792 22.4207V22.0993H17.9595C18.118 22.0993 18.1497 22.1926 18.1497 22.2548C18.1497 22.317 18.0863 22.4207 17.9384 22.4207H17.5792Z" stroke="#231F20" stroke-width="0.05" stroke-miterlimit="3.86"/>
</g>
<path d="M18.6147 21.8815V23.1156H19.6184V22.8978H18.8894V22.5763H19.5233V22.3585H18.8894V22.0993H19.5867V21.8815H18.6147Z" fill="#231F20"/>
<path d="M19.5867 21.8815H18.6147V23.1156H19.6184V22.8978H18.8894V22.5763H19.5233V22.3585H18.8894V22.0993H19.5867V21.8815Z" stroke="#231F20" stroke-width="0.05" stroke-miterlimit="3.86"/>
<mask id="mask11_380_965" style="mask-type:luminance" maskUnits="userSpaceOnUse" x="1" y="0" width="37" height="28">
<path d="M37.0606 0.622223H1.3208V27.3778H37.0606V0.622223Z" fill="white"/>
</mask>
<g mask="url(#mask11_380_965)">
<path d="M19.8193 23.1156H20.3898C20.8335 23.1156 20.9392 22.7319 20.9392 22.4726C20.9392 22.2133 20.8547 21.8815 20.4109 21.8815H19.8193V23.1156ZM20.094 22.0785H20.3581C20.4743 22.0785 20.6645 22.0785 20.6645 22.4622C20.6645 22.8459 20.5905 22.877 20.3581 22.877H20.0729L20.094 22.0785Z" fill="#231F20"/>
<path d="M19.8193 23.1156H20.3898C20.8335 23.1156 20.9392 22.7319 20.9392 22.4726C20.9392 22.2133 20.8547 21.8815 20.4109 21.8815H19.8193V23.1156ZM20.094 22.0785H20.3581C20.4743 22.0785 20.6645 22.0785 20.6645 22.4622C20.6645 22.8459 20.5905 22.877 20.3581 22.877H20.0729L20.094 22.0785Z" stroke="#231F20" stroke-width="0.05" stroke-miterlimit="3.86"/>
</g>
<path d="M21.3826 21.8815H21.1079V23.1052H21.3826V21.8815Z" fill="#231F20"/>
<path d="M21.3826 21.8815H21.1079V23.1052H21.3826V21.8815Z" stroke="#231F20" stroke-width="0.05" stroke-miterlimit="3.86"/>
<path d="M21.5093 21.8815V22.0993H21.9107V23.1156H22.1854V22.0993H22.5869V21.8815H21.5093Z" fill="#231F20"/>
<path d="M22.1854 22.0993H22.5869V21.8815H21.5093V22.0993H21.9107V23.1156H22.1854V22.0993Z" stroke="#231F20" stroke-width="0.05" stroke-miterlimit="3.86"/>
<path d="M22.7349 21.8815V23.1156H23.7279V22.8978H22.999V22.5763H23.6434V22.3585H22.999V22.0993H23.7068V21.8815H22.7349Z" fill="#231F20"/>
<path d="M23.6962 21.8815H22.7349V23.1156H23.7279V22.8978H22.999V22.5763H23.6434V22.3585H22.999V22.0993H23.6962V21.8815Z" stroke="#231F20" stroke-width="0.05" stroke-miterlimit="3.86"/>
<mask id="mask12_380_965" style="mask-type:luminance" maskUnits="userSpaceOnUse" x="1" y="0" width="37" height="28">
<path d="M37.0606 0.622223H1.3208V27.3778H37.0606V0.622223Z" fill="white"/>
</mask>
<g mask="url(#mask12_380_965)">
<path d="M23.9395 23.1156H24.5099C24.9431 23.1156 25.0593 22.7319 25.0593 22.4726C25.0701 22.3978 25.0641 22.3216 25.0418 22.2493C25.0194 22.177 24.9813 22.1103 24.93 22.054C24.8786 21.9977 24.8154 21.9531 24.7447 21.9233C24.6739 21.8935 24.5974 21.8792 24.5205 21.8815H23.9395V23.1156ZM24.2141 22.0785H24.4782C24.5945 22.0785 24.7741 22.0785 24.7741 22.4622C24.7741 22.8459 24.7001 22.877 24.4782 22.877H24.2141V22.0785Z" fill="#231F20"/>
<path d="M23.9395 23.1156H24.5099C24.9431 23.1156 25.0593 22.7319 25.0593 22.4726C25.0701 22.3978 25.0641 22.3216 25.0418 22.2493C25.0194 22.177 24.9813 22.1103 24.93 22.054C24.8786 21.9977 24.8154 21.9531 24.7447 21.9233C24.6739 21.8935 24.5974 21.8792 24.5205 21.8815H23.9395V23.1156ZM24.2141 22.0785H24.4782C24.5945 22.0785 24.7741 22.0785 24.7741 22.4622C24.7741 22.8459 24.7001 22.877 24.4782 22.877H24.2141V22.0785Z" stroke="#231F20" stroke-width="0.05" stroke-miterlimit="3.86"/>
</g>
<path d="M13.998 18.7393L13.4697 21.4044H14.0825L14.6107 18.7393H13.998Z" fill="#231F20"/>
<path d="M14.3042 21.4044L14.8219 18.7393H16.3115L16.1741 19.237H15.3395L15.2127 19.8178H16.3748L16.3115 20.2844H15.086L14.9169 21.4044H14.3042Z" fill="#231F20"/>
<path d="M20.7384 21.4044L20.9286 20.2844H19.2277L19.2065 19.8178H20.1257L20.8863 18.7393H21.8265L21.2983 21.4044H20.7384Z" fill="#231F20"/>
<path d="M19.6713 20.5022L19.0586 21.4044H19.6502L20.2524 20.5022H19.6713Z" fill="#231F20"/>
<path d="M21.499 21.4044L22.0167 18.7393H22.9147L23.1999 20.3052L24.3092 18.7393H25.1649L24.7106 21.3733H24.0979L24.4254 19.5585L23.1788 21.4044H22.7456L22.4604 19.517L22.1118 21.4044H21.499Z" fill="#231F20"/>
<mask id="mask13_380_965" style="mask-type:luminance" maskUnits="userSpaceOnUse" x="1" y="0" width="37" height="28">
<path d="M37.0606 0.622223H1.3208V27.3778H37.0606V0.622223Z" fill="white"/>
</mask>
<g mask="url(#mask13_380_965)">
<path d="M16.7661 20.077C16.7661 19.8719 16.8281 19.6714 16.9442 19.5009C17.0602 19.3304 17.2252 19.1974 17.4183 19.1189C17.6113 19.0405 17.8237 19.0199 18.0287 19.0599C18.2336 19.0999 18.4218 19.1987 18.5696 19.3437C18.7173 19.4888 18.818 19.6736 18.8587 19.8747C18.8995 20.0759 18.8786 20.2844 18.7986 20.4739C18.7186 20.6634 18.5832 20.8254 18.4095 20.9393C18.2358 21.0533 18.0315 21.1141 17.8226 21.1141C17.5424 21.1141 17.2737 21.0048 17.0755 20.8103C16.8774 20.6159 16.7661 20.3521 16.7661 20.077Z" fill="white"/>
</g>
<mask id="mask14_380_965" style="mask-type:luminance" maskUnits="userSpaceOnUse" x="16" y="19" width="3" height="3">
<path d="M16.7661 20.077C16.7661 20.2821 16.8281 20.4826 16.9442 20.6532C17.0602 20.8237 17.2252 20.9566 17.4183 21.0351C17.6113 21.1136 17.8237 21.1342 18.0287 21.0941C18.2336 21.0541 18.4218 20.9554 18.5696 20.8103C18.7173 20.6653 18.818 20.4805 18.8587 20.2794C18.8995 20.0782 18.8786 19.8697 18.7986 19.6802C18.7186 19.4907 18.5832 19.3287 18.4095 19.2148C18.2358 19.1008 18.0315 19.04 17.8226 19.04C17.5424 19.04 17.2737 19.1493 17.0755 19.3437C16.8774 19.5382 16.7661 19.802 16.7661 20.077Z" fill="white"/>
</mask>
<g mask="url(#mask14_380_965)">
<path d="M16.9458 19.6415L17.0514 19.4548L17.2733 19.3407L17.4423 19.1748L17.9072 19.1541L17.9917 19.2578L17.8332 19.4133L17.6219 19.4963L17.6008 19.6622L17.4635 19.7763L17.2205 19.683L17.0726 19.7348V19.9215L17.2416 20.0978L17.4212 20.2222L17.4635 20.3881L17.3578 20.5437L17.136 20.5644L17.0303 20.6474L16.9247 20.5022L16.8507 20.1807L16.8296 19.963L16.9458 19.9007L16.893 19.7556L16.9458 19.6415Z" fill="#231F20"/>
<path d="M17.7065 20.3259L17.7488 20.1807L17.8544 20.0978L17.7488 19.9837L17.8333 19.9007L17.939 19.8593L17.9918 19.7141L18.1397 19.683V19.517L18.2031 19.32L18.3827 19.3407L18.4672 19.4548L18.594 19.6L18.7524 19.683L18.8158 19.88L18.7736 20.1185L18.5728 20.1393L18.4461 20.2222L18.4249 20.3259L18.5728 20.3985L18.5094 20.5644L18.5306 20.8237L18.2031 20.9481L18.1608 20.8444V20.7096L18.0552 20.6474H17.8544L17.7065 20.523V20.3259Z" fill="#231F20"/>
<path d="M17.939 20.16L18.0974 20.0978H18.2242L18.2982 20.1807L18.1819 20.2637L18.0552 20.243L17.939 20.16Z" fill="white"/>
<path d="M17.7485 19.7037V19.5585L17.8331 19.4548L17.9915 19.3926V19.5793L17.8542 19.6415L17.7485 19.7037Z" fill="#231F20"/>
</g>
<mask id="mask15_380_965" style="mask-type:luminance" maskUnits="userSpaceOnUse" x="1" y="0" width="37" height="28">
<path d="M37.0606 0.622223H1.3208V27.3778H37.0606V0.622223Z" fill="white"/>
</mask>
<g mask="url(#mask15_380_965)">
<path d="M17.8014 21.0933C18.3732 21.0933 18.8368 20.6383 18.8368 20.077C18.8368 19.5158 18.3732 19.0607 17.8014 19.0607C17.2296 19.0607 16.7661 19.5158 16.7661 20.077C16.7661 20.6383 17.2296 21.0933 17.8014 21.0933Z" stroke="white" stroke-width="0.11" stroke-miterlimit="3.86"/>
</g>
<path d="M20.7383 19.8178H21.0235L21.1503 19.237L20.7383 19.8178Z" fill="white"/>
<mask id="mask16_380_965" style="mask-type:luminance" maskUnits="userSpaceOnUse" x="1" y="0" width="37" height="28">
<path d="M37.0606 0.622223H1.3208V27.3778H37.0606V0.622223Z" fill="white"/>
</mask>
<g mask="url(#mask16_380_965)">
<path d="M13.132 24.6193V24.7333C13.3961 24.7333 13.4172 24.7333 13.4172 25.1274V26.7452C13.4172 27.077 13.4172 27.1082 13.1108 27.1393V27.2533H14.0616V27.1393C13.7447 27.1393 13.713 27.0874 13.713 26.7452V26.1126L13.9771 26.1956H14.1356C14.3345 26.1672 14.5149 26.0658 14.6405 25.9117C14.766 25.7577 14.8272 25.5626 14.8117 25.3659C14.8185 25.2608 14.8021 25.1555 14.7639 25.0571C14.7256 24.9587 14.6663 24.8695 14.5899 24.7956C14.4179 24.6752 14.209 24.6166 13.9983 24.6296L13.132 24.6193ZM13.713 24.9926C13.713 24.8785 13.713 24.8267 13.713 24.8059C13.7396 24.7852 13.7701 24.77 13.8027 24.7611C13.8354 24.7522 13.8696 24.7498 13.9032 24.7541C14.199 24.7541 14.4314 24.9407 14.4314 25.3763C14.4314 25.8119 14.1567 26.0296 13.9243 26.0296C13.837 26.0303 13.7505 26.0126 13.6708 25.9778L13.713 24.9926ZM15.0547 24.6193V24.7333C15.3083 24.7333 15.34 24.7333 15.34 25.1274V26.7452C15.34 27.077 15.34 27.1082 15.0336 27.1393V27.2533H15.9738V27.1393C15.6675 27.1393 15.6358 27.0874 15.6358 26.7452V26.1126L15.8893 26.1956H16.0478C16.2466 26.1672 16.4271 26.0658 16.5526 25.9117C16.6782 25.7577 16.7394 25.5626 16.7239 25.3659C16.7306 25.2608 16.7143 25.1555 16.676 25.0571C16.6378 24.9587 16.5784 24.8695 16.5021 24.7956C16.3309 24.6736 16.1214 24.6148 15.9104 24.6296L15.0547 24.6193ZM15.6358 24.9926C15.6358 24.8785 15.6358 24.8267 15.6358 24.8059C15.6358 24.7852 15.7308 24.7541 15.8365 24.7541C16.1217 24.7541 16.3647 24.9407 16.3647 25.3763C16.3647 25.8119 16.0795 26.0296 15.8576 26.0296C15.7703 26.0303 15.6839 26.0126 15.6041 25.9778L15.6358 24.9926ZM17.8649 27.2533V27.1393C17.5796 27.1393 17.5479 27.0874 17.5479 26.7452V25.1274C17.5479 24.7852 17.5479 24.7644 17.8649 24.7333V24.6193H16.9035V24.7333C17.1887 24.7333 17.2204 24.7333 17.2204 25.1274V26.7452C17.2204 27.0874 17.2204 27.1082 16.9035 27.1393V27.2533H17.8649ZM19.3756 25.1793C19.3756 24.9304 19.3756 24.7644 19.3122 24.6193C19.1733 24.5689 19.0271 24.5409 18.8791 24.5363C18.7826 24.5334 18.6865 24.55 18.5967 24.5849C18.5069 24.6199 18.4254 24.6725 18.3571 24.7395C18.2888 24.8065 18.2352 24.8865 18.1996 24.9747C18.164 25.0628 18.1472 25.1571 18.1501 25.2519C18.1642 25.4241 18.2257 25.5894 18.328 25.7301C18.4304 25.8707 18.5697 25.9814 18.7312 26.0504C18.9953 26.2059 19.1854 26.3511 19.1854 26.6519C19.1854 26.9526 19.027 27.1289 18.7629 27.1289C18.4988 27.1289 18.2452 26.7244 18.1924 26.4756H18.0867C18.0867 26.6726 18.1607 27.0148 18.1818 27.0978L18.3614 27.1911C18.4736 27.2052 18.5872 27.2052 18.6995 27.1911C18.8024 27.1954 18.9052 27.1789 19.0013 27.1425C19.0974 27.1061 19.1849 27.0507 19.2583 26.9797C19.3316 26.9086 19.3893 26.8235 19.4276 26.7297C19.466 26.6358 19.4842 26.5352 19.4813 26.4341C19.4813 25.9778 19.1432 25.7911 18.8685 25.6252C18.5938 25.4593 18.4248 25.3244 18.4248 25.0237C18.4189 24.9694 18.4246 24.9146 18.4415 24.8626C18.4583 24.8106 18.486 24.7626 18.5228 24.7216C18.5595 24.6807 18.6045 24.6477 18.655 24.6247C18.7054 24.6017 18.7601 24.5893 18.8157 24.5882C19.1221 24.5882 19.2171 24.8682 19.27 25.117L19.3756 25.1793ZM21.4885 25.0652H22.1858C22.2264 25.0589 22.2681 25.0643 22.3056 25.0809C22.3431 25.0975 22.3749 25.1245 22.3971 25.1585C22.4118 25.2617 22.4118 25.3664 22.3971 25.4696V27.3778L22.6612 26.9319V25.4593C22.6907 25.2349 22.63 25.008 22.4921 24.8267C22.4356 24.7675 22.3666 24.7211 22.29 24.6906C22.2134 24.6602 22.131 24.6465 22.0484 24.6504H21.2984V24.3911C21.0864 24.6006 20.9051 24.8379 20.7596 25.0963H21.1821C21.1821 25.2 21.1821 25.4385 21.2561 25.8015C21.2561 25.9363 21.2561 26.0919 21.3089 26.2889C21.3179 26.4616 21.3179 26.6347 21.3089 26.8074H20.918L20.6856 27.2533H21.4463L21.5625 26.5482C21.5625 26.32 21.5625 26.0504 21.5625 25.7496L21.4885 25.0652ZM24.0451 27.2222C24.3392 26.7501 24.4996 26.2096 24.51 25.6563C24.5217 25.3852 24.4479 25.1172 24.2987 24.8889C24.2484 24.8034 24.176 24.7325 24.0888 24.6833C24.0016 24.6341 23.9027 24.6085 23.8021 24.6089H23.3373V24.3496C23.1831 24.5729 23.0487 24.8089 22.9359 25.0548H23.7176C24.0451 25.0548 24.2036 25.3452 24.2036 25.9259C24.2141 26.213 24.1637 26.499 24.0557 26.7659H23.1049L22.8725 27.2119L24.0451 27.2222ZM25.1016 24.837C25.0723 24.6831 25.015 24.5356 24.9325 24.4015L24.7001 24.8785C24.8669 25.1254 24.9618 25.4122 24.9748 25.7082C24.9413 26.0297 24.8848 26.3485 24.8058 26.6622C24.7565 26.8835 24.7037 27.1116 24.6473 27.3467L24.9537 27.0148C25.0276 26.6415 25.1121 26.3096 25.1861 25.9778C25.3868 25.3141 25.5875 24.9407 25.7883 24.9407C25.989 24.9407 26.1369 25.0756 26.2426 25.3452C26.3442 25.6815 26.3906 26.0316 26.3799 26.3822C26.3799 26.4859 26.3799 26.5896 26.3799 26.7037H25.4713L25.2389 27.1496H26.2954L26.475 26.7348C26.5369 26.5761 26.5657 26.4069 26.5595 26.237C26.5595 25.0548 26.3376 24.4741 25.8939 24.4741C25.7931 24.483 25.6967 24.5186 25.6148 24.577C25.533 24.6354 25.4688 24.7145 25.4291 24.8059C25.2959 25.0307 25.203 25.2762 25.1544 25.5319C25.163 25.2734 25.1346 25.0151 25.0699 24.7644M26.813 24.9926C26.8835 25.0169 26.9457 25.06 26.9926 25.117C27.0305 25.1686 27.0525 25.2298 27.056 25.2933V25.5319L27.3307 26.963C27.3941 27.1807 27.4892 27.2948 27.6159 27.2948C27.8359 27.2831 28.0434 27.1906 28.197 27.0356C28.4183 26.8498 28.5859 26.6102 28.683 26.3407C28.8052 26.0263 28.8661 25.6921 28.8626 25.3556C28.8781 25.1684 28.8492 24.9803 28.778 24.8059C28.753 24.7426 28.7088 24.6883 28.6513 24.6504C28.5744 24.6365 28.4957 24.6365 28.4188 24.6504H27.2779V24.3911L26.813 24.9926ZM28.2921 24.9926C28.4928 24.9926 28.5879 25.1689 28.5879 25.5215C28.5807 25.8133 28.5086 26.1 28.3766 26.3615C28.3333 26.4779 28.2562 26.5792 28.1548 26.653C28.0534 26.7267 27.9321 26.7696 27.8061 26.7763C27.7811 26.7807 27.7554 26.7802 27.7306 26.7748C27.7058 26.7693 27.6824 26.759 27.6617 26.7445C27.641 26.73 27.6235 26.7116 27.6102 26.6903C27.5969 26.6691 27.5881 26.6454 27.5842 26.6207L27.3307 24.9926H28.2921ZM29.4753 25.4593L29.1901 25.843V27.3778L29.4753 26.963V25.4593ZM30.2888 24.9926C30.3944 24.9926 30.4578 25.0133 30.4789 25.0548C30.5025 25.1291 30.5025 25.2087 30.4789 25.283V27.3778L30.7642 26.9941V25.3867C30.7855 25.2037 30.7601 25.0184 30.6902 24.8474C30.6163 24.7126 30.4472 24.6504 30.1831 24.6504H29.3485V24.3911L29.1689 24.6815C29.0863 24.8151 29.0122 24.9537 28.9471 25.0963L30.2888 24.9926ZM32.9616 24.9926C33.0321 25.0169 33.0943 25.06 33.1412 25.117C33.1791 25.1686 33.2011 25.2298 33.2046 25.2933V25.5319L33.4793 26.963C33.5426 27.1807 33.6377 27.2948 33.7645 27.2948C33.9845 27.2831 34.1919 27.1906 34.3455 27.0356C34.5633 26.8468 34.7303 26.6081 34.8315 26.3407C34.9537 26.0263 35.0147 25.6921 35.0111 25.3556C35.0266 25.1684 34.9977 24.9803 34.9266 24.8059C34.9016 24.7426 34.8573 24.6883 34.7998 24.6504C34.7195 24.6357 34.6371 24.6357 34.5568 24.6504H33.4264V24.3911L32.9616 24.9926ZM34.4406 24.9926C34.6413 24.9926 34.7364 25.1689 34.7364 25.5215C34.7303 25.8147 34.6544 26.1023 34.5146 26.3615C34.4744 26.4778 34.3996 26.5796 34.2997 26.6536C34.1998 26.7275 34.0796 26.7703 33.9547 26.7763C33.9296 26.7807 33.904 26.7802 33.8792 26.7748C33.8544 26.7693 33.8309 26.759 33.8103 26.7445C33.7896 26.73 33.7721 26.7116 33.7588 26.6903C33.7455 26.6691 33.7366 26.6454 33.7328 26.6207L33.4793 24.9926H34.4406ZM35.571 24.8889C35.5417 24.7349 35.4845 24.5874 35.402 24.4533L35.1696 24.9304C35.3363 25.1772 35.4313 25.4641 35.4443 25.76C35.4107 26.0823 35.3506 26.4013 35.2647 26.7141C35.2647 26.9319 35.1696 27.16 35.1168 27.3985L35.4231 27.0667C35.4971 26.6933 35.571 26.3615 35.6555 26.0296C35.8457 25.3659 36.0464 24.9926 36.2577 24.9926C36.469 24.9926 36.6064 25.1274 36.7014 25.397C36.8124 25.7315 36.8624 26.0826 36.8493 26.4341C36.8493 26.5378 36.8493 26.6415 36.8493 26.7556H35.9197L35.6872 27.2015H36.7437L36.9233 26.7867C36.9808 26.6271 37.0059 26.458 36.9972 26.2889C36.9972 25.1067 36.7754 24.5259 36.3422 24.5259C36.2463 24.5464 36.1572 24.5905 36.0833 24.654C36.0094 24.7174 35.9531 24.7983 35.9197 24.8889C35.7944 25.1162 35.7053 25.361 35.6555 25.6148C35.6642 25.3564 35.6357 25.0981 35.571 24.8474" fill="#231F20"/>
<path d="M2.39825 25.7807C2.43985 25.6605 2.46126 25.5344 2.46164 25.4074C2.47267 25.1957 2.41737 24.9858 2.30317 24.8059C2.26209 24.7401 2.20468 24.6857 2.13632 24.6476C2.06796 24.6095 1.99088 24.589 1.91228 24.5881C1.81766 24.595 1.72691 24.6278 1.65034 24.6828C1.57377 24.7378 1.51446 24.8128 1.47914 24.8993C1.36642 25.1103 1.30837 25.3454 1.3101 25.5837C1.30852 25.743 1.34853 25.9001 1.42631 26.04C1.44714 26.0958 1.48434 26.1443 1.53323 26.1794C1.58212 26.2145 1.6405 26.2345 1.70099 26.237C1.85865 26.2168 2.00427 26.1435 2.11301 26.0296L1.50027 27.357L1.89115 27.1393L2.39825 25.7807ZM1.92285 25.9259C1.86485 25.9297 1.80689 25.9182 1.7549 25.8927C1.70292 25.8672 1.65879 25.8285 1.62704 25.7807C1.56246 25.6819 1.52936 25.5663 1.53196 25.4489C1.53295 25.321 1.55803 25.1945 1.60591 25.0756C1.63541 25.0479 1.67022 25.0264 1.70832 25.0121C1.74641 24.9979 1.78702 24.9912 1.82777 24.9926C1.88014 24.9883 1.93284 24.9954 1.98212 25.0133C2.03141 25.0313 2.07609 25.0596 2.11301 25.0963C2.19824 25.2065 2.24292 25.3417 2.23978 25.48C2.23811 25.5799 2.21658 25.6786 2.17639 25.7704C2.14067 25.8057 2.09772 25.8332 2.05037 25.8511C2.00303 25.869 1.95237 25.8768 1.90172 25.8741M3.16946 24.4222C3.09879 24.5009 3.03845 24.588 2.98986 24.6815C2.92721 24.7853 2.87077 24.8927 2.82083 25.003H3.7822L3.51809 25.5422C3.25398 26.0607 3.09551 26.403 3.04269 26.5793C2.99167 26.7332 2.96669 26.8944 2.96873 27.0563C2.95895 27.1459 2.95895 27.2363 2.96873 27.3259L3.27511 26.9215C3.27511 26.9215 3.27511 26.8385 3.27511 26.7763C3.32667 26.2904 3.48142 25.8206 3.72938 25.397C3.82094 25.2104 3.88433 25.0756 3.91954 24.9926C3.96008 24.8818 3.98841 24.7671 4.00406 24.6504H3.16946V24.4222ZM4.4689 25.003H4.70132C4.75568 24.9962 4.81089 25.0018 4.86273 25.0192C4.91457 25.0366 4.96166 25.0654 5.00041 25.1034C5.03915 25.1415 5.06852 25.1877 5.08626 25.2386C5.104 25.2895 5.10965 25.3437 5.10277 25.397C5.07345 25.5995 5.00149 25.7937 4.89148 25.9674C4.65906 26.3926 4.53228 26.6622 4.49003 26.7659C4.43427 26.929 4.38841 27.0953 4.35269 27.2637H5.28237L5.39858 26.8904H4.58511C4.69102 26.6133 4.82183 26.3461 4.97599 26.0919C5.09497 25.9182 5.19752 25.7342 5.28237 25.5422C5.30167 25.4289 5.30167 25.3133 5.28237 25.2C5.292 25.0447 5.23885 24.8919 5.13446 24.7748C5.08494 24.7223 5.02424 24.6812 4.95668 24.6543C4.88913 24.6274 4.81637 24.6154 4.74357 24.6193C4.65572 24.612 4.56763 24.63 4.49003 24.6711L4.4689 25.003ZM5.9268 25.0859C5.84187 25.3474 5.7991 25.6203 5.80003 25.8948C5.80003 26.8178 6.00075 27.2844 6.39164 27.2844C6.44646 27.3026 6.50585 27.3026 6.56067 27.2844C6.7084 27.1352 6.81083 26.9484 6.85648 26.7452C6.92468 26.4776 6.94963 26.2011 6.93043 25.9259C6.95699 25.573 6.90285 25.2187 6.77196 24.8889C6.73664 24.8024 6.67733 24.7275 6.60076 24.6725C6.52419 24.6175 6.43344 24.5847 6.33882 24.5778C6.27745 24.5556 6.21002 24.5556 6.14866 24.5778C6.04301 24.6262 5.94793 24.7817 5.86342 25.0444M6.33882 24.8889C6.3934 24.8973 6.44506 24.9187 6.48926 24.9512C6.53346 24.9838 6.56886 25.0265 6.59237 25.0756C6.65046 25.1906 6.69307 25.3127 6.71914 25.4385C6.73139 25.6008 6.73139 25.7637 6.71914 25.9259C6.71737 26.2438 6.67838 26.5605 6.60293 26.8696C6.52327 26.92 6.43294 26.952 6.33882 26.963C6.27091 26.9701 6.20265 26.9531 6.14643 26.9151C6.09021 26.877 6.04976 26.8204 6.03245 26.7556C5.97808 26.4824 5.96384 26.203 5.99019 25.9259C5.99935 25.613 6.03112 25.3011 6.08527 24.9926C6.15787 24.9348 6.2459 24.8988 6.33882 24.8889ZM7.39527 27.2222H8.28269L8.44116 26.8489H8.00801V24.557L7.78616 24.6607C7.72277 24.6607 7.60656 24.8059 7.42697 24.9615L7.62769 25.0444C7.70516 25.0444 7.74742 25.0756 7.75447 25.1378C7.75447 25.1378 7.75447 25.2 7.75447 25.2622V26.8696H7.50092L7.39527 27.2222ZM8.89543 25.0652C8.81408 25.3272 8.77487 25.6002 8.77922 25.8741C8.77922 26.797 8.96939 27.2637 9.36027 27.2637C9.4151 27.2819 9.47448 27.2819 9.52931 27.2637C9.67704 27.1144 9.77947 26.9277 9.82511 26.7244C10.0297 26.122 10.0297 25.4706 9.82511 24.8681C9.7875 24.7888 9.72794 24.7215 9.65322 24.6738C9.5785 24.6262 9.49163 24.6001 9.40253 24.5985C9.30745 24.5985 9.24406 24.5985 9.22293 24.5985C9.20181 24.5985 9.01164 24.8059 8.92713 25.0652M9.26519 24.8889C9.32007 24.9009 9.37103 24.9262 9.41346 24.9624C9.45588 24.9986 9.48844 25.0446 9.50818 25.0963C9.56627 25.2114 9.60888 25.3334 9.63495 25.4593C9.64768 25.6215 9.64768 25.7844 9.63495 25.9467C9.6279 26.2642 9.58898 26.5803 9.51874 26.8904C9.44143 26.9214 9.35921 26.9389 9.27576 26.9422C9.20822 26.9473 9.14094 26.9295 9.08518 26.8917C9.02942 26.854 8.98854 26.7986 8.96939 26.7348C8.92917 26.467 8.92208 26.1954 8.94826 25.9259C8.95742 25.613 8.98919 25.3011 9.04334 24.9926C9.10702 24.9399 9.18341 24.9042 9.26519 24.8889ZM10.3216 24.9822H10.5541C10.608 24.975 10.663 24.9804 10.7145 24.9978C10.766 25.0153 10.8126 25.0443 10.8506 25.0826C10.8886 25.1209 10.917 25.1674 10.9333 25.2185C10.9497 25.2695 10.9537 25.3235 10.945 25.3763C10.9207 25.58 10.8484 25.7753 10.7337 25.9467C10.5118 26.3719 10.3745 26.6415 10.3322 26.7452C10.281 26.9088 10.2387 27.075 10.2054 27.243H11.1879L11.3041 26.8696H10.5646C10.6661 26.5908 10.7971 26.3231 10.9555 26.0711C11.0661 25.9033 11.1615 25.7263 11.2408 25.5422C11.2814 25.4325 11.3028 25.3168 11.3041 25.2C11.3085 25.0454 11.256 24.8945 11.1562 24.7748C11.1047 24.7221 11.0421 24.6809 10.9728 24.654C10.9035 24.6272 10.8292 24.6153 10.7548 24.6193C10.6702 24.6101 10.5849 24.6283 10.5118 24.6711L10.3216 24.9822Z" fill="#231F20"/>
<path d="M32.338 24.4326C32.4072 24.5428 32.4505 24.6668 32.4648 24.7956C32.448 25.0938 32.3984 25.3893 32.3169 25.677H32.3697C32.5338 25.2848 32.6611 24.8787 32.75 24.4637C32.7367 24.3123 32.686 24.1663 32.6021 24.0385L32.338 24.4326Z" fill="#231F20"/>
</g>
</g>
<defs>
<clipPath id="clip0_380_965">
<rect width="38.3704" height="28" fill="white"/>
</clipPath>
</defs>
</svg>
