<svg width="39" height="39" viewBox="0 0 39 39" fill="none" xmlns="http://www.w3.org/2000/svg">
<g clip-path="url(#clip0_44_227)">
<path d="M19.5002 37.6642C29.532 37.6642 37.6644 29.5318 37.6644 19.5C37.6644 9.46816 29.532 1.33575 19.5002 1.33575C9.46835 1.33575 1.33594 9.46816 1.33594 19.5C1.33594 29.5318 9.46835 37.6642 19.5002 37.6642Z" stroke="#346139" stroke-width="1.62" stroke-miterlimit="10"/>
<path d="M27.5339 24.5505C27.342 24.5507 27.1513 24.5211 26.9684 24.4628C26.7484 24.391 26.5448 24.2765 26.3692 24.1258C26.1936 23.9751 26.0496 23.7911 25.9454 23.5845C25.8412 23.3779 25.7788 23.1527 25.762 22.9219C25.7451 22.6911 25.7741 22.4593 25.8472 22.2398L28.0604 15.6488C28.2157 15.2056 28.5385 14.8409 28.9596 14.6331C29.3807 14.4253 29.8665 14.3909 30.3127 14.5373C30.5327 14.609 30.7364 14.7235 30.9119 14.8742C31.0875 15.0249 31.2316 15.2089 31.3358 15.4155C31.44 15.6221 31.5023 15.8473 31.5192 16.0781C31.536 16.3089 31.507 16.5407 31.4339 16.7603L29.2499 23.4C29.1211 23.7478 28.8859 24.0461 28.5779 24.2526C28.2699 24.4591 27.9046 24.5634 27.5339 24.5505Z" stroke="#346139" stroke-width="0.61" stroke-miterlimit="10"/>
<path d="M27.4949 17.3355C24.9417 16.3644 22.2315 15.8719 19.4999 15.8828C16.7649 15.8694 14.051 16.3619 11.4951 17.3355L12.4019 20.046C16.9711 18.2906 22.0287 18.2906 26.5979 20.046L27.4949 17.3355Z" stroke="#346139" stroke-width="0.61" stroke-miterlimit="10"/>
<path d="M11.4366 24.5505C11.0709 24.5572 10.7122 24.4501 10.41 24.244C10.1078 24.0378 9.87715 23.7429 9.7499 23.4L7.53665 16.7603C7.46355 16.5407 7.43459 16.3089 7.45144 16.0781C7.46828 15.8473 7.53061 15.6221 7.63482 15.4155C7.73903 15.2089 7.88307 15.0249 8.05865 14.8742C8.23423 14.7235 8.43789 14.609 8.6579 14.5373C9.1027 14.3886 9.58827 14.422 10.0085 14.6303C10.4287 14.8386 10.7494 15.2047 10.9004 15.6488L13.1234 22.2398C13.1965 22.4593 13.2255 22.6911 13.2086 22.9219C13.1918 23.1527 13.1294 23.3779 13.0252 23.5845C12.921 23.7911 12.777 23.9751 12.6014 24.1258C12.4258 24.2765 12.2222 24.391 12.0021 24.4628C11.819 24.5197 11.6284 24.5492 11.4366 24.5505Z" stroke="#346139" stroke-width="0.61" stroke-miterlimit="10"/>
<path d="M31.3072 23.4487C31.128 23.449 30.9501 23.4194 30.7807 23.361C30.5878 23.2982 30.4093 23.1977 30.2556 23.0654C30.1018 22.933 29.976 22.7714 29.8852 22.59C29.7945 22.4085 29.7408 22.2109 29.7271 22.0085C29.7134 21.8061 29.7402 21.603 29.8057 21.411L30.7807 18.6712C30.9236 18.2952 31.2062 17.9889 31.5696 17.8163C31.9329 17.6438 32.3489 17.6182 32.7307 17.745C32.9236 17.8078 33.1021 17.9083 33.2558 18.0406C33.4095 18.173 33.5354 18.3346 33.6261 18.516C33.7168 18.6975 33.7706 18.8951 33.7842 19.0975C33.7979 19.2999 33.7712 19.503 33.7057 19.695L32.7599 22.425C32.6532 22.7248 32.4562 22.9842 32.1961 23.1675C31.9359 23.3508 31.6254 23.4491 31.3072 23.4487Z" stroke="#346139" stroke-width="0.61" stroke-miterlimit="10"/>
<path d="M7.59505 23.4585C7.27863 23.4555 6.97091 23.3545 6.71425 23.1694C6.45758 22.9844 6.26458 22.7243 6.1618 22.425L5.1868 19.656C5.11991 19.4641 5.09215 19.2607 5.10518 19.0579C5.1182 18.8551 5.17174 18.6569 5.26263 18.4752C5.35352 18.2934 5.47991 18.1317 5.63435 17.9996C5.78879 17.8675 5.96814 17.7676 6.1618 17.706C6.54973 17.5791 6.97207 17.6103 7.33714 17.7928C7.70222 17.9754 7.98058 18.2945 8.1118 18.681L9.0868 21.45C9.15232 21.642 9.17902 21.8451 9.16536 22.0475C9.1517 22.2499 9.09795 22.4475 9.00723 22.629C8.91651 22.8104 8.79063 22.972 8.63691 23.1044C8.48319 23.2367 8.3047 23.3372 8.1118 23.4C7.94443 23.4502 7.76941 23.47 7.59505 23.4585Z" stroke="#346139" stroke-width="0.61" stroke-miterlimit="10"/>
</g>
<defs>
<clipPath id="clip0_44_227">
<rect width="39" height="39" fill="white"/>
</clipPath>
</defs>
</svg>
