<svg width="35" height="31" viewBox="0 0 35 31" fill="none" xmlns="http://www.w3.org/2000/svg">
<path d="M2.84949 27.9872C2.04227 28.1422 0.99192 28.6459 1.20588 29.3241C1.38094 29.8956 2.25623 30.0022 2.94674 30.0022C12.2832 29.9828 21.6197 29.9537 30.9464 29.9344C31.7245 29.9344 32.7262 29.7697 32.8526 29.1109C32.9304 28.7041 32.5706 28.3166 32.1329 28.1519C31.705 27.9775 31.3646 27.8419 30.8881 27.8419C21.5224 27.8903 12.2054 27.9872 2.84949 27.9872Z" fill="white"/>
<path d="M2.84949 27.9872C2.04227 28.1422 0.99192 28.6459 1.20588 29.3241C1.38094 29.8956 2.25623 30.0022 2.94674 30.0022C12.2832 29.9828 21.6197 29.9537 30.9464 29.9344C31.7245 29.9344 32.7262 29.7697 32.8526 29.1109C32.9304 28.7041 32.5706 28.3166 32.1329 28.1519C31.705 27.9775 31.3646 27.8419 30.8881 27.8419C21.5224 27.8903 12.2054 27.9872 2.84949 27.9872Z" stroke="#346139" stroke-width="0.5" stroke-miterlimit="10"/>
<path d="M2.8689 28.1906C2.33399 28.2972 1.67266 28.5684 1.4587 28.9269C1.39062 29.0431 1.37117 29.1497 1.41007 29.2659C1.55595 29.7309 2.43125 29.7987 2.9467 29.7987L30.9464 29.7309C31.316 29.7309 32.5316 29.6825 32.6483 29.0819C32.7067 28.7719 32.3858 28.4716 32.0648 28.3456L32.0356 28.3359C31.6174 28.1712 31.316 28.055 30.8978 28.055H30.888C27.4063 28.0744 23.876 28.0937 20.4623 28.1131C14.6951 28.1519 8.74309 28.1906 2.8689 28.1906ZM2.92725 30.2153C1.82827 30.2153 1.17666 29.9344 1.01133 29.3919C0.943249 29.1594 0.972425 28.9366 1.09886 28.7234C1.41007 28.21 2.21729 27.9 2.81054 27.7934C2.82027 27.7934 2.83972 27.7934 2.84944 27.7934C8.72364 27.7934 14.6951 27.7547 20.4623 27.7159C23.876 27.6966 27.4063 27.6675 30.888 27.6578H30.8978C31.4035 27.6578 31.7633 27.8031 32.1912 27.9678L32.2204 27.9775C32.7164 28.1712 33.1638 28.6362 33.0665 29.1691C32.9109 30.0312 31.6758 30.1572 30.9658 30.1572L2.9467 30.2153H2.92725Z" fill="#346139"/>
<path d="M2.8689 28.1906C2.33399 28.2972 1.67266 28.5684 1.4587 28.9269C1.39062 29.0431 1.37117 29.1497 1.41007 29.2659C1.55595 29.7309 2.43125 29.7987 2.9467 29.7987L30.9464 29.7309C31.316 29.7309 32.5316 29.6825 32.6483 29.0819C32.7067 28.7719 32.3858 28.4716 32.0648 28.3456L32.0356 28.3359C31.6174 28.1712 31.316 28.055 30.8978 28.055H30.888C27.4063 28.0744 23.876 28.0937 20.4623 28.1131C14.6951 28.1519 8.74309 28.1906 2.8689 28.1906ZM2.92725 30.2153C1.82827 30.2153 1.17666 29.9344 1.01133 29.3919C0.943249 29.1594 0.972425 28.9366 1.09886 28.7234C1.41007 28.21 2.21729 27.9 2.81054 27.7934C2.82027 27.7934 2.83972 27.7934 2.84944 27.7934C8.72364 27.7934 14.6951 27.7547 20.4623 27.7159C23.876 27.6966 27.4063 27.6675 30.888 27.6578H30.8978C31.4035 27.6578 31.7633 27.8031 32.1912 27.9678L32.2204 27.9775C32.7164 28.1712 33.1638 28.6362 33.0665 29.1691C32.9109 30.0312 31.6758 30.1572 30.9658 30.1572L2.9467 30.2153H2.92725Z" stroke="#346139" stroke-width="0.5" stroke-miterlimit="10"/>
<path d="M14.6757 15.6841C14.666 15.0447 14.7244 14.3181 15.2787 13.9306C15.6775 13.6497 16.5527 13.6303 17.0098 13.8241C18.0894 14.2697 18.1866 15.6938 17.428 16.1491C17.2141 16.275 16.9418 16.3041 16.6792 16.3234C16.2999 16.3525 15.9011 16.3913 15.5316 16.3041C15.1717 16.2072 14.6855 16.0038 14.6757 15.6841Z" fill="white"/>
<path d="M14.6757 15.6841C14.666 15.0447 14.7244 14.3181 15.2787 13.9306C15.6775 13.6497 16.5527 13.6303 17.0098 13.8241C18.0894 14.2697 18.1866 15.6938 17.428 16.1491C17.2141 16.275 16.9418 16.3041 16.6792 16.3234C16.2999 16.3525 15.9011 16.3913 15.5316 16.3041C15.1717 16.2072 14.6855 16.0038 14.6757 15.6841Z" stroke="#346139" stroke-width="0.5" stroke-miterlimit="10"/>
<path d="M14.8896 15.6841C14.8896 15.8294 15.1911 16.0038 15.5996 16.1006C15.94 16.1781 16.3193 16.1491 16.6791 16.12C16.9028 16.1006 17.1556 16.0813 17.3404 15.9747C17.603 15.81 17.7586 15.4806 17.7294 15.1028C17.7003 14.725 17.4863 14.2406 16.9514 14.0178C16.5624 13.8531 15.7649 13.8628 15.4148 14.105C14.9382 14.4247 14.8799 15.0544 14.8896 15.6841ZM16.0956 16.5559C15.9011 16.5559 15.6968 16.5366 15.4926 16.4978C15.1814 16.43 14.4714 16.2072 14.4617 15.6841C14.452 14.9769 14.5298 14.1922 15.1619 13.7563C15.6385 13.4269 16.5916 13.4172 17.0973 13.6303C17.6905 13.8725 18.0893 14.4247 18.1282 15.0641C18.1671 15.5969 17.9434 16.0813 17.5447 16.3234C17.2821 16.4784 16.9611 16.5075 16.7083 16.5269C16.5138 16.5463 16.3095 16.5559 16.0956 16.5559Z" fill="#346139"/>
<path d="M14.8896 15.6841C14.8896 15.8294 15.1911 16.0038 15.5996 16.1006C15.94 16.1781 16.3193 16.1491 16.6791 16.12C16.9028 16.1006 17.1556 16.0813 17.3404 15.9747C17.603 15.81 17.7586 15.4806 17.7294 15.1028C17.7003 14.725 17.4863 14.2406 16.9514 14.0178C16.5624 13.8531 15.7649 13.8628 15.4148 14.105C14.9382 14.4247 14.8799 15.0544 14.8896 15.6841ZM16.0956 16.5559C15.9011 16.5559 15.6968 16.5366 15.4926 16.4978C15.1814 16.43 14.4714 16.2072 14.4617 15.6841C14.452 14.9769 14.5298 14.1922 15.1619 13.7563C15.6385 13.4269 16.5916 13.4172 17.0973 13.6303C17.6905 13.8725 18.0893 14.4247 18.1282 15.0641C18.1671 15.5969 17.9434 16.0813 17.5447 16.3234C17.2821 16.4784 16.9611 16.5075 16.7083 16.5269C16.5138 16.5463 16.3095 16.5559 16.0956 16.5559Z" stroke="#346139" stroke-width="0.5" stroke-miterlimit="10"/>
<path d="M2.84961 27.9872C2.89824 22.8528 6.59392 17.5344 12.4973 16.0134C16.7473 14.9188 21.7073 15.4709 25.1404 17.825C28.5735 20.1791 30.5186 24.1994 31.1994 27.8613C31.1897 27.8322 2.84961 27.9872 2.84961 27.9872Z" fill="white"/>
<path d="M2.84961 27.9872C2.89824 22.8528 6.59392 17.5344 12.4973 16.0134C16.7473 14.9188 21.7073 15.4709 25.1404 17.825C28.5735 20.1791 30.5186 24.1994 31.1994 27.8613C31.1897 27.8322 2.84961 27.9872 2.84961 27.9872Z" stroke="#346139" stroke-width="0.5" stroke-miterlimit="10"/>
<path d="M16.7858 15.6841C15.3659 15.6841 13.9265 15.8584 12.5455 16.2169C6.4671 17.7863 3.19933 23.1822 3.06318 27.7838C4.28859 27.7741 10.6491 27.745 17.0095 27.7063C20.5496 27.6869 24.0897 27.6675 26.7545 27.6578C28.0869 27.6481 29.1956 27.6481 29.9736 27.6481C30.4502 27.6481 30.7516 27.6481 30.9462 27.6481C30.1389 23.5794 27.9313 19.9853 25.0233 17.9897C22.8254 16.4881 19.8494 15.6841 16.7858 15.6841ZM2.84921 28.1906C2.79086 28.1906 2.74223 28.1713 2.70333 28.1325C2.66443 28.0938 2.63525 28.0453 2.63525 27.9872C2.69361 22.3781 6.81721 17.2631 12.4385 15.81C16.9804 14.6378 21.8917 15.345 25.247 17.6506C28.3495 19.7819 30.5863 23.4825 31.3935 27.8225L31.1893 27.8613L31.1796 28.0647C30.7516 28.0453 3.13125 28.1906 2.84921 28.1906Z" fill="#346139"/>
<path d="M16.7858 15.6841C15.3659 15.6841 13.9265 15.8584 12.5455 16.2169C6.4671 17.7863 3.19933 23.1822 3.06318 27.7838C4.28859 27.7741 10.6491 27.745 17.0095 27.7063C20.5496 27.6869 24.0897 27.6675 26.7545 27.6578C28.0869 27.6481 29.1956 27.6481 29.9736 27.6481C30.4502 27.6481 30.7516 27.6481 30.9462 27.6481C30.1389 23.5794 27.9313 19.9853 25.0233 17.9897C22.8254 16.4881 19.8494 15.6841 16.7858 15.6841ZM2.84921 28.1906C2.79086 28.1906 2.74223 28.1713 2.70333 28.1325C2.66443 28.0938 2.63525 28.0453 2.63525 27.9872C2.69361 22.3781 6.81721 17.2631 12.4385 15.81C16.9804 14.6378 21.8917 15.345 25.247 17.6506C28.3495 19.7819 30.5863 23.4825 31.3935 27.8225L31.1893 27.8613L31.1796 28.0647C30.7516 28.0453 3.13125 28.1906 2.84921 28.1906Z" stroke="#346139" stroke-width="0.5" stroke-miterlimit="10"/>
<path d="M16.4944 9.88125C16.4555 9.88125 16.4263 9.87156 16.3971 9.85219C15.658 9.44531 15.1523 8.74781 15.0064 7.94375C14.8799 7.2075 15.0939 6.47125 15.5802 5.91906C15.7844 5.68656 16.0373 5.48313 16.2804 5.28938C16.6792 4.96 17.0585 4.65969 17.2141 4.2625C17.2919 4.06875 17.3113 3.84594 17.2821 3.58438C17.1752 2.5575 16.329 1.58875 15.1814 1.17219C15.0744 1.13344 15.0161 1.01719 15.055 0.910626C15.0939 0.804064 15.2106 0.745939 15.3176 0.784689C16.6111 1.24969 17.5642 2.36375 17.6906 3.53594C17.7295 3.86531 17.7003 4.14625 17.6031 4.40781C17.4086 4.92125 16.9612 5.27969 16.5333 5.61875C16.2999 5.80281 16.0665 5.99656 15.8817 6.2C15.4732 6.65531 15.3079 7.26563 15.4051 7.87594C15.5218 8.56375 15.9497 9.145 16.5819 9.49375C16.6792 9.55188 16.7181 9.67781 16.6597 9.77469C16.6403 9.8425 16.5624 9.88125 16.4944 9.88125Z" fill="#346139"/>
<path d="M16.4944 9.88125C16.4555 9.88125 16.4263 9.87156 16.3971 9.85219C15.658 9.44531 15.1523 8.74781 15.0064 7.94375C14.8799 7.2075 15.0939 6.47125 15.5802 5.91906C15.7844 5.68656 16.0373 5.48313 16.2804 5.28938C16.6792 4.96 17.0585 4.65969 17.2141 4.2625C17.2919 4.06875 17.3113 3.84594 17.2821 3.58438C17.1752 2.5575 16.329 1.58875 15.1814 1.17219C15.0744 1.13344 15.0161 1.01719 15.055 0.910626C15.0939 0.804064 15.2106 0.745939 15.3176 0.784689C16.6111 1.24969 17.5642 2.36375 17.6906 3.53594C17.7295 3.86531 17.7003 4.14625 17.6031 4.40781C17.4086 4.92125 16.9612 5.27969 16.5333 5.61875C16.2999 5.80281 16.0665 5.99656 15.8817 6.2C15.4732 6.65531 15.3079 7.26563 15.4051 7.87594C15.5218 8.56375 15.9497 9.145 16.5819 9.49375C16.6792 9.55188 16.7181 9.67781 16.6597 9.77469C16.6403 9.8425 16.5624 9.88125 16.4944 9.88125Z" stroke="#346139" stroke-width="0.5" stroke-miterlimit="10"/>
<path d="M12.4969 10.0266C12.458 10.0266 12.4191 10.0169 12.3899 9.9975C11.8745 9.66812 11.5049 9.15469 11.3882 8.57344C11.2812 8.04062 11.3785 7.49812 11.68 7.06219C11.8745 6.77156 12.1371 6.53906 12.3899 6.30656L13.8099 5.01812C13.8974 4.94062 14.0238 4.95031 14.1016 5.02781C14.1794 5.115 14.1697 5.24093 14.0919 5.31843L12.672 6.60687C12.4386 6.82 12.1954 7.04281 12.0301 7.285C11.7967 7.63375 11.7092 8.05031 11.7967 8.47656C11.8939 8.94156 12.1954 9.36781 12.6136 9.63906C12.7109 9.69718 12.7401 9.82312 12.672 9.92C12.6331 9.9975 12.565 10.0266 12.4969 10.0266Z" fill="#346139"/>
<path d="M12.4969 10.0266C12.458 10.0266 12.4191 10.0169 12.3899 9.9975C11.8745 9.66812 11.5049 9.15469 11.3882 8.57344C11.2812 8.04062 11.3785 7.49812 11.68 7.06219C11.8745 6.77156 12.1371 6.53906 12.3899 6.30656L13.8099 5.01812C13.8974 4.94062 14.0238 4.95031 14.1016 5.02781C14.1794 5.115 14.1697 5.24093 14.0919 5.31843L12.672 6.60687C12.4386 6.82 12.1954 7.04281 12.0301 7.285C11.7967 7.63375 11.7092 8.05031 11.7967 8.47656C11.8939 8.94156 12.1954 9.36781 12.6136 9.63906C12.7109 9.69718 12.7401 9.82312 12.672 9.92C12.6331 9.9975 12.565 10.0266 12.4969 10.0266Z" stroke="#346139" stroke-width="0.5" stroke-miterlimit="10"/>
<path d="M20.2969 9.99751C20.2191 9.99751 20.1413 9.94907 20.1024 9.87157C19.8592 9.31938 19.4216 8.82532 18.8672 8.46688C18.8089 8.42813 18.7505 8.39907 18.6922 8.36032C18.4393 8.20532 18.1767 8.04063 18.0114 7.78876C17.7974 7.47876 17.7974 7.11063 17.8266 6.77157C17.8363 6.65532 17.9336 6.57782 18.0503 6.57782C18.167 6.58751 18.2448 6.68438 18.2448 6.80063C18.2156 7.11063 18.2253 7.36251 18.3615 7.55626C18.4782 7.73063 18.6922 7.86626 18.9159 8.00188C18.9742 8.04063 19.0423 8.07938 19.0909 8.11813C19.7231 8.52501 20.1996 9.0772 20.4817 9.70688C20.5303 9.81345 20.4817 9.9297 20.3747 9.97813C20.3552 9.99751 20.3261 9.99751 20.2969 9.99751Z" fill="#346139"/>
<path d="M20.2969 9.99751C20.2191 9.99751 20.1413 9.94907 20.1024 9.87157C19.8592 9.31938 19.4216 8.82532 18.8672 8.46688C18.8089 8.42813 18.7505 8.39907 18.6922 8.36032C18.4393 8.20532 18.1767 8.04063 18.0114 7.78876C17.7974 7.47876 17.7974 7.11063 17.8266 6.77157C17.8363 6.65532 17.9336 6.57782 18.0503 6.57782C18.167 6.58751 18.2448 6.68438 18.2448 6.80063C18.2156 7.11063 18.2253 7.36251 18.3615 7.55626C18.4782 7.73063 18.6922 7.86626 18.9159 8.00188C18.9742 8.04063 19.0423 8.07938 19.0909 8.11813C19.7231 8.52501 20.1996 9.0772 20.4817 9.70688C20.5303 9.81345 20.4817 9.9297 20.3747 9.97813C20.3552 9.99751 20.3261 9.99751 20.2969 9.99751Z" stroke="#346139" stroke-width="0.5" stroke-miterlimit="10"/>
</svg>
