<svg width="52" height="24" viewBox="0 0 52 24" fill="none" xmlns="http://www.w3.org/2000/svg">
<path d="M35.4966 11.3127C33.7196 12.5018 32.3375 14.3127 30.6811 15.7091C26.4579 19.2545 14.7208 21.6873 9.22522 22.1564C7.89794 22.2764 0.756943 19.6364 1.34928 19.1782C3.72961 17.3673 26.6334 11.1927 35.2443 7.81091C35.8915 7.56 37.9866 5.36727 38.3596 8.11636C38.59 9.80727 36.8239 10.4291 35.4966 11.3127Z" fill="white"/>
<path d="M35.4966 11.3127C33.7196 12.5018 32.3375 14.3127 30.6811 15.7091C26.4579 19.2545 14.7208 21.6873 9.22522 22.1564C7.89794 22.2764 0.756943 19.6364 1.34928 19.1782C3.72961 17.3673 26.6334 11.1927 35.2443 7.81091C35.8915 7.56 37.9866 5.36727 38.3596 8.11636C38.59 9.80727 36.8239 10.4291 35.4966 11.3127Z" stroke="#346139" stroke-width="0.5" stroke-miterlimit="10"/>
<path d="M36.9446 7.11273C37.1859 7.01455 37.4053 6.98183 37.5808 7.05819C37.8989 7.20001 38.0305 7.73455 38.0854 8.1491C38.2499 9.33819 37.2627 9.92728 36.1329 10.5927C35.8696 10.7455 35.5954 10.9091 35.3431 11.0836C34.2571 11.8036 33.3247 12.7527 32.4143 13.68C31.8 14.3018 31.1747 14.9346 30.5166 15.4909C26.3044 19.0364 14.3698 21.4364 9.21427 21.8836C8.0625 21.9818 2.62174 19.9636 1.70033 19.2764C3.38959 18.2509 10.9035 15.9273 18.1871 13.68C24.7139 11.6618 31.4709 9.57819 35.365 8.06183C35.5295 7.99637 35.716 7.86546 35.9683 7.70183C36.2316 7.50546 36.6045 7.25455 36.9446 7.11273ZM26.1289 18.5236C28.0595 17.7491 29.7158 16.8764 30.8676 15.9164C31.5477 15.3491 32.1839 14.6946 32.8092 14.0727C33.6977 13.1673 34.6191 12.24 35.6612 11.5418C35.9025 11.3782 36.1658 11.2255 36.429 11.0727C37.5698 10.3964 38.8532 9.63273 38.6448 8.09455C38.5351 7.26546 38.2609 6.77455 37.8221 6.57819C37.1201 6.27273 36.2755 6.85092 35.6502 7.27637C35.4528 7.41819 35.2663 7.53819 35.1566 7.58183C31.2844 9.09819 24.5383 11.1818 18.0116 13.1891C10.0479 15.6436 2.53399 17.9564 1.18477 18.9818C1.05314 19.08 1.00926 19.2436 1.06411 19.3964C1.39319 20.2473 8.05153 22.5491 9.24718 22.44C13.2181 22.0909 20.7101 20.6946 26.1289 18.5236Z" fill="#346139"/>
<path d="M36.9446 7.11273C37.1859 7.01455 37.4053 6.98183 37.5808 7.05819C37.8989 7.20001 38.0305 7.73455 38.0854 8.1491C38.2499 9.33819 37.2627 9.92728 36.1329 10.5927C35.8696 10.7455 35.5954 10.9091 35.3431 11.0836C34.2571 11.8036 33.3247 12.7527 32.4143 13.68C31.8 14.3018 31.1747 14.9346 30.5166 15.4909C26.3044 19.0364 14.3698 21.4364 9.21427 21.8836C8.0625 21.9818 2.62174 19.9636 1.70033 19.2764C3.38959 18.2509 10.9035 15.9273 18.1871 13.68C24.7139 11.6618 31.4709 9.57819 35.365 8.06183C35.5296 7.99637 35.716 7.86546 35.9683 7.70183C36.2316 7.50546 36.6045 7.25455 36.9446 7.11273ZM26.1289 18.5236C28.0595 17.7491 29.7158 16.8764 30.8676 15.9164C31.5477 15.3491 32.1839 14.6946 32.8092 14.0727C33.6977 13.1673 34.6191 12.24 35.6612 11.5418C35.9025 11.3782 36.1658 11.2255 36.429 11.0727C37.5698 10.3964 38.8532 9.63273 38.6448 8.09455C38.5351 7.26546 38.2609 6.77455 37.8221 6.57819C37.1201 6.27273 36.2755 6.85092 35.6502 7.27637C35.4528 7.41819 35.2663 7.53819 35.1566 7.58183C31.2844 9.09819 24.5383 11.1818 18.0116 13.1891C10.0479 15.6436 2.53399 17.9564 1.18477 18.9818C1.05314 19.08 1.00926 19.2436 1.06411 19.3964C1.39319 20.2473 8.05153 22.5491 9.24718 22.44C13.2181 22.0909 20.7101 20.6946 26.1289 18.5236Z" stroke="#346139" stroke-width="0.5" stroke-miterlimit="10"/>
<path d="M32.3706 7.65819C33.4566 9.3491 34.2573 11.3018 34.6742 13.2655C39.1386 11.64 46.0383 9.14182 48.6709 7.77819C50.0092 7.08001 51.0622 5.80364 49.362 3.13092C48.8355 2.30183 48.0018 1.88728 47.2669 1.84364C46.5319 1.80001 45.8738 2.07273 45.2266 2.34546C42.0016 3.68728 35.6394 6.17455 32.3706 7.65819Z" fill="white"/>
<path d="M32.3706 7.65819C33.4566 9.3491 34.2573 11.3018 34.6742 13.2655C39.1386 11.64 46.0383 9.14182 48.6709 7.77819C50.0092 7.08001 51.0622 5.80364 49.362 3.13092C48.8355 2.30183 48.0018 1.88728 47.2669 1.84364C46.5319 1.80001 45.8738 2.07273 45.2266 2.34546C42.0016 3.68728 35.6394 6.17455 32.3706 7.65819Z" stroke="#346139" stroke-width="0.5" stroke-miterlimit="10"/>
<path d="M45.643 2.46546C46.1586 2.25819 46.6851 2.08364 47.2445 2.11637C47.8259 2.1491 48.6157 2.47637 49.1312 3.27273C49.8442 4.38546 50.1075 5.33455 49.8991 6.06546C49.7345 6.65455 49.2958 7.13455 48.5389 7.52728C46.0489 8.82546 39.5331 11.1927 35.2222 12.7636L34.8712 12.8946C34.4544 11.0946 33.7304 9.33819 32.7651 7.76728C34.926 6.80728 38.2388 5.46546 41.1785 4.27637C42.7471 3.64364 44.2389 3.04364 45.3359 2.58546C45.4346 2.55273 45.5443 2.5091 45.643 2.46546ZM45.0397 9.66546C46.5973 9.04364 47.9246 8.46546 48.8022 8.00728C49.6907 7.5491 50.2391 6.93819 50.4366 6.20728C50.6779 5.31273 50.3927 4.23273 49.6029 2.97819C49.0874 2.16001 48.1988 1.62546 47.2994 1.57091C46.4986 1.52728 45.7746 1.82182 45.1384 2.09455C44.0415 2.55273 42.5497 3.15273 40.9811 3.78546C37.9097 5.0291 34.4214 6.43637 32.2715 7.40728C32.1947 7.44001 32.1508 7.50546 32.1179 7.58182C32.096 7.65819 32.1069 7.73455 32.1508 7.80001C33.2258 9.4691 34.0046 11.3782 34.4214 13.32C34.4324 13.3964 34.4873 13.4618 34.5531 13.5055C34.6189 13.5491 34.7066 13.5491 34.7834 13.5273L35.4197 13.2873C38.4033 12.1964 42.1109 10.8436 45.0397 9.66546Z" fill="#346139"/>
<path d="M45.643 2.46546C46.1586 2.25819 46.6851 2.08364 47.2445 2.11637C47.8259 2.1491 48.6157 2.47637 49.1312 3.27273C49.8442 4.38546 50.1075 5.33455 49.8991 6.06546C49.7345 6.65455 49.2958 7.13455 48.5389 7.52728C46.0489 8.82546 39.5331 11.1927 35.2222 12.7636L34.8712 12.8946C34.4544 11.0946 33.7304 9.33819 32.7651 7.76728C34.926 6.80728 38.2388 5.46546 41.1785 4.27637C42.7471 3.64364 44.2389 3.04364 45.3359 2.58546C45.4346 2.55273 45.5443 2.5091 45.643 2.46546ZM45.0397 9.66546C46.5973 9.04364 47.9246 8.46546 48.8022 8.00728C49.6907 7.5491 50.2391 6.93819 50.4366 6.20728C50.6779 5.31273 50.3927 4.23273 49.6029 2.97819C49.0874 2.16001 48.1988 1.62546 47.2994 1.57091C46.4986 1.52728 45.7746 1.82182 45.1384 2.09455C44.0415 2.55273 42.5497 3.15273 40.9811 3.78546C37.9097 5.0291 34.4214 6.43637 32.2715 7.40728C32.1947 7.44001 32.1508 7.50546 32.1179 7.58182C32.096 7.65819 32.1069 7.73455 32.1508 7.80001C33.2258 9.4691 34.0046 11.3782 34.4214 13.32C34.4324 13.3964 34.4873 13.4618 34.5531 13.5055C34.6189 13.5491 34.7066 13.5491 34.7834 13.5273L35.4197 13.2873C38.4033 12.1964 42.1109 10.8436 45.0397 9.66546Z" stroke="#346139" stroke-width="0.5" stroke-miterlimit="10"/>
</svg>
