<svg width="32" height="32" viewBox="0 0 32 32" fill="none" xmlns="http://www.w3.org/2000/svg">
<path d="M19.6129 5.65677C19.2889 5.1805 19.1294 4.61141 19.1587 4.03613V3.88129C19.2106 3.15847 19.0376 2.43729 18.6632 1.81677C18.473 1.58335 18.2258 1.40282 17.9456 1.29254C17.6654 1.18227 17.3615 1.14595 17.0632 1.1871C16.466 1.27271 15.9254 1.58739 15.5561 2.06452C15.3781 2.32794 15.2194 2.60394 15.0813 2.89032C14.9686 3.12198 14.841 3.3461 14.6993 3.56129C14.5139 3.83679 14.252 4.05207 13.9458 4.18065L14.4619 4.30452C14.665 4.15496 14.8428 3.97372 14.9884 3.76774C15.1385 3.53612 15.273 3.29472 15.391 3.04516C15.5239 2.77999 15.6757 2.52471 15.8452 2.28129C16.1339 1.87155 16.5707 1.59021 17.0632 1.49677C17.3062 1.46977 17.5521 1.50816 17.7753 1.60797C17.9985 1.70778 18.191 1.86539 18.3329 2.06452C18.659 2.63044 18.8065 3.28169 18.7561 3.9329V4.07742C18.7565 4.58555 18.8619 5.08812 19.0658 5.55355L19.5613 5.68774" fill="#97C93D"/>
<path d="M19.6129 5.65677C19.2889 5.1805 19.1294 4.61141 19.1587 4.03613V3.88129C19.2106 3.15847 19.0376 2.43729 18.6632 1.81677C18.473 1.58335 18.2258 1.40282 17.9456 1.29254C17.6654 1.18227 17.3615 1.14595 17.0632 1.1871C16.466 1.27271 15.9254 1.58739 15.5561 2.06452C15.3781 2.32794 15.2194 2.60394 15.0813 2.89032C14.9686 3.12198 14.841 3.3461 14.6993 3.56129C14.5139 3.83679 14.252 4.05207 13.9458 4.18065L14.4619 4.30452C14.665 4.15496 14.8428 3.97372 14.9884 3.76774C15.1385 3.53612 15.273 3.29472 15.391 3.04516C15.5239 2.77999 15.6757 2.52471 15.8452 2.28129C16.1339 1.87155 16.5707 1.59021 17.0632 1.49677C17.3062 1.46977 17.5521 1.50816 17.7753 1.60797C17.9985 1.70778 18.191 1.86539 18.3329 2.06452C18.659 2.63044 18.8065 3.28169 18.7561 3.9329V4.07742C18.7565 4.58555 18.8619 5.08812 19.0658 5.55355L19.6129 5.65677Z" stroke="white" stroke-width="0.5" stroke-miterlimit="10"/>
<path d="M30.1524 16.5884C30.0218 16.3718 29.8391 16.1913 29.621 16.0633C29.4029 15.9353 29.1562 15.8639 28.9034 15.8555C27.8712 15.7729 26.8389 15.7419 25.8066 15.7419C25.8066 15.8555 25.8066 15.969 25.8066 16.0826C26.8389 16.0826 27.8195 16.0826 28.8208 16.2064C29.024 16.2092 29.2235 16.2602 29.403 16.3554C29.5825 16.4505 29.7368 16.587 29.8531 16.7535C29.9583 16.9653 29.9768 17.2097 29.9047 17.4348C29.8862 17.5058 29.8539 17.5724 29.8096 17.6309C29.7653 17.6893 29.7099 17.7385 29.6466 17.7755C29.5166 17.8318 29.3751 17.8566 29.2337 17.8477C28.2015 17.8993 27.1692 17.9097 26.137 17.8477H25.8066C25.8066 17.9716 25.8066 18.0852 25.8066 18.209H26.137H27.1692C27.8608 18.209 28.5421 18.209 29.2337 18.209C29.4253 18.2093 29.615 18.1707 29.7912 18.0955C29.8966 18.0358 29.9892 17.9558 30.0636 17.8601C30.138 17.7644 30.1928 17.655 30.2247 17.5381C30.3184 17.2225 30.2888 16.8831 30.1421 16.5884" fill="#97C93D"/>
<path d="M30.1524 16.5884C30.0218 16.3718 29.8391 16.1913 29.621 16.0633C29.4029 15.9353 29.1562 15.8639 28.9034 15.8555C27.8712 15.7729 26.8389 15.7419 25.8066 15.7419C25.8066 15.8555 25.8066 15.969 25.8066 16.0826C26.8389 16.0826 27.8195 16.0826 28.8208 16.2064C29.024 16.2092 29.2235 16.2602 29.403 16.3554C29.5825 16.4505 29.7368 16.587 29.8531 16.7535C29.9583 16.9653 29.9768 17.2097 29.9047 17.4348C29.8862 17.5058 29.8539 17.5724 29.8096 17.6309C29.7653 17.6893 29.7099 17.7385 29.6466 17.7755C29.5166 17.8318 29.3751 17.8566 29.2337 17.8477C28.2015 17.8993 27.1692 17.9097 26.137 17.8477H25.8066C25.8066 17.9716 25.8066 18.0852 25.8066 18.209H26.137H27.1692C27.8608 18.209 28.5421 18.209 29.2337 18.209C29.4253 18.2093 29.615 18.1707 29.7912 18.0955C29.8966 18.0358 29.9892 17.9558 30.0636 17.8601C30.138 17.7644 30.1928 17.655 30.2247 17.5381C30.3216 17.2237 30.2957 16.8844 30.1524 16.5884Z" stroke="white" stroke-width="0.5" stroke-miterlimit="10"/>
<path d="M6.03849 15.7523C5.09913 15.7523 4.14945 15.7523 3.22042 15.8555C2.96 15.8609 2.70496 15.9307 2.47803 16.0586C2.2511 16.1864 2.05932 16.3684 1.91978 16.5884C1.77406 16.8834 1.74458 17.2224 1.8372 17.5381C1.90564 17.7722 2.06066 17.9715 2.27074 18.0955C2.4508 18.1699 2.64365 18.2085 2.83849 18.209C3.51978 18.209 4.20107 18.209 4.903 18.209H6.02816C6.02816 18.0955 6.02816 17.9716 6.02816 17.8581H5.92494C4.89268 17.8581 3.86042 17.8581 2.82816 17.8581C2.68687 17.865 2.5458 17.8403 2.41526 17.7858C2.28816 17.7102 2.19557 17.588 2.1572 17.4452C2.09657 17.2188 2.11477 16.9785 2.20881 16.7639C2.32686 16.5991 2.48152 16.4639 2.66063 16.369C2.83974 16.2741 3.03842 16.222 3.24107 16.2168C4.1701 16.1445 5.09913 16.1239 6.02816 16.1239C6.02816 16 6.02816 15.8865 6.02816 15.7626" fill="#97C93D"/>
<path d="M6.03849 15.7523C5.09913 15.7523 4.14945 15.7523 3.22042 15.8555C2.96 15.8609 2.70496 15.9307 2.47803 16.0586C2.2511 16.1864 2.05932 16.3684 1.91978 16.5884C1.77406 16.8834 1.74458 17.2224 1.8372 17.5381C1.90564 17.7722 2.06066 17.9715 2.27074 18.0955C2.4508 18.1699 2.64365 18.2085 2.83849 18.209C3.51978 18.209 4.20107 18.209 4.903 18.209H6.02816C6.02816 18.0955 6.02816 17.9716 6.02816 17.8581H5.92494C4.89268 17.8581 3.86042 17.8581 2.82816 17.8581C2.68687 17.865 2.5458 17.8403 2.41526 17.7858C2.28816 17.7102 2.19557 17.588 2.1572 17.4452C2.09657 17.2188 2.11477 16.9785 2.20881 16.7639C2.32686 16.5991 2.48152 16.4639 2.66063 16.369C2.83974 16.2741 3.03842 16.222 3.24107 16.2168C4.1701 16.1445 5.09913 16.1239 6.02816 16.1239C6.03849 15.9897 6.02816 15.8761 6.03849 15.7523Z" stroke="white" stroke-width="0.5" stroke-miterlimit="10"/>
<path d="M10.7458 30.4206C14.5755 30.4723 20.3768 30.5135 20.9032 30.4206C20.9212 30.413 20.9405 30.409 20.96 30.409C20.9795 30.409 20.9988 30.413 21.0168 30.4206C21.5784 30.4464 22.1365 30.3188 22.6312 30.0515C23.1258 29.7842 23.5384 29.3872 23.8245 28.9032C24.4579 27.8624 24.8724 26.7033 25.0426 25.4968C25.6496 21.6505 25.8296 17.749 25.5794 13.8632H6.27613C6.13368 16.5774 6.16816 19.298 6.37935 22.0077V22.2142C6.43468 23.8583 6.75538 25.4827 7.32903 27.0245C7.6196 27.804 8.0727 28.5127 8.65824 29.1036C9.24378 29.6945 9.94836 30.154 10.7252 30.4516M17.5484 30.8232H15.8452C13.3058 30.8232 10.7355 30.7716 10.6839 30.7716H10.6323C9.80287 30.4624 9.04939 29.979 8.42261 29.354C7.79582 28.729 7.31028 27.9769 6.99871 27.1484C6.40614 25.5714 6.0749 23.9082 6.01806 22.2245V22.0181C5.80187 19.2396 5.76739 16.45 5.91484 13.6671C5.91484 13.6206 5.93332 13.5759 5.96623 13.543C5.99914 13.5101 6.04378 13.4916 6.09032 13.4916H25.7032C25.7498 13.4916 25.7944 13.5101 25.8273 13.543C25.8602 13.5759 25.8787 13.6206 25.8787 13.6671C26.1492 17.6351 25.9691 21.6209 25.3419 25.5484C25.1744 26.802 24.7416 28.0055 24.0723 29.0787C23.7522 29.6084 23.2963 30.0428 22.7517 30.3368C22.2072 30.6308 21.5939 30.7738 20.9755 30.751C20.8211 30.7684 20.6653 30.7684 20.511 30.751H19.3342H17.5484" fill="#97C93D"/>
<path d="M10.7458 30.4206C14.5755 30.4723 20.3768 30.5135 20.9032 30.4206C20.9212 30.413 20.9405 30.409 20.96 30.409C20.9795 30.409 20.9988 30.413 21.0168 30.4206C21.5784 30.4464 22.1365 30.3188 22.6312 30.0515C23.1258 29.7842 23.5384 29.3872 23.8245 28.9032C24.4579 27.8624 24.8724 26.7033 25.0426 25.4968C25.6496 21.6505 25.8296 17.749 25.5794 13.8632H6.27613C6.13368 16.5774 6.16816 19.298 6.37935 22.0077V22.2142C6.43468 23.8583 6.75538 25.4827 7.32903 27.0245C7.62554 27.8003 8.08347 28.5042 8.67251 29.0897C9.26154 29.6752 9.96824 30.1288 10.7458 30.4206ZM17.5484 30.8232H15.8452C13.3058 30.8232 10.7355 30.7716 10.6839 30.7716H10.6323C9.80287 30.4624 9.04939 29.979 8.42261 29.354C7.79582 28.729 7.31028 27.9769 6.99871 27.1484C6.40614 25.5714 6.0749 23.9082 6.01806 22.2245V22.0181C5.80187 19.2396 5.76739 16.45 5.91484 13.6671C5.91484 13.6206 5.93332 13.5759 5.96623 13.543C5.99914 13.5101 6.04378 13.4916 6.09032 13.4916H25.7032C25.7498 13.4916 25.7944 13.5101 25.8273 13.543C25.8602 13.5759 25.8787 13.6206 25.8787 13.6671C26.1492 17.6351 25.9691 21.6209 25.3419 25.5484C25.1744 26.802 24.7416 28.0055 24.0723 29.0787C23.7522 29.6084 23.2963 30.0428 22.7517 30.3368C22.2072 30.6308 21.5939 30.7738 20.9755 30.751C20.8211 30.7684 20.6653 30.7684 20.511 30.751H19.3342L17.5484 30.8232Z" stroke="white" stroke-width="0.5" stroke-miterlimit="10"/>
<path d="M6.31752 5.79097C13.5433 7.48387 19.9743 9.07355 25.9304 10.6632C25.8833 10.0344 25.71 9.42151 25.421 8.86109C25.1319 8.30068 24.7329 7.80421 24.2478 7.40129C23.7362 7.02547 23.1473 6.76808 22.524 6.64774L20.7588 6.19355C18.1369 5.46064 15.8659 4.83097 13.1098 4.23226C12.0327 3.96285 10.9345 3.78671 9.8272 3.7058C9.35497 3.66466 8.8792 3.71014 8.42332 3.84C7.54804 4.26821 6.82684 4.95696 6.35881 5.81161M26.0853 11.0864C19.9743 9.44516 13.4195 7.81419 5.9872 6.08C5.95981 6.0732 5.93446 6.05989 5.91331 6.04121C5.89216 6.02253 5.87583 5.99902 5.8657 5.97268C5.85557 5.94634 5.85194 5.91795 5.85512 5.88991C5.8583 5.86187 5.8682 5.83501 5.88397 5.81161C6.41334 4.80843 7.24359 3.99623 8.25816 3.48903C8.75505 3.33369 9.27834 3.28101 9.79623 3.33419C10.924 3.41411 12.0429 3.59023 13.1407 3.86064C15.9072 4.46967 18.1782 5.09935 20.8207 5.83226L22.524 6.30709C23.1948 6.44187 23.8287 6.72004 24.382 7.12258C24.9399 7.5823 25.3899 8.15899 25.7003 8.81184C26.0107 9.4647 26.1738 10.1778 26.1782 10.9006C26.177 10.927 26.1699 10.9528 26.1574 10.976C26.1449 10.9992 26.1273 11.0193 26.1059 11.0348C26.0723 11.0452 26.0363 11.0452 26.0027 11.0348" fill="#97C93D"/>
<path d="M6.31752 5.79097C13.5433 7.48387 19.9743 9.07355 25.9304 10.6632C25.8833 10.0344 25.71 9.42151 25.421 8.86109C25.1319 8.30068 24.7329 7.80421 24.2478 7.40129C23.7362 7.02547 23.1473 6.76808 22.524 6.64774L20.7588 6.19355C18.1369 5.46064 15.8659 4.83097 13.1098 4.23226C12.0327 3.96285 10.9345 3.78671 9.8272 3.7058C9.35497 3.66466 8.8792 3.71014 8.42332 3.84C7.53576 4.25577 6.79974 4.93768 6.31752 5.79097ZM26.044 11.0658C19.9743 9.44516 13.4195 7.81419 5.9872 6.08C5.95981 6.0732 5.93446 6.05989 5.91331 6.04121C5.89216 6.02253 5.87583 5.99902 5.8657 5.97268C5.85557 5.94634 5.85194 5.91795 5.85512 5.88991C5.8583 5.86187 5.8682 5.83501 5.88397 5.81161C6.41334 4.80843 7.24359 3.99623 8.25816 3.48903C8.75505 3.33369 9.27834 3.28101 9.79623 3.33419C10.924 3.41411 12.0429 3.59023 13.1407 3.86064C15.9072 4.46967 18.1782 5.09935 20.8207 5.83226L22.524 6.30709C23.1948 6.44187 23.8287 6.72004 24.382 7.12258C24.9399 7.5823 25.3899 8.15899 25.7003 8.81184C26.0107 9.4647 26.1738 10.1778 26.1782 10.9006C26.177 10.927 26.1699 10.9528 26.1574 10.976C26.1449 10.9992 26.1273 11.0193 26.1059 11.0348C26.0875 11.0492 26.0665 11.0597 26.044 11.0658Z" stroke="white" stroke-width="0.5" stroke-miterlimit="10"/>
<path d="M11.0968 11.871C11.0574 11.8739 11.0183 11.8617 10.9876 11.8367C10.9568 11.8118 10.9368 11.776 10.9317 11.7368C10.7017 10.6713 10.0598 9.73988 9.14587 9.14581C8.76272 8.88164 8.33086 8.69632 7.87541 8.60063C7.41997 8.50493 6.95004 8.50077 6.49297 8.58839C6.24523 8.58839 5.98716 8.72258 5.74974 8.79484C5.34864 8.94807 4.92835 9.04533 4.50071 9.08387C4.00454 9.09803 3.51417 8.97432 3.0841 8.72648C2.65403 8.47864 2.30111 8.11639 2.06458 7.68C1.8259 7.22642 1.70117 6.72158 1.70117 6.20903C1.70117 5.69649 1.8259 5.19164 2.06458 4.73807C2.08829 4.69888 2.12564 4.66982 2.16946 4.65649C2.21328 4.64315 2.26048 4.64647 2.302 4.66581C2.32372 4.67659 2.34297 4.69176 2.35853 4.71035C2.37409 4.72895 2.38563 4.75057 2.39242 4.77384C2.39921 4.79712 2.4011 4.82155 2.39797 4.8456C2.39485 4.86964 2.38677 4.89278 2.37426 4.91355C2.16101 5.31206 2.04944 5.75705 2.04944 6.20903C2.04944 6.66101 2.16101 7.106 2.37426 7.50452C2.57461 7.87726 2.87258 8.18849 3.23625 8.40488C3.59992 8.62126 4.0156 8.73465 4.43878 8.7329C4.84795 8.69631 5.25054 8.60608 5.6362 8.46452C5.89426 8.38194 6.19361 8.25807 6.42071 8.25807C6.92372 8.16125 7.44094 8.16522 7.9424 8.26977C8.44386 8.37431 8.91959 8.57735 9.342 8.8671C9.83316 9.18692 10.2565 9.60043 10.5877 10.084C10.9189 10.5675 11.1516 11.1116 11.2723 11.6852C11.2815 11.7303 11.2726 11.7772 11.2475 11.8159C11.2224 11.8545 11.1831 11.8817 11.1381 11.8916" fill="#97C93D"/>
<path d="M11.0968 11.871C11.0574 11.8739 11.0183 11.8617 10.9876 11.8367C10.9568 11.8118 10.9368 11.776 10.9317 11.7368C10.7017 10.6713 10.0598 9.73988 9.14587 9.14581C8.76272 8.88164 8.33086 8.69632 7.87541 8.60063C7.41997 8.50493 6.95004 8.50077 6.49297 8.58839C6.24523 8.58839 5.98716 8.72258 5.74974 8.79484C5.34864 8.94807 4.92835 9.04533 4.50071 9.08387C4.00454 9.09803 3.51417 8.97432 3.0841 8.72648C2.65403 8.47864 2.30111 8.11639 2.06458 7.68C1.8259 7.22642 1.70117 6.72158 1.70117 6.20903C1.70117 5.69649 1.8259 5.19164 2.06458 4.73807C2.08829 4.69888 2.12564 4.66982 2.16946 4.65649C2.21328 4.64315 2.26048 4.64647 2.302 4.66581C2.32372 4.67659 2.34297 4.69176 2.35853 4.71035C2.37409 4.72895 2.38563 4.75057 2.39242 4.77384C2.39921 4.79712 2.4011 4.82155 2.39797 4.8456C2.39485 4.86964 2.38677 4.89278 2.37426 4.91355C2.16101 5.31206 2.04944 5.75705 2.04944 6.20903C2.04944 6.66101 2.16101 7.106 2.37426 7.50452C2.57461 7.87726 2.87258 8.18849 3.23625 8.40488C3.59992 8.62126 4.0156 8.73465 4.43878 8.7329C4.84795 8.69631 5.25054 8.60608 5.6362 8.46452C5.89426 8.38194 6.19361 8.25807 6.42071 8.25807C6.92372 8.16125 7.44094 8.16522 7.9424 8.26977C8.44386 8.37431 8.91959 8.57735 9.342 8.8671C9.83316 9.18692 10.2565 9.60043 10.5877 10.084C10.9189 10.5675 11.1516 11.1116 11.2723 11.6852C11.2815 11.7303 11.2726 11.7772 11.2475 11.8159C11.2224 11.8545 11.1831 11.8817 11.1381 11.8916L11.0968 11.871Z" stroke="white" stroke-width="0.5" stroke-miterlimit="10"/>
<path d="M8.45435 12.3871C8.40931 12.3931 8.3637 12.3814 8.32712 12.3544C8.29054 12.3275 8.26585 12.2874 8.25822 12.2426C8.21904 11.8393 8.02733 11.4662 7.72228 11.1995C7.41722 10.9328 7.02184 10.7927 6.61693 10.8077C6.12324 10.8114 5.63279 10.8879 5.16145 11.0348C4.82158 11.1233 4.47693 11.1922 4.12919 11.2413C4.10612 11.2442 4.08271 11.2424 4.06031 11.2362C4.03792 11.2299 4.01699 11.2193 3.99874 11.2049C3.9805 11.1905 3.96529 11.1726 3.95402 11.1523C3.94274 11.1319 3.93562 11.1096 3.93306 11.0865C3.92987 11.0404 3.94396 10.9947 3.97259 10.9585C4.00122 10.9222 4.04233 10.8979 4.0879 10.8903C4.43574 10.8418 4.78042 10.7729 5.12016 10.6839C5.63647 10.5314 6.17149 10.4514 6.70984 10.4465C7.20616 10.4395 7.68667 10.6209 8.05448 10.9543C8.42228 11.2876 8.65002 11.748 8.69177 12.2426C8.69329 12.266 8.68979 12.2895 8.68151 12.3115C8.67323 12.3335 8.66035 12.3534 8.64374 12.37C8.62713 12.3866 8.60718 12.3995 8.5852 12.4078C8.56322 12.4161 8.53973 12.4196 8.51629 12.4181" fill="#97C93D"/>
<path d="M8.45435 12.3871C8.40931 12.3931 8.3637 12.3814 8.32712 12.3544C8.29054 12.3275 8.26585 12.2874 8.25822 12.2426C8.21904 11.8393 8.02733 11.4662 7.72227 11.1995C7.41722 10.9328 7.02184 10.7927 6.61693 10.8077C6.12324 10.8114 5.63279 10.8879 5.16145 11.0348C4.82158 11.1233 4.47693 11.1922 4.12919 11.2413C4.10612 11.2442 4.08271 11.2424 4.06031 11.2362C4.03792 11.2299 4.01699 11.2193 3.99874 11.2049C3.9805 11.1905 3.96529 11.1726 3.95402 11.1523C3.94274 11.1319 3.93562 11.1096 3.93306 11.0865C3.92987 11.0404 3.94396 10.9947 3.97259 10.9585C4.00122 10.9222 4.04233 10.8979 4.0879 10.8903C4.43574 10.8418 4.78042 10.7729 5.12016 10.6839C5.63647 10.5314 6.17149 10.4514 6.70984 10.4465C7.20616 10.4395 7.68667 10.6209 8.05448 10.9543C8.42228 11.2876 8.65002 11.748 8.69177 12.2426C8.69111 12.2702 8.6835 12.2973 8.66966 12.3213C8.65581 12.3452 8.63617 12.3653 8.61253 12.3797C8.5889 12.3941 8.56203 12.4023 8.53439 12.4036C8.50675 12.4049 8.47923 12.3992 8.45435 12.3871Z" stroke="white" stroke-width="0.5" stroke-miterlimit="10"/>
</svg>
