<svg width="29" height="27" viewBox="0 0 29 27" fill="none" xmlns="http://www.w3.org/2000/svg">
<g clip-path="url(#clip0_44_149)">
<path d="M14.7399 8.8C14.7399 8.8 9.99995 1.93 2.80995 8.73C-5.75005 16.84 13.0999 26.53 13.0999 26.53C13.0999 26.53 21.3499 24.76 25.4999 19.53C27.5699 16.94 29.9399 13.39 27.1499 9.03C25.5899 6.59 23.8499 5.59 22.1499 5.38C18.2399 4.9 14.7099 8.76 14.7099 8.76" fill="#336138"/>
<path d="M24.5401 13.48H23.5401V16.48L21.7201 13.48H20.7201V18.15H21.7201V15.15L23.5401 18.15H24.5401V13.48ZM19.2501 16.41H16.7701V17.22H19.2501V16.41ZM19.2501 18.15H20.3201L18.5801 13.48H17.8901L18.0001 14.36L19.2501 18.15ZM18.2501 14.36L18.3401 13.48H17.6601L15.9201 18.15H17.0001L18.2501 14.36ZM15.6301 15.68H13.7901V16.41H14.6301V17.19L14.5001 17.29C14.4238 17.3267 14.3432 17.3536 14.2601 17.37C14.1405 17.3827 14.0198 17.3827 13.9001 17.37C13.6905 17.3766 13.4841 17.3171 13.3101 17.2C13.1385 17.0795 13.009 16.9081 12.9401 16.71C12.853 16.4526 12.8123 16.1817 12.8201 15.91V15.64C12.8132 15.3651 12.8538 15.0911 12.9401 14.83C12.9965 14.6391 13.1121 14.471 13.2701 14.35C13.4224 14.2347 13.6093 14.1748 13.8001 14.18C13.9584 14.1731 14.1161 14.204 14.2601 14.27C14.3748 14.3267 14.4691 14.4176 14.5301 14.53C14.6027 14.6556 14.6471 14.7955 14.6601 14.94H15.6601C15.6371 14.6518 15.5518 14.3721 15.4101 14.12C15.2663 13.8835 15.0582 13.6927 14.8101 13.57C14.4956 13.4306 14.1541 13.3623 13.8101 13.37C13.4584 13.3672 13.1126 13.4606 12.8101 13.64C12.5049 13.8178 12.2635 14.0872 12.1201 14.41C11.9424 14.795 11.8568 15.2161 11.8701 15.64V16C11.8596 16.4247 11.9486 16.8459 12.1301 17.23C12.281 17.5542 12.5292 17.8234 12.8401 18C13.1658 18.1852 13.5356 18.2785 13.9101 18.27C14.2039 18.2745 14.4968 18.2374 14.7801 18.16C14.9887 18.1032 15.1875 18.0156 15.3701 17.9C15.5002 17.8207 15.6181 17.723 15.7201 17.61L15.6301 15.68ZM11.4101 13.48H9.00014V14.29H11.4601L11.4101 13.48ZM11.0901 15.36H9.00014V16.14H11.1401L11.0901 15.36ZM9.29014 13.48H8.29014V18.15H9.29014V13.48ZM11.4401 17.34H9.00014V18.15H11.4701L11.4401 17.34ZM4.76014 13.48H3.64014L5.25014 18.15H6.00014L5.83014 17.15L4.76014 13.48ZM5.76014 17.12L5.60014 18.12H6.34014L7.96014 13.45H6.81014L5.76014 17.12Z" fill="white"/>
<path d="M15.18 7.26C15.18 7.26 9.73003 5.38 11.71 0.469999C11.71 0.469999 17.12 2.41 15.18 7.26Z" fill="#336138"/>
</g>
<defs>
<clipPath id="clip0_44_149">
<rect width="29" height="27" fill="white"/>
</clipPath>
</defs>
</svg>
